M48
; DRILL file {KiCad 9.0.7} date 2026-05-25T14:56:40+0530
; FORMAT={-:-/ absolute / metric / decimal}
; #@! TF.CreationDate,2026-05-25T14:56:40+05:30
; #@! TF.GenerationSoftware,Kicad,Pcbnew,9.0.7
; #@! TF.FileFunction,Plated,1,2,PTH
FMAT,2
METRIC
; #@! TA.AperFunction,Plated,PTH,ViaDrill
T1C0.100
; #@! TA.AperFunction,Plated,PTH,ViaDrill
T2C0.300
; #@! TA.AperFunction,Plated,PTH,ComponentDrill
T3C0.600
; #@! TA.AperFunction,Plated,PTH,ComponentDrill
T4C0.750
; #@! TA.AperFunction,Plated,PTH,ComponentDrill
T5C0.800
; #@! TA.AperFunction,Plated,PTH,ComponentDrill
T6C0.900
; #@! TA.AperFunction,Plated,PTH,ComponentDrill
T7C1.000
; #@! TA.AperFunction,Plated,PTH,ComponentDrill
T8C1.200
; #@! TA.AperFunction,Plated,PTH,ComponentDrill
T9C1.500
; #@! TA.AperFunction,Plated,PTH,ComponentDrill
T10C1.700
%
G90
G05
T1
X14.59Y-13.98
X15.38Y-18.55
X15.38Y-19.59
X16.28Y-104.58
X16.3Y-14.09
X16.46Y-18.63
X16.48Y-19.6
X18.18Y-106.46
X57.13Y-90.42
X62.25Y-100.02
X71.49Y-75.1
X76.06Y-91.33
X117.47Y-82.58
X221.11Y-80.82
X225.36Y-81.77
X236.02Y-74.99
X246.29Y-54.08
X247.63Y-91.2
X257.31Y-81.46
X257.77Y-76.75
X258.43Y-81.21
X258.85Y-92.92
X259.303Y-80.973
X260.23Y-80.77
X260.95Y-77.49
X261.21Y-69.504
X263.94Y-84.7
X264.55Y-86.08
X265.11Y-49.2
X266.98Y-26.8
X268.82Y-61.29
X269.62Y-64.27
X270.26Y-51.394
X271.14Y-47.52
X271.69Y-47.79
X272.07Y-48.85
X272.11Y-66.92
X272.19Y-68.48
X273.15Y-53.31
X274.357Y-62.023
X274.56Y-82.37
X274.95Y-39.48
X275.02Y-35.98
X275.5Y-81.92
X276.09Y-33.99
X277.409Y-56.64
X277.6Y-55.74
X277.8Y-80.88
X278.06Y-82.51
X278.09Y-88.98
X278.14Y-85.34
X278.5Y-52.989
X278.816Y-61.72
X278.94Y-77.06
X279.98Y-75.71
X280.09Y-82.96
X280.11Y-81.94
X280.33Y-71.67
X280.43Y-80.32
X280.593Y-70.771
X280.75Y-58.25
X280.9Y-73.7
X280.92Y-55.19
X281.21Y-82.69
X281.69Y-64.44
X281.7Y-55.62
X281.78Y-61.72
X281.82Y-49.94
X282.76Y-51.5
X282.801Y-77.41
X283.05Y-94.49
X283.336Y-57.704
X283.39Y-29.134
X283.39Y-101.03
X283.62Y-91.16
X283.67Y-51.11
X283.8Y-56.79
X284.07Y-65.88
X284.24Y-49.68
X284.75Y-53.19
X284.75Y-65.357
X284.84Y-60.99
X284.85Y-102.42
X285.141Y-62.621
X285.26Y-79.4
X285.32Y-57.37
X285.51Y-65.46
X285.53Y-52.99
X285.57Y-46.35
X285.571Y-43.411
X285.62Y-47.79
X285.88Y-76.68
X286.07Y-43.69
X286.153Y-66.483
X286.21Y-71.473
X286.53Y-45.99
X286.74Y-72.15
X287.433Y-58.799
X287.54Y-64.39
X287.57Y-58.3
X287.61Y-94.54
X287.63Y-83.4
X287.662Y-57.572
X287.99Y-57.06
X288.06Y-65.49
X288.08Y-31.04
X288.18Y-62.621
X288.26Y-49.69
X288.26Y-100.94
X288.39Y-58.33
X288.59Y-73.25
X288.81Y-48.3
X288.91Y-101.94
X288.98Y-58.19
X289.39Y-46.8
X289.58Y-95.62
X290.35Y-22.63
X290.87Y-38.39
X290.89Y-40.31
X291.1Y-90.61
X292.03Y-84.84
X292.43Y-105.79
X292.44Y-41.09
X292.44Y-44.44
X292.45Y-46.35
X292.51Y-40.12
X292.52Y-39.01
X292.62Y-102.85
X292.8Y-60.63
X292.92Y-99.99
X293.13Y-90.62
X293.48Y-102.42
X293.56Y-44.99
X293.601Y-100.941
X293.65Y-45.81
X293.66Y-42.28
X294.322Y-43.592
X294.54Y-39.55
X294.9Y-46.58
X295.159Y-98.091
X295.9Y-97.28
X296.11Y-66.93
X296.76Y-99.055
X296.88Y-59.7
X296.9Y-40.53
X297.35Y-39.24
X297.66Y-102.096
X297.68Y-74.16
X297.68Y-82.91
X297.68Y-84.3
X297.69Y-66.67
X297.7Y-79.11
X297.7Y-95.45
X297.72Y-78.16
X297.74Y-94.58
X297.76Y-92.05
X297.77Y-75.17
X297.8Y-99.04
X297.895Y-83.362
X297.91Y-40.53
X297.91Y-82.0
X297.939Y-76.84
X297.939Y-97.24
X297.939Y-81.501
X298.02Y-41.75
X298.994Y-102.766
X299.0Y-40.98
X299.24Y-64.02
X299.24Y-98.53
X299.24Y-100.08
X299.4Y-61.44
X299.5Y-62.368
X299.737Y-95.203
X299.851Y-40.04
X299.88Y-67.78
X299.88Y-78.04
X299.92Y-75.79
X299.95Y-79.2
X299.962Y-94.156
X300.08Y-91.22
X300.08Y-93.67
X300.16Y-74.14
X300.23Y-82.0
X300.4Y-72.2
X300.48Y-63.35
X300.65Y-92.05
X300.79Y-96.37
X300.85Y-74.7
X300.918Y-60.742
X301.19Y-33.17
X301.62Y-69.88
X301.66Y-77.54
X301.68Y-102.99
X301.8Y-64.53
X301.96Y-62.42
X302.022Y-105.158
X302.16Y-93.63
X302.297Y-88.697
X302.3Y-72.36
X302.45Y-63.04
X302.48Y-104.25
X302.63Y-75.62
X302.723Y-93.537
X302.747Y-86.84
X303.14Y-29.33
X303.41Y-20.87
X303.64Y-32.88
X304.1Y-46.13
X305.78Y-18.74
X306.08Y-87.76
X306.37Y-31.78
X306.89Y-90.49
X307.031Y-80.11
X307.035Y-92.145
X307.39Y-78.74
X307.62Y-24.89
X307.88Y-91.58
X307.96Y-31.26
X308.282Y-81.998
X308.83Y-71.871
X308.84Y-91.01
X310.16Y-41.18
X310.18Y-102.22
X310.64Y-22.15
X310.82Y-15.48
X311.25Y-32.42
X311.35Y-90.33
X311.5Y-68.99
X312.18Y-102.22
X312.66Y-38.85
X314.17Y-81.24
X314.25Y-26.0
X314.72Y-12.44
X314.95Y-17.95
X315.34Y-98.09
X315.454Y-23.676
X315.93Y-21.88
X315.95Y-22.79
X315.97Y-97.12
X316.38Y-20.46
X317.11Y-75.62
X317.71Y-80.38
X318.694Y-20.126
X319.08Y-28.52
X319.482Y-101.23
X319.6Y-104.82
X320.055Y-99.92
X320.4Y-100.254
X320.474Y-100.816
X320.57Y-70.98
X320.92Y-73.31
X321.18Y-74.32
X321.342Y-66.772
X321.48Y-87.11
X321.71Y-72.23
X321.8Y-59.29
X321.955Y-99.365
X322.25Y-65.62
X322.26Y-67.36
X323.41Y-74.99
X324.03Y-64.86
X324.1Y-62.23
T2
X14.913Y-51.413
X14.93Y-52.686
X15.091Y-68.799
X15.295Y-31.138
X15.71Y-51.486
X15.75Y-52.686
X17.996Y-31.13
X18.213Y-68.816
X18.31Y-26.79
X209.38Y-68.65
X212.35Y-68.65
X284.32Y-45.56
X287.74Y-45.54
X292.454Y-41.924
X296.61Y-100.41
X296.61Y-102.87
X297.87Y-102.91
X299.43Y-64.98
X311.005Y-28.095
T4
X318.98Y-102.98
X320.25Y-102.98
X321.52Y-102.98
T5
X13.23Y-19.08
X13.23Y-26.7
X13.43Y-94.31
X13.43Y-101.93
X16.44Y-38.16
X16.44Y-45.78
X18.54Y-57.24
X18.54Y-64.86
X21.59Y-76.19
X21.59Y-83.81
X31.41Y-19.02
X31.41Y-26.64
X35.82Y-94.24
X35.82Y-101.86
X40.81Y-38.03
X40.81Y-45.65
X45.69Y-57.3
X45.69Y-64.92
X50.49Y-19.05
X50.49Y-26.67
X55.22Y-76.41
X55.22Y-84.03
X59.81Y-38.38
X59.81Y-46.0
X59.86Y-94.24
X59.86Y-101.86
X64.66Y-57.26
X64.66Y-64.88
X69.57Y-19.25
X69.57Y-26.87
X74.35Y-76.51
X74.35Y-84.13
X78.9Y-38.51
X78.9Y-46.13
X83.46Y-94.13
X83.46Y-101.75
X83.71Y-57.25
X83.71Y-64.87
X88.74Y-19.05
X88.74Y-26.67
X93.23Y-76.26
X93.23Y-83.88
X98.03Y-38.19
X98.03Y-45.81
X102.8Y-57.51
X102.8Y-65.13
X107.76Y-19.16
X107.76Y-26.78
X112.29Y-76.31
X112.29Y-83.93
X117.19Y-38.43
X117.19Y-46.05
X121.87Y-57.41
X121.87Y-65.03
X126.81Y-19.18
X126.81Y-26.8
X131.44Y-76.38
X131.44Y-84.0
X136.21Y-38.25
X136.21Y-45.87
X140.84Y-57.4
X140.84Y-65.02
X146.05Y-19.4
X146.05Y-27.02
X150.51Y-76.29
X150.51Y-83.91
X155.35Y-38.11
X155.35Y-45.73
X159.89Y-57.24
X159.89Y-64.86
X164.99Y-19.46
X164.99Y-27.08
X169.46Y-76.28
X169.46Y-83.9
X174.51Y-38.15
X174.51Y-45.77
X178.95Y-57.41
X178.95Y-65.03
X183.95Y-19.54
X183.95Y-27.16
X188.41Y-76.26
X188.41Y-83.88
X193.6Y-38.18
X193.6Y-45.8
X198.09Y-57.36
X198.09Y-64.98
X202.86Y-19.32
X202.86Y-26.94
X202.88Y-94.5
X202.88Y-102.12
X207.57Y-76.36
X207.57Y-83.98
X212.67Y-38.24
X212.67Y-45.86
X217.04Y-57.31
X217.04Y-64.93
X221.85Y-19.27
X221.85Y-26.89
X226.4Y-94.21
X226.4Y-101.83
X226.61Y-76.37
X226.61Y-83.99
X231.73Y-38.13
X231.73Y-45.75
X236.28Y-57.15
X236.28Y-64.77
X241.09Y-19.24
X241.09Y-26.86
X250.45Y-94.88
X250.45Y-102.5
X250.9Y-38.23
X250.9Y-45.85
X255.43Y-57.32
X255.43Y-64.94
X255.75Y-76.53
X255.75Y-84.15
X260.14Y-19.16
X260.14Y-26.78
X270.02Y-38.38
X270.02Y-46.0
X274.44Y-93.94
X274.44Y-101.56
T6
X321.45Y-40.11
X321.45Y-42.61
X321.45Y-45.11
X324.75Y-40.11
X324.75Y-42.61
X324.75Y-45.11
T7
X293.755Y-96.57
X293.755Y-99.07
X308.41Y-12.54
X310.95Y-12.54
X313.49Y-12.54
X314.984Y-76.95
X316.03Y-12.54
X317.524Y-76.95
X320.064Y-76.95
T8
X311.83Y-40.89
X315.33Y-40.89
X315.33Y-99.39
T9
X18.04Y-19.17
X20.29Y-95.39
X22.78Y-38.25
X24.39Y-16.63
X25.18Y-57.34
X26.64Y-92.85
X29.13Y-35.71
X29.89Y-76.362
X31.53Y-54.8
X36.24Y-73.822
X37.12Y-19.21
X43.47Y-16.67
X44.11Y-95.47
X46.52Y-38.21
X50.46Y-92.93
X51.3Y-57.26
X52.87Y-35.67
X56.22Y-19.15
X57.65Y-54.72
X60.8Y-76.26
X62.57Y-16.61
X65.63Y-38.22
X67.15Y-73.72
X67.91Y-95.36
X70.42Y-57.23
X71.98Y-35.68
X74.26Y-92.82
X75.31Y-19.15
X76.77Y-54.69
X79.88Y-76.34
X81.66Y-16.61
X84.72Y-38.21
X86.23Y-73.8
X89.47Y-57.29
X91.07Y-35.67
X94.37Y-19.19
X95.82Y-54.75
X98.97Y-76.33
X100.72Y-16.65
X103.78Y-38.22
X105.32Y-73.79
X108.45Y-57.31
X110.13Y-35.68
X113.47Y-19.19
X114.8Y-54.77
X117.99Y-76.34
X119.82Y-16.65
X122.92Y-38.26
X124.34Y-73.8
X127.51Y-57.33
X129.27Y-35.72
X132.53Y-19.21
X133.86Y-54.79
X137.09Y-76.33
X138.88Y-16.67
X139.33Y-95.36
X141.96Y-38.25
X143.44Y-73.79
X145.68Y-92.82
X146.55Y-57.32
X148.31Y-35.71
X151.61Y-19.12
X152.9Y-54.78
X156.12Y-76.36
X157.96Y-16.58
X161.12Y-38.19
X162.47Y-73.82
X165.6Y-57.3
X167.47Y-35.65
X170.63Y-19.14
X171.95Y-54.76
X175.13Y-76.36
X176.98Y-16.6
X180.25Y-38.2
X181.48Y-73.82
X184.65Y-57.29
X186.6Y-35.66
X189.72Y-19.14
X191.0Y-54.75
X194.21Y-76.34
X196.07Y-16.6
X199.29Y-38.21
X200.56Y-73.8
X203.71Y-57.25
X205.64Y-35.67
X208.77Y-19.13
X210.06Y-54.71
X210.8Y-95.34
X213.22Y-76.32
X215.12Y-16.59
X217.15Y-92.8
X218.33Y-38.19
X219.57Y-73.78
X222.8Y-57.23
X224.68Y-35.65
X227.81Y-19.11
X229.15Y-54.69
X232.25Y-76.24
X234.16Y-16.57
X234.63Y-95.35
X237.5Y-38.15
X238.6Y-73.7
X240.98Y-92.81
X241.9Y-57.2
X243.85Y-35.61
X246.81Y-19.08
X248.25Y-54.66
X253.16Y-16.54
X256.68Y-38.17
X258.49Y-95.34
X263.03Y-35.63
X264.84Y-92.8
X268.03Y-76.3
X272.85Y-57.19
X274.38Y-73.76
X275.41Y-19.06
X279.2Y-54.65
X280.48Y-38.19
X281.76Y-16.52
X282.22Y-95.36
X286.83Y-35.65
X288.57Y-92.82
T10
X309.33Y-45.04
X309.33Y-95.24
X317.83Y-46.24
X317.83Y-94.04
T3
G00X318.915Y-15.07
M15
G01X317.915Y-15.07
M16
G05
G00X318.915Y-23.71
M15
G01X317.915Y-23.71
M16
G05
G00X324.525Y-15.07
M15
G01X323.025Y-15.07
M16
G05
G00X324.525Y-23.71
M15
G01X323.025Y-23.71
M16
G05
M30
