M48
; DRILL file {KiCad 9.0.7} date 2026-06-02T21:51:59+0530
; FORMAT={-:-/ absolute / metric / decimal}
; #@! TF.CreationDate,2026-06-02T21:51:59+05:30
; #@! TF.GenerationSoftware,Kicad,Pcbnew,9.0.7
; #@! TF.FileFunction,Plated,1,2,PTH
FMAT,2
METRIC
; #@! TA.AperFunction,Plated,PTH,ViaDrill
T1C0.100
; #@! TA.AperFunction,Plated,PTH,ViaDrill
T2C0.300
; #@! TA.AperFunction,Plated,PTH,ComponentDrill
T3C0.600
; #@! TA.AperFunction,Plated,PTH,ComponentDrill
T4C0.750
; #@! TA.AperFunction,Plated,PTH,ComponentDrill
T5C0.800
; #@! TA.AperFunction,Plated,PTH,ComponentDrill
T6C0.900
; #@! TA.AperFunction,Plated,PTH,ComponentDrill
T7C1.000
; #@! TA.AperFunction,Plated,PTH,ComponentDrill
T8C1.200
; #@! TA.AperFunction,Plated,PTH,ComponentDrill
T9C1.500
; #@! TA.AperFunction,Plated,PTH,ComponentDrill
T10C1.700
%
G90
G05
T1
X12.121Y-67.23
X12.128Y-54.17
X12.15Y-10.65
X12.17Y-29.47
X12.68Y-70.67
X12.95Y-85.72
X13.07Y-33.48
X15.44Y-18.63
X15.64Y-103.671
X18.5Y-66.81
X19.14Y-29.3
X19.58Y-67.14
X19.78Y-69.56
X19.86Y-31.56
X19.96Y-88.91
X20.02Y-27.37
X20.85Y-53.47
X20.87Y-48.38
X21.24Y-11.42
X21.63Y-64.88
X23.77Y-28.15
X23.9Y-88.6
X25.12Y-28.12
X30.81Y-85.422
X32.95Y-104.3
X34.46Y-107.97
X36.65Y-71.57
X37.77Y-71.59
X37.92Y-28.67
X38.72Y-101.209
X39.78Y-107.93
X40.79Y-86.75
X40.86Y-91.63
X41.43Y-104.16
X41.66Y-11.63
X42.57Y-15.48
X42.83Y-84.26
X42.83Y-103.671
X42.88Y-89.944
X43.18Y-66.91
X43.96Y-67.59
X44.33Y-28.63
X56.1Y-104.91
X57.37Y-27.75
X57.37Y-107.93
X58.39Y-107.93
X58.72Y-90.46
X59.88Y-89.06
X60.01Y-11.48
X60.01Y-90.52
X61.41Y-89.17
X61.811Y-15.374
X62.25Y-100.02
X63.24Y-71.75
X63.342Y-85.872
X63.35Y-101.14
X64.78Y-85.83
X64.86Y-103.83
X64.94Y-104.67
X64.97Y-27.72
X65.36Y-71.61
X67.94Y-82.28
X68.43Y-91.82
X70.39Y-66.98
X71.17Y-86.65
X71.49Y-75.1
X71.59Y-84.58
X71.66Y-67.42
X76.19Y-28.24
X77.72Y-107.931
X80.29Y-11.46
X80.3Y-15.49
X83.03Y-71.82
X84.24Y-71.82
X84.27Y-28.23
X85.67Y-107.931
X88.94Y-103.671
X89.02Y-101.18
X89.49Y-66.84
X90.58Y-67.45
X91.01Y-91.25
X95.31Y-91.58
X95.379Y-28.09
X95.64Y-104.92
X97.62Y-10.95
X98.74Y-15.57
X98.87Y-92.326
X102.13Y-71.81
X103.09Y-71.82
X103.25Y-28.06
X104.37Y-84.49
X108.19Y-66.776
X109.69Y-67.22
X112.73Y-92.07
X112.75Y-86.54
X114.35Y-27.7
X117.47Y-82.58
X117.93Y-11.54
X118.75Y-15.46
X121.24Y-71.81
X122.0Y-27.68
X122.22Y-71.82
X127.71Y-66.776
X129.507Y-66.776
X133.48Y-28.4
X137.21Y-15.64
X137.64Y-11.56
X139.33Y-28.37
X140.03Y-71.82
X141.21Y-71.82
X146.96Y-66.776
X148.465Y-66.776
X151.74Y-90.66
X152.4Y-28.21
X153.67Y-90.71
X153.782Y-89.062
X154.978Y-89.138
X155.71Y-11.45
X156.4Y-15.75
X156.72Y-85.89
X158.094Y-71.82
X158.32Y-85.93
X159.51Y-71.82
X160.643Y-28.187
X164.298Y-66.776
X165.495Y-66.851
X168.76Y-73.23
X171.639Y-28.57
X174.05Y-16.29
X174.24Y-11.48
X174.84Y-64.49
X178.634Y-71.82
X180.04Y-71.82
X180.16Y-28.57
X185.218Y-66.776
X186.08Y-72.88
X186.48Y-66.786
X190.61Y-64.32
X190.73Y-28.62
X190.82Y-104.47
X193.43Y-11.53
X195.22Y-15.18
X195.48Y-101.14
X196.35Y-102.24
X196.44Y-61.68
X197.68Y-105.45
X197.94Y-71.82
X199.188Y-28.582
X199.24Y-105.48
X199.35Y-104.02
X199.582Y-71.82
X199.82Y-61.78
X204.25Y-66.776
X204.83Y-73.18
X205.41Y-66.889
X208.11Y-102.61
X208.13Y-104.16
X208.18Y-100.99
X209.22Y-106.51
X209.32Y-85.97
X209.367Y-28.79
X209.96Y-91.3
X211.68Y-85.99
X212.29Y-11.42
X212.32Y-64.49
X212.46Y-89.09
X213.38Y-15.75
X213.71Y-88.5
X214.49Y-90.86
X215.4Y-84.5
X216.0Y-90.78
X216.25Y-71.79
X217.5Y-71.82
X218.438Y-28.772
X220.7Y-91.71
X222.75Y-103.15
X222.84Y-67.06
X223.91Y-107.534
X223.99Y-67.15
X224.93Y-72.89
X225.2Y-107.534
X225.36Y-81.77
X228.761Y-28.6
X230.22Y-64.32
X230.28Y-67.38
X230.96Y-71.82
X231.11Y-11.28
X231.24Y-86.82
X231.26Y-53.35
X231.44Y-102.55
X231.46Y-100.87
X231.49Y-93.26
X231.51Y-104.04
X231.76Y-54.77
X231.88Y-15.67
X232.407Y-71.869
X232.59Y-64.119
X237.435Y-66.986
X237.443Y-28.567
X239.1Y-67.12
X246.29Y-54.08
X246.53Y-55.3
X249.11Y-28.48
X249.65Y-58.51
X249.96Y-11.46
X251.92Y-15.21
X252.84Y-72.17
X252.871Y-67.416
X256.483Y-28.447
X257.32Y-79.16
X257.35Y-89.53
X257.74Y-84.68
X258.38Y-79.13
X258.806Y-81.47
X259.303Y-80.973
X260.23Y-80.77
X260.95Y-77.49
X261.357Y-54.663
X261.62Y-52.61
X263.42Y-65.63
X263.94Y-84.7
X264.55Y-86.08
X264.67Y-34.18
X264.93Y-17.63
X265.11Y-49.2
X267.5Y-11.79
X268.82Y-61.29
X269.62Y-64.27
X269.79Y-103.44
X270.26Y-51.394
X270.35Y-107.534
X271.01Y-28.86
X271.14Y-47.52
X271.69Y-47.79
X272.07Y-48.85
X272.11Y-66.92
X272.19Y-68.48
X273.15Y-53.31
X274.357Y-62.023
X274.95Y-39.48
X275.02Y-35.98
X275.292Y-107.534
X275.5Y-81.92
X275.79Y-107.935
X276.021Y-82.439
X276.09Y-33.99
X276.7Y-102.03
X277.409Y-56.64
X277.47Y-84.27
X277.6Y-55.74
X277.8Y-80.88
X278.06Y-82.51
X278.071Y-86.919
X278.5Y-52.989
X278.816Y-61.72
X278.94Y-77.06
X279.98Y-75.71
X280.09Y-82.96
X280.11Y-81.94
X280.33Y-71.67
X280.43Y-80.32
X280.593Y-70.771
X280.75Y-58.25
X280.9Y-73.7
X280.92Y-55.19
X281.21Y-82.69
X281.5Y-40.41
X281.69Y-64.44
X281.7Y-55.62
X281.723Y-104.273
X281.78Y-61.72
X281.82Y-49.94
X282.801Y-77.41
X283.336Y-57.704
X283.39Y-29.134
X283.39Y-101.03
X283.39Y-102.26
X283.51Y-30.24
X283.67Y-51.11
X283.8Y-56.79
X284.07Y-65.88
X284.257Y-91.573
X284.75Y-53.19
X284.75Y-65.357
X284.84Y-60.99
X284.85Y-102.42
X285.141Y-62.621
X285.26Y-79.4
X285.32Y-57.37
X285.51Y-65.46
X285.53Y-52.99
X285.57Y-46.35
X285.571Y-43.411
X285.62Y-47.79
X285.88Y-76.68
X286.07Y-43.69
X286.21Y-71.473
X286.41Y-107.485
X286.519Y-65.963
X286.53Y-45.99
X286.74Y-72.15
X287.11Y-66.057
X287.433Y-58.799
X287.57Y-58.3
X287.61Y-94.54
X287.63Y-83.4
X287.662Y-57.572
X287.99Y-57.06
X288.08Y-31.04
X288.18Y-62.621
X288.26Y-100.94
X288.39Y-58.33
X288.61Y-74.98
X288.69Y-86.7
X288.81Y-48.3
X288.91Y-101.94
X288.98Y-19.3
X288.98Y-58.19
X289.048Y-105.982
X289.241Y-71.233
X289.37Y-86.42
X289.39Y-46.8
X289.45Y-73.58
X289.58Y-95.62
X289.663Y-74.61
X289.74Y-60.54
X290.35Y-22.63
X290.58Y-25.06
X290.87Y-38.39
X290.89Y-40.31
X291.1Y-90.61
X292.03Y-84.84
X292.44Y-41.09
X292.44Y-44.44
X292.45Y-46.35
X292.51Y-40.12
X292.52Y-39.01
X292.536Y-50.771
X292.62Y-102.85
X292.65Y-60.15
X292.8Y-60.63
X292.997Y-37.403
X293.48Y-102.42
X293.51Y-37.28
X293.51Y-65.4
X293.56Y-44.99
X293.57Y-64.39
X293.601Y-100.941
X293.61Y-91.99
X293.65Y-45.81
X293.66Y-42.28
X294.54Y-39.55
X294.9Y-46.58
X295.33Y-21.52
X296.11Y-66.93
X296.22Y-84.75
X296.88Y-59.7
X296.9Y-40.53
X297.182Y-85.651
X297.21Y-69.92
X297.35Y-39.24
X297.63Y-95.909
X297.632Y-84.798
X297.66Y-72.07
X297.66Y-102.096
X297.68Y-74.16
X297.68Y-82.91
X297.68Y-84.3
X297.69Y-66.67
X297.7Y-79.11
X297.72Y-78.16
X297.74Y-94.58
X297.76Y-92.05
X297.77Y-75.17
X297.87Y-16.48
X297.895Y-83.362
X297.91Y-40.53
X297.91Y-82.0
X297.939Y-76.84
X297.939Y-97.24
X297.939Y-81.501
X298.02Y-41.75
X298.21Y-23.1
X298.87Y-30.88
X298.994Y-102.766
X299.0Y-40.98
X299.24Y-64.02
X299.24Y-95.934
X299.24Y-98.53
X299.24Y-100.08
X299.4Y-61.44
X299.5Y-62.368
X299.737Y-95.203
X299.851Y-40.04
X299.88Y-67.78
X299.88Y-78.04
X299.92Y-75.79
X299.95Y-79.2
X299.962Y-94.156
X300.08Y-91.22
X300.08Y-93.67
X300.16Y-74.14
X300.23Y-82.0
X300.4Y-72.2
X300.48Y-63.35
X300.65Y-92.05
X300.79Y-96.37
X300.85Y-74.7
X300.918Y-60.742
X300.99Y-104.88
X301.19Y-33.17
X301.29Y-106.24
X301.62Y-69.88
X301.66Y-77.54
X301.68Y-102.99
X301.8Y-64.53
X301.96Y-62.42
X302.022Y-105.158
X302.1Y-108.336
X302.16Y-93.63
X302.297Y-88.697
X302.3Y-72.36
X302.431Y-101.149
X302.45Y-63.04
X302.48Y-104.25
X302.63Y-75.62
X302.723Y-93.537
X302.747Y-86.84
X303.14Y-29.33
X303.41Y-20.87
X303.64Y-32.88
X304.1Y-46.13
X305.78Y-18.74
X306.08Y-87.76
X306.37Y-31.78
X306.89Y-90.49
X307.031Y-80.11
X307.035Y-92.145
X307.39Y-78.74
X307.62Y-24.89
X307.88Y-91.58
X307.96Y-31.26
X308.282Y-81.998
X308.83Y-71.871
X308.84Y-91.01
X310.16Y-41.18
X310.18Y-102.22
X310.64Y-22.15
X310.82Y-15.48
X311.25Y-32.42
X311.35Y-90.33
X311.5Y-68.99
X312.18Y-102.22
X312.66Y-38.85
X314.17Y-81.24
X314.25Y-26.0
X314.72Y-12.44
X314.95Y-17.95
X315.34Y-98.09
X315.454Y-23.676
X315.93Y-21.88
X315.95Y-22.79
X315.97Y-97.12
X316.38Y-20.46
X317.11Y-75.62
X317.71Y-80.38
X318.694Y-20.126
X319.08Y-28.52
X319.482Y-101.23
X319.6Y-104.82
X320.055Y-99.92
X320.4Y-100.254
X320.474Y-100.816
X320.57Y-70.98
X320.92Y-73.31
X321.18Y-74.32
X321.342Y-66.772
X321.48Y-87.11
X321.71Y-72.23
X321.8Y-59.29
X321.955Y-99.365
X322.25Y-65.62
X322.26Y-67.36
X323.41Y-74.99
X324.03Y-64.86
X324.1Y-62.23
T2
X18.31Y-26.79
X79.7Y-104.1
X284.32Y-45.56
X287.74Y-45.54
X292.454Y-41.924
X296.61Y-100.41
X296.61Y-102.87
X297.87Y-102.91
X299.43Y-64.98
X311.005Y-28.095
T4
X318.98Y-102.98
X320.25Y-102.98
X321.52Y-102.98
T5
X13.23Y-19.08
X13.23Y-26.7
X13.43Y-94.31
X13.43Y-101.93
X16.44Y-38.16
X16.44Y-45.78
X18.54Y-57.24
X18.54Y-64.86
X21.59Y-76.19
X21.59Y-83.81
X31.41Y-19.02
X31.41Y-26.64
X35.82Y-94.24
X35.82Y-101.86
X40.81Y-38.03
X40.81Y-45.65
X45.69Y-57.3
X45.69Y-64.92
X50.49Y-19.05
X50.49Y-26.67
X55.22Y-76.41
X55.22Y-84.03
X59.81Y-38.38
X59.81Y-46.0
X59.86Y-94.24
X59.86Y-101.86
X64.66Y-57.26
X64.66Y-64.88
X69.57Y-19.25
X69.57Y-26.87
X74.35Y-76.51
X74.35Y-84.13
X78.9Y-38.51
X78.9Y-46.13
X83.46Y-94.13
X83.46Y-101.75
X83.71Y-57.25
X83.71Y-64.87
X88.74Y-19.05
X88.74Y-26.67
X93.23Y-76.26
X93.23Y-83.88
X98.03Y-38.19
X98.03Y-45.81
X102.8Y-57.51
X102.8Y-65.13
X107.76Y-19.16
X107.76Y-26.78
X112.29Y-76.31
X112.29Y-83.93
X117.19Y-38.43
X117.19Y-46.05
X121.87Y-57.41
X121.87Y-65.03
X126.81Y-19.18
X126.81Y-26.8
X131.44Y-76.38
X131.44Y-84.0
X136.21Y-38.25
X136.21Y-45.87
X140.84Y-57.4
X140.84Y-65.02
X146.05Y-19.4
X146.05Y-27.02
X150.51Y-76.29
X150.51Y-83.91
X155.35Y-38.11
X155.35Y-45.73
X159.89Y-57.24
X159.89Y-64.86
X164.99Y-19.46
X164.99Y-27.08
X169.46Y-76.28
X169.46Y-83.9
X174.51Y-38.15
X174.51Y-45.77
X178.95Y-57.41
X178.95Y-65.03
X183.95Y-19.54
X183.95Y-27.16
X188.41Y-76.26
X188.41Y-83.88
X193.6Y-38.18
X193.6Y-45.8
X198.09Y-57.36
X198.09Y-64.98
X202.86Y-19.32
X202.86Y-26.94
X202.88Y-94.5
X202.88Y-102.12
X207.57Y-76.36
X207.57Y-83.98
X212.67Y-38.24
X212.67Y-45.86
X217.04Y-57.31
X217.04Y-64.93
X221.85Y-19.27
X221.85Y-26.89
X226.4Y-94.21
X226.4Y-101.83
X226.61Y-76.37
X226.61Y-83.99
X231.73Y-38.13
X231.73Y-45.75
X236.28Y-57.15
X236.28Y-64.77
X241.09Y-19.24
X241.09Y-26.86
X250.45Y-94.88
X250.45Y-102.5
X250.9Y-38.23
X250.9Y-45.85
X255.43Y-57.32
X255.43Y-64.94
X255.75Y-76.53
X255.75Y-84.15
X260.14Y-19.16
X260.14Y-26.78
X270.02Y-38.38
X270.02Y-46.0
X274.15Y-93.99
X274.15Y-101.61
T6
X321.45Y-40.11
X321.45Y-42.61
X321.45Y-45.11
X324.75Y-40.11
X324.75Y-42.61
X324.75Y-45.11
T7
X294.74Y-96.76
X294.74Y-99.26
X308.41Y-12.54
X310.95Y-12.54
X313.49Y-12.54
X314.984Y-76.95
X316.03Y-12.54
X317.524Y-76.95
X320.064Y-76.95
T8
X311.83Y-40.89
X315.33Y-40.89
X315.33Y-99.39
T9
X18.04Y-19.17
X20.29Y-95.39
X22.78Y-38.25
X24.39Y-16.63
X25.18Y-57.34
X26.64Y-92.85
X29.13Y-35.71
X29.89Y-76.362
X31.53Y-54.8
X36.24Y-73.822
X37.12Y-19.21
X43.47Y-16.67
X44.11Y-95.47
X46.52Y-38.21
X50.46Y-92.93
X51.3Y-57.26
X52.87Y-35.67
X56.22Y-19.15
X57.65Y-54.72
X60.8Y-76.26
X62.57Y-16.61
X65.63Y-38.22
X67.15Y-73.72
X67.91Y-95.36
X70.42Y-57.23
X71.98Y-35.68
X74.26Y-92.82
X75.31Y-19.15
X76.77Y-54.69
X79.88Y-76.34
X81.66Y-16.61
X84.72Y-38.21
X86.23Y-73.8
X89.47Y-57.29
X91.07Y-35.67
X94.37Y-19.19
X95.82Y-54.75
X98.97Y-76.33
X100.72Y-16.65
X103.78Y-38.22
X105.32Y-73.79
X108.45Y-57.31
X110.13Y-35.68
X113.47Y-19.19
X114.8Y-54.77
X117.99Y-76.34
X119.82Y-16.65
X122.92Y-38.26
X124.34Y-73.8
X127.51Y-57.33
X129.27Y-35.72
X132.53Y-19.21
X133.86Y-54.79
X137.09Y-76.33
X138.88Y-16.67
X139.33Y-95.36
X141.96Y-38.25
X143.44Y-73.79
X145.68Y-92.82
X146.55Y-57.32
X148.31Y-35.71
X151.61Y-19.12
X152.9Y-54.78
X156.12Y-76.36
X157.96Y-16.58
X161.12Y-38.19
X162.47Y-73.82
X165.6Y-57.3
X167.47Y-35.65
X170.63Y-19.14
X171.95Y-54.76
X175.13Y-76.36
X176.98Y-16.6
X180.25Y-38.2
X181.48Y-73.82
X184.65Y-57.29
X186.6Y-35.66
X189.72Y-19.14
X191.0Y-54.75
X194.21Y-76.34
X196.07Y-16.6
X199.29Y-38.21
X200.56Y-73.8
X203.71Y-57.25
X205.64Y-35.67
X208.77Y-19.13
X210.06Y-54.71
X210.8Y-95.34
X213.22Y-76.32
X215.12Y-16.59
X217.15Y-92.8
X218.33Y-38.19
X219.57Y-73.78
X222.8Y-57.23
X224.68Y-35.65
X227.81Y-19.11
X229.15Y-54.69
X232.25Y-76.24
X234.16Y-16.57
X234.63Y-95.35
X237.5Y-38.15
X238.6Y-73.7
X240.98Y-92.81
X241.9Y-57.2
X243.85Y-35.61
X246.81Y-19.08
X248.25Y-54.66
X253.16Y-16.54
X256.68Y-38.17
X258.49Y-95.34
X263.03Y-35.63
X264.84Y-92.8
X268.03Y-76.3
X272.85Y-57.19
X274.38Y-73.76
X275.41Y-19.06
X279.2Y-54.65
X280.48Y-38.19
X281.76Y-16.52
X282.22Y-95.36
X286.83Y-35.65
X288.57Y-92.82
T10
X309.33Y-45.04
X309.33Y-95.24
X317.83Y-46.24
X317.83Y-94.04
T3
G00X318.915Y-15.07
M15
G01X317.915Y-15.07
M16
G05
G00X318.915Y-23.71
M15
G01X317.915Y-23.71
M16
G05
G00X324.525Y-15.07
M15
G01X323.025Y-15.07
M16
G05
G00X324.525Y-23.71
M15
G01X323.025Y-23.71
M16
G05
M30
