M48
; DRILL file {KiCad 9.0.7} date 2026-05-29T01:15:36+0530
; FORMAT={-:-/ absolute / metric / decimal}
; #@! TF.CreationDate,2026-05-29T01:15:36+05:30
; #@! TF.GenerationSoftware,Kicad,Pcbnew,9.0.7
; #@! TF.FileFunction,NonPlated,1,2,NPTH
FMAT,2
METRIC
; #@! TA.AperFunction,NonPlated,NPTH,ComponentDrill
T1C1.200
; #@! TA.AperFunction,NonPlated,NPTH,ComponentDrill
T2C1.700
; #@! TA.AperFunction,NonPlated,NPTH,ComponentDrill
T3C1.850
; #@! TA.AperFunction,NonPlated,NPTH,ComponentDrill
T4C2.200
; #@! TA.AperFunction,NonPlated,NPTH,ComponentDrill
T5C3.050
; #@! TA.AperFunction,NonPlated,NPTH,ComponentDrill
T6C4.000
%
G90
G05
T1
X296.74Y-95.16
T2
X16.77Y-21.71
X19.02Y-97.93
X21.51Y-40.79
X23.91Y-59.88
X26.93Y-21.71
X28.62Y-78.903
X29.18Y-97.93
X31.67Y-40.79
X34.07Y-59.88
X35.85Y-21.75
X38.78Y-78.903
X42.84Y-98.01
X45.25Y-40.75
X46.01Y-21.75
X50.03Y-59.8
X53.0Y-98.01
X54.95Y-21.69
X55.41Y-40.75
X59.53Y-78.8
X60.19Y-59.8
X64.36Y-40.76
X65.11Y-21.69
X66.64Y-97.9
X69.15Y-59.77
X69.69Y-78.8
X74.04Y-21.69
X74.52Y-40.76
X76.8Y-97.9
X78.61Y-78.88
X79.31Y-59.77
X83.45Y-40.75
X84.2Y-21.69
X88.2Y-59.83
X88.77Y-78.88
X93.1Y-21.73
X93.61Y-40.75
X97.7Y-78.87
X98.36Y-59.83
X102.51Y-40.76
X103.26Y-21.73
X107.18Y-59.85
X107.86Y-78.87
X112.2Y-21.73
X112.67Y-40.76
X116.72Y-78.88
X117.34Y-59.85
X121.65Y-40.8
X122.36Y-21.73
X126.24Y-59.87
X126.88Y-78.88
X131.26Y-21.75
X131.81Y-40.8
X135.82Y-78.87
X136.4Y-59.87
X138.06Y-97.9
X140.69Y-40.79
X141.42Y-21.75
X145.28Y-59.86
X145.98Y-78.87
X148.22Y-97.9
X150.34Y-21.66
X150.85Y-40.79
X154.85Y-78.9
X155.44Y-59.86
X159.85Y-40.73
X160.5Y-21.66
X164.33Y-59.84
X165.01Y-78.9
X169.36Y-21.68
X170.01Y-40.73
X173.86Y-78.9
X174.49Y-59.84
X178.98Y-40.74
X179.52Y-21.68
X183.38Y-59.83
X184.02Y-78.9
X188.45Y-21.68
X189.14Y-40.74
X192.94Y-78.88
X193.54Y-59.83
X198.02Y-40.75
X198.61Y-21.68
X202.44Y-59.79
X203.1Y-78.88
X207.5Y-21.67
X208.18Y-40.75
X209.53Y-97.88
X211.95Y-78.86
X212.6Y-59.79
X217.06Y-40.73
X217.66Y-21.67
X219.69Y-97.88
X221.53Y-59.77
X222.11Y-78.86
X226.54Y-21.65
X227.22Y-40.73
X230.98Y-78.78
X231.69Y-59.77
X233.36Y-97.89
X236.23Y-40.69
X236.7Y-21.65
X240.63Y-59.74
X241.14Y-78.78
X243.52Y-97.89
X245.54Y-21.62
X246.39Y-40.69
X250.79Y-59.74
X255.41Y-40.71
X255.7Y-21.62
X257.22Y-97.88
X265.57Y-40.71
X266.76Y-78.84
X267.38Y-97.88
X271.58Y-59.73
X274.14Y-21.6
X276.92Y-78.84
X279.21Y-40.73
X280.95Y-97.9
X281.74Y-59.73
X284.3Y-21.6
X289.37Y-40.73
X291.11Y-97.9
T3
X311.975Y-103.62
X316.825Y-103.62
T4
X311.675Y-106.65
X317.125Y-106.65
T5
X21.8Y-71.903
X45.6Y-71.903
X93.14Y-90.9
X193.14Y-90.9
X259.94Y-71.84
X264.76Y-52.73
X267.32Y-14.6
X283.74Y-71.84
X288.56Y-52.73
X291.12Y-14.6
T6
X21.8Y-87.142
X21.85Y-21.71
X24.1Y-97.93
X26.59Y-40.79
X28.99Y-59.88
X33.7Y-78.903
X40.93Y-21.75
X45.6Y-87.142
X47.92Y-98.01
X50.33Y-40.75
X55.11Y-59.8
X60.03Y-21.69
X64.61Y-78.8
X69.44Y-40.76
X71.72Y-97.9
X74.23Y-59.77
X79.12Y-21.69
X83.69Y-78.88
X88.53Y-40.75
X93.14Y-106.14
X93.28Y-59.83
X98.18Y-21.73
X102.78Y-78.87
X107.59Y-40.76
X112.26Y-59.85
X117.28Y-21.73
X121.8Y-78.88
X126.73Y-40.8
X131.32Y-59.87
X136.34Y-21.75
X140.9Y-78.87
X143.14Y-97.9
X145.77Y-40.79
X150.36Y-59.86
X155.42Y-21.66
X159.93Y-78.9
X164.93Y-40.73
X169.41Y-59.84
X174.44Y-21.68
X178.94Y-78.9
X184.06Y-40.74
X188.46Y-59.83
X193.14Y-106.14
X193.53Y-21.68
X198.02Y-78.88
X203.1Y-40.75
X207.52Y-59.79
X212.58Y-21.67
X214.61Y-97.88
X217.03Y-78.86
X222.14Y-40.73
X226.61Y-59.77
X231.62Y-21.65
X236.06Y-78.78
X238.44Y-97.89
X241.31Y-40.69
X245.71Y-59.74
X250.62Y-21.62
X259.94Y-87.08
X260.49Y-40.71
X262.3Y-97.88
X264.76Y-67.97
X267.32Y-29.84
X271.84Y-78.84
X276.66Y-59.73
X279.22Y-21.6
X283.74Y-87.08
X284.29Y-40.73
X286.03Y-97.9
X288.56Y-67.97
X291.12Y-29.84
M30
