%TF.GenerationSoftware,KiCad,Pcbnew,9.0.7*%
%TF.CreationDate,2026-05-29T01:14:56+05:30*%
%TF.ProjectId,keyboard,6b657962-6f61-4726-942e-6b696361645f,rev?*%
%TF.SameCoordinates,Original*%
%TF.FileFunction,Soldermask,Bot*%
%TF.FilePolarity,Negative*%
%FSLAX46Y46*%
G04 Gerber Fmt 4.6, Leading zero omitted, Abs format (unit mm)*
G04 Created by KiCad (PCBNEW 9.0.7) date 2026-05-29 01:14:56*
%MOMM*%
%LPD*%
G01*
G04 APERTURE LIST*
G04 Aperture macros list*
%AMRoundRect*
0 Rectangle with rounded corners*
0 $1 Rounding radius*
0 $2 $3 $4 $5 $6 $7 $8 $9 X,Y pos of 4 corners*
0 Add a 4 corners polygon primitive as box body*
4,1,4,$2,$3,$4,$5,$6,$7,$8,$9,$2,$3,0*
0 Add four circle primitives for the rounded corners*
1,1,$1+$1,$2,$3*
1,1,$1+$1,$4,$5*
1,1,$1+$1,$6,$7*
1,1,$1+$1,$8,$9*
0 Add four rect primitives between the rounded corners*
20,1,$1+$1,$2,$3,$4,$5,0*
20,1,$1+$1,$4,$5,$6,$7,0*
20,1,$1+$1,$6,$7,$8,$9,0*
20,1,$1+$1,$8,$9,$2,$3,0*%
%AMFreePoly0*
4,1,37,0.800000,0.796148,0.878414,0.796148,1.032228,0.765552,1.177117,0.705537,1.307515,0.618408,1.418408,0.507515,1.505537,0.377117,1.565552,0.232228,1.596148,0.078414,1.596148,-0.078414,1.565552,-0.232228,1.505537,-0.377117,1.418408,-0.507515,1.307515,-0.618408,1.177117,-0.705537,1.032228,-0.765552,0.878414,-0.796148,0.800000,-0.796148,0.800000,-0.800000,-1.400000,-0.800000,
-1.403843,-0.796157,-1.439018,-0.796157,-1.511114,-0.766294,-1.566294,-0.711114,-1.596157,-0.639018,-1.596157,-0.603843,-1.600000,-0.600000,-1.600000,0.600000,-1.596157,0.603843,-1.596157,0.639018,-1.566294,0.711114,-1.511114,0.766294,-1.439018,0.796157,-1.403843,0.796157,-1.400000,0.800000,0.800000,0.800000,0.800000,0.796148,0.800000,0.796148,$1*%
%AMFreePoly1*
4,1,37,1.403843,0.796157,1.439018,0.796157,1.511114,0.766294,1.566294,0.711114,1.596157,0.639018,1.596157,0.603843,1.600000,0.600000,1.600000,-0.600000,1.596157,-0.603843,1.596157,-0.639018,1.566294,-0.711114,1.511114,-0.766294,1.439018,-0.796157,1.403843,-0.796157,1.400000,-0.800000,-0.800000,-0.800000,-0.800000,-0.796148,-0.878414,-0.796148,-1.032228,-0.765552,-1.177117,-0.705537,
-1.307515,-0.618408,-1.418408,-0.507515,-1.505537,-0.377117,-1.565552,-0.232228,-1.596148,-0.078414,-1.596148,0.078414,-1.565552,0.232228,-1.505537,0.377117,-1.418408,0.507515,-1.307515,0.618408,-1.177117,0.705537,-1.032228,0.765552,-0.878414,0.796148,-0.800000,0.796148,-0.800000,0.800000,1.400000,0.800000,1.403843,0.796157,1.403843,0.796157,$1*%
G04 Aperture macros list end*
%ADD10C,1.700000*%
%ADD11C,4.000000*%
%ADD12C,2.200000*%
%ADD13RoundRect,0.250000X0.550000X-0.550000X0.550000X0.550000X-0.550000X0.550000X-0.550000X-0.550000X0*%
%ADD14C,1.600000*%
%ADD15RoundRect,0.082000X-0.718000X0.328000X-0.718000X-0.328000X0.718000X-0.328000X0.718000X0.328000X0*%
%ADD16C,3.050000*%
%ADD17O,1.600000X2.000000*%
%ADD18RoundRect,0.102000X-0.900000X0.900000X-0.900000X-0.900000X0.900000X-0.900000X0.900000X0.900000X0*%
%ADD19C,2.004000*%
%ADD20C,2.754000*%
%ADD21RoundRect,0.250000X-0.450000X0.450000X-0.450000X-0.450000X0.450000X-0.450000X0.450000X0.450000X0*%
%ADD22C,1.400000*%
%ADD23R,1.050000X1.500000*%
%ADD24O,1.050000X1.500000*%
%ADD25RoundRect,0.250000X0.450000X-0.262500X0.450000X0.262500X-0.450000X0.262500X-0.450000X-0.262500X0*%
%ADD26C,1.200000*%
%ADD27RoundRect,0.250000X-0.750000X0.600000X-0.750000X-0.600000X0.750000X-0.600000X0.750000X0.600000X0*%
%ADD28O,2.000000X1.700000*%
%ADD29RoundRect,0.150000X0.150000X-0.825000X0.150000X0.825000X-0.150000X0.825000X-0.150000X-0.825000X0*%
%ADD30C,0.500000*%
%ADD31R,3.300000X2.410000*%
%ADD32C,1.850000*%
%ADD33FreePoly0,0.000000*%
%ADD34RoundRect,0.800000X-0.800000X-0.000010X0.800000X-0.000010X0.800000X0.000010X-0.800000X0.000010X0*%
%ADD35FreePoly1,0.000000*%
%ADD36RoundRect,0.200000X-0.600000X-0.600000X0.600000X-0.600000X0.600000X0.600000X-0.600000X0.600000X0*%
%ADD37RoundRect,0.250000X-0.250000X-0.475000X0.250000X-0.475000X0.250000X0.475000X-0.250000X0.475000X0*%
%ADD38R,0.700000X0.300000*%
%ADD39R,0.700000X1.000000*%
%ADD40O,2.600000X1.100000*%
%ADD41O,2.100000X1.100000*%
%ADD42RoundRect,0.250000X0.250000X0.475000X-0.250000X0.475000X-0.250000X-0.475000X0.250000X-0.475000X0*%
G04 APERTURE END LIST*
D10*
%TO.C,SW36*%
X112200000Y-21730000D03*
D11*
X117280000Y-21730000D03*
D10*
X122360000Y-21730000D03*
D12*
X119820000Y-16650000D03*
X113470000Y-19190000D03*
%TD*%
D13*
%TO.C,D2*%
X16440000Y-45780000D03*
D14*
X16440000Y-38160000D03*
%TD*%
D15*
%TO.C,D85*%
X52480001Y-11447158D03*
X52480001Y-12947158D03*
X57680001Y-12947158D03*
X57680001Y-11447158D03*
%TD*%
D13*
%TO.C,D30*%
X98030000Y-45810000D03*
D14*
X98030000Y-38190000D03*
%TD*%
D13*
%TO.C,D32*%
X112290000Y-83930000D03*
D14*
X112290000Y-76310000D03*
%TD*%
D15*
%TO.C,D138*%
X271140000Y-104262158D03*
X271140000Y-105762158D03*
X276340000Y-105762158D03*
X276340000Y-104262158D03*
%TD*%
D10*
%TO.C,SW59*%
X183380000Y-59830000D03*
D11*
X188460000Y-59830000D03*
D10*
X193540000Y-59830000D03*
D12*
X191000000Y-54750000D03*
X184650000Y-57290000D03*
%TD*%
D15*
%TO.C,D97*%
X154950001Y-49292158D03*
X154950001Y-50792158D03*
X160150001Y-50792158D03*
X160150001Y-49292158D03*
%TD*%
%TO.C,D75*%
X205220001Y-11482158D03*
X205220001Y-12982158D03*
X210420001Y-12982158D03*
X210420001Y-11482158D03*
%TD*%
D10*
%TO.C,SW19*%
X42840000Y-98010000D03*
D11*
X47920000Y-98010000D03*
D10*
X53000000Y-98010000D03*
D12*
X50460000Y-92930000D03*
X44110000Y-95470000D03*
%TD*%
D10*
%TO.C,SW45*%
X145280000Y-59860000D03*
D11*
X150360000Y-59860000D03*
D10*
X155440000Y-59860000D03*
D12*
X152900000Y-54780000D03*
X146550000Y-57320000D03*
%TD*%
D15*
%TO.C,D123*%
X251530000Y-68952158D03*
X251530000Y-70452158D03*
X256730000Y-70452158D03*
X256730000Y-68952158D03*
%TD*%
D13*
%TO.C,D57*%
X164990000Y-27080000D03*
D14*
X164990000Y-19460000D03*
%TD*%
D16*
%TO.C,SW48*%
X264760000Y-52730000D03*
D11*
X264760000Y-67970000D03*
D10*
X271580000Y-59730000D03*
D11*
X276660000Y-59730000D03*
D10*
X281740000Y-59730000D03*
D16*
X288560000Y-52730000D03*
D11*
X288560000Y-67970000D03*
D12*
X279200000Y-54650000D03*
X272850000Y-57190000D03*
%TD*%
D10*
%TO.C,SW22*%
X74040000Y-21690000D03*
D11*
X79120000Y-21690000D03*
D10*
X84200000Y-21690000D03*
D12*
X81660000Y-16610000D03*
X75310000Y-19150000D03*
%TD*%
D15*
%TO.C,D113*%
X271040000Y-30402158D03*
X271040000Y-31902158D03*
X276240000Y-31902158D03*
X276240000Y-30402158D03*
%TD*%
D10*
%TO.C,SW57*%
X169360000Y-21680000D03*
D11*
X174440000Y-21680000D03*
D10*
X179520000Y-21680000D03*
D12*
X176980000Y-16600000D03*
X170630000Y-19140000D03*
%TD*%
D15*
%TO.C,D89*%
X33170001Y-30322158D03*
X33170001Y-31822158D03*
X38370001Y-31822158D03*
X38370001Y-30322158D03*
%TD*%
%TO.C,D56*%
X147670001Y-11442158D03*
X147670001Y-12942158D03*
X152870001Y-12942158D03*
X152870001Y-11442158D03*
%TD*%
%TO.C,D96*%
X83620001Y-68412158D03*
X83620001Y-69912158D03*
X88820001Y-69912158D03*
X88820001Y-68412158D03*
%TD*%
D13*
%TO.C,D33*%
X59860000Y-101860000D03*
D14*
X59860000Y-94240000D03*
%TD*%
D10*
%TO.C,SW63*%
X279210000Y-40730000D03*
D11*
X284290000Y-40730000D03*
D10*
X289370000Y-40730000D03*
D12*
X286830000Y-35650000D03*
X280480000Y-38190000D03*
%TD*%
D10*
%TO.C,SW60*%
X154850000Y-78900000D03*
D11*
X159930000Y-78900000D03*
D10*
X165010000Y-78900000D03*
D12*
X162470000Y-73820000D03*
X156120000Y-76360000D03*
%TD*%
D10*
%TO.C,SW18*%
X78610000Y-78880000D03*
D11*
X83690000Y-78880000D03*
D10*
X88770000Y-78880000D03*
D12*
X86230000Y-73800000D03*
X79880000Y-76340000D03*
%TD*%
D13*
%TO.C,D36*%
X107760000Y-26780000D03*
D14*
X107760000Y-19160000D03*
%TD*%
D13*
%TO.C,D133*%
X270020000Y-46000000D03*
D14*
X270020000Y-38380000D03*
%TD*%
D15*
%TO.C,D94*%
X37100000Y-68530000D03*
X37100000Y-70030000D03*
X42300000Y-70030000D03*
X42300000Y-68530000D03*
%TD*%
D10*
%TO.C,SW17*%
X69150000Y-59770000D03*
D11*
X74230000Y-59770000D03*
D10*
X79310000Y-59770000D03*
D12*
X76770000Y-54690000D03*
X70420000Y-57230000D03*
%TD*%
D10*
%TO.C,SW52*%
X164330000Y-59840000D03*
D11*
X169410000Y-59840000D03*
D10*
X174490000Y-59840000D03*
D12*
X171950000Y-54760000D03*
X165600000Y-57300000D03*
%TD*%
D15*
%TO.C,D95*%
X64530001Y-68442158D03*
X64530001Y-69942158D03*
X69730001Y-69942158D03*
X69730001Y-68442158D03*
%TD*%
D10*
%TO.C,SW51*%
X159850000Y-40730000D03*
D11*
X164930000Y-40730000D03*
D10*
X170010000Y-40730000D03*
D12*
X167470000Y-35650000D03*
X161120000Y-38190000D03*
%TD*%
D15*
%TO.C,D124*%
X291120000Y-70990000D03*
X291120000Y-72490000D03*
X296320000Y-72490000D03*
X296320000Y-70990000D03*
%TD*%
D16*
%TO.C,SW61*%
X93140000Y-90900000D03*
D11*
X93140000Y-106140000D03*
D10*
X138060000Y-97900000D03*
D11*
X143140000Y-97900000D03*
D10*
X148220000Y-97900000D03*
D16*
X193140000Y-90900000D03*
D11*
X193140000Y-106140000D03*
D12*
X145680000Y-92820000D03*
X139330000Y-95360000D03*
%TD*%
D15*
%TO.C,D84*%
X166980001Y-30242158D03*
X166980001Y-31742158D03*
X172180001Y-31742158D03*
X172180001Y-30242158D03*
%TD*%
%TO.C,D83*%
X147650001Y-30202158D03*
X147650001Y-31702158D03*
X152850001Y-31702158D03*
X152850001Y-30202158D03*
%TD*%
D10*
%TO.C,SW71*%
X280950000Y-97900000D03*
D11*
X286030000Y-97900000D03*
D10*
X291110000Y-97900000D03*
D12*
X288570000Y-92820000D03*
X282220000Y-95360000D03*
%TD*%
D15*
%TO.C,D40*%
X49480000Y-87547158D03*
X49480000Y-89047158D03*
X54680000Y-89047158D03*
X54680000Y-87547158D03*
%TD*%
D13*
%TO.C,D66*%
X198090000Y-64980000D03*
D14*
X198090000Y-57360000D03*
%TD*%
D13*
%TO.C,D11*%
X55220000Y-84030000D03*
D14*
X55220000Y-76410000D03*
%TD*%
D13*
%TO.C,D21*%
X217040000Y-64930000D03*
D14*
X217040000Y-57310000D03*
%TD*%
D15*
%TO.C,D35*%
X64750001Y-87627158D03*
X64750001Y-89127158D03*
X69950001Y-89127158D03*
X69950001Y-87627158D03*
%TD*%
D10*
%TO.C,SW42*%
X255410000Y-40710000D03*
D11*
X260490000Y-40710000D03*
D10*
X265570000Y-40710000D03*
D12*
X263030000Y-35630000D03*
X256680000Y-38170000D03*
%TD*%
D13*
%TO.C,D41*%
X241090000Y-26860000D03*
D14*
X241090000Y-19240000D03*
%TD*%
D15*
%TO.C,D105*%
X231190001Y-49252158D03*
X231190001Y-50752158D03*
X236390001Y-50752158D03*
X236390001Y-49252158D03*
%TD*%
D17*
%TO.C,DS1*%
X308410000Y-12540000D03*
X310950000Y-12540000D03*
X313490000Y-12540000D03*
X316030000Y-12540000D03*
%TD*%
D15*
%TO.C,D127*%
X102640001Y-68542158D03*
X102640001Y-70042158D03*
X107840001Y-70042158D03*
X107840001Y-68542158D03*
%TD*%
%TO.C,D121*%
X217050001Y-68692158D03*
X217050001Y-70192158D03*
X222250001Y-70192158D03*
X222250001Y-68692158D03*
%TD*%
%TO.C,D102*%
X59620001Y-49442158D03*
X59620001Y-50942158D03*
X64820001Y-50942158D03*
X64820001Y-49442158D03*
%TD*%
%TO.C,D82*%
X128660001Y-30327158D03*
X128660001Y-31827158D03*
X133860001Y-31827158D03*
X133860001Y-30327158D03*
%TD*%
D10*
%TO.C,SW32*%
X116720000Y-78880000D03*
D11*
X121800000Y-78880000D03*
D10*
X126880000Y-78880000D03*
D12*
X124340000Y-73800000D03*
X117990000Y-76340000D03*
%TD*%
D15*
%TO.C,D125*%
X290980000Y-86440000D03*
X290980000Y-87940000D03*
X296180000Y-87940000D03*
X296180000Y-86440000D03*
%TD*%
D13*
%TO.C,D1*%
X13230000Y-26700000D03*
D14*
X13230000Y-19080000D03*
%TD*%
D15*
%TO.C,D90*%
X52740001Y-30242158D03*
X52740001Y-31742158D03*
X57940001Y-31742158D03*
X57940001Y-30242158D03*
%TD*%
%TO.C,D92*%
X13250000Y-50120000D03*
X13250000Y-51620000D03*
X18450000Y-51620000D03*
X18450000Y-50120000D03*
%TD*%
%TO.C,D70*%
X109560001Y-11532158D03*
X109560001Y-13032158D03*
X114760001Y-13032158D03*
X114760001Y-11532158D03*
%TD*%
%TO.C,D47*%
X13080000Y-87632158D03*
X13080000Y-89132158D03*
X18280000Y-89132158D03*
X18280000Y-87632158D03*
%TD*%
%TO.C,D77*%
X90490001Y-11522158D03*
X90490001Y-13022158D03*
X95690001Y-13022158D03*
X95690001Y-11522158D03*
%TD*%
D13*
%TO.C,D34*%
X226400000Y-101830000D03*
D14*
X226400000Y-94210000D03*
%TD*%
D13*
%TO.C,D5*%
X13430000Y-101930000D03*
D14*
X13430000Y-94310000D03*
%TD*%
D15*
%TO.C,D137*%
X224520000Y-104310000D03*
X224520000Y-105810000D03*
X229720000Y-105810000D03*
X229720000Y-104310000D03*
%TD*%
%TO.C,D100*%
X97900001Y-49382158D03*
X97900001Y-50882158D03*
X103100001Y-50882158D03*
X103100001Y-49382158D03*
%TD*%
D13*
%TO.C,D18*%
X74350000Y-84130000D03*
D14*
X74350000Y-76510000D03*
%TD*%
D15*
%TO.C,D46*%
X33082685Y-87937158D03*
X33082685Y-89437158D03*
X38282685Y-89437158D03*
X38282685Y-87937158D03*
%TD*%
%TO.C,D128*%
X121710001Y-68532158D03*
X121710001Y-70032158D03*
X126910001Y-70032158D03*
X126910001Y-68532158D03*
%TD*%
%TO.C,D109*%
X185980001Y-30322158D03*
X185980001Y-31822158D03*
X191180001Y-31822158D03*
X191180001Y-30322158D03*
%TD*%
D10*
%TO.C,SW23*%
X83450000Y-40750000D03*
D11*
X88530000Y-40750000D03*
D10*
X93610000Y-40750000D03*
D12*
X91070000Y-35670000D03*
X84720000Y-38210000D03*
%TD*%
D13*
%TO.C,D38*%
X121870000Y-65030000D03*
D14*
X121870000Y-57410000D03*
%TD*%
D10*
%TO.C,SW50*%
X150340000Y-21660000D03*
D11*
X155420000Y-21660000D03*
D10*
X160500000Y-21660000D03*
D12*
X157960000Y-16580000D03*
X151610000Y-19120000D03*
%TD*%
D15*
%TO.C,D116*%
X203230001Y-87690000D03*
X203230001Y-89190000D03*
X208430001Y-89190000D03*
X208430001Y-87690000D03*
%TD*%
%TO.C,D104*%
X255930000Y-49667158D03*
X255930000Y-51167158D03*
X261130000Y-51167158D03*
X261130000Y-49667158D03*
%TD*%
D13*
%TO.C,D4*%
X21590000Y-83810000D03*
D14*
X21590000Y-76190000D03*
%TD*%
D10*
%TO.C,SW30*%
X102510000Y-40760000D03*
D11*
X107590000Y-40760000D03*
D10*
X112670000Y-40760000D03*
D12*
X110130000Y-35680000D03*
X103780000Y-38220000D03*
%TD*%
D13*
%TO.C,D44*%
X136210000Y-45870000D03*
D14*
X136210000Y-38250000D03*
%TD*%
D10*
%TO.C,SW5*%
X19020000Y-97930000D03*
D11*
X24100000Y-97930000D03*
D10*
X29180000Y-97930000D03*
D12*
X26640000Y-92850000D03*
X20290000Y-95390000D03*
%TD*%
D13*
%TO.C,D51*%
X155350000Y-45730000D03*
D14*
X155350000Y-38110000D03*
%TD*%
D13*
%TO.C,D45*%
X140840000Y-65020000D03*
D14*
X140840000Y-57400000D03*
%TD*%
D13*
%TO.C,D43*%
X126810000Y-26800000D03*
D14*
X126810000Y-19180000D03*
%TD*%
D15*
%TO.C,D106*%
X212290001Y-49422158D03*
X212290001Y-50922158D03*
X217490001Y-50922158D03*
X217490001Y-49422158D03*
%TD*%
%TO.C,D63*%
X128570001Y-11532158D03*
X128570001Y-13032158D03*
X133770001Y-13032158D03*
X133770001Y-11532158D03*
%TD*%
D13*
%TO.C,D50*%
X146050000Y-27020000D03*
D14*
X146050000Y-19400000D03*
%TD*%
D10*
%TO.C,SW10*%
X50030000Y-59800000D03*
D11*
X55110000Y-59800000D03*
D10*
X60190000Y-59800000D03*
D12*
X57650000Y-54720000D03*
X51300000Y-57260000D03*
%TD*%
D15*
%TO.C,D139*%
X294080000Y-104457158D03*
X294080000Y-105957158D03*
X299280000Y-105957158D03*
X299280000Y-104457158D03*
%TD*%
D13*
%TO.C,D135*%
X255750000Y-84150000D03*
D14*
X255750000Y-76530000D03*
%TD*%
D10*
%TO.C,SW55*%
X230980000Y-78780000D03*
D11*
X236060000Y-78780000D03*
D10*
X241140000Y-78780000D03*
D12*
X238600000Y-73700000D03*
X232250000Y-76240000D03*
%TD*%
D10*
%TO.C,SW33*%
X66640000Y-97900000D03*
D11*
X71720000Y-97900000D03*
D10*
X76800000Y-97900000D03*
D12*
X74260000Y-92820000D03*
X67910000Y-95360000D03*
%TD*%
D15*
%TO.C,D126*%
X251140001Y-86912158D03*
X251140001Y-88412158D03*
X256340001Y-88412158D03*
X256340001Y-86912158D03*
%TD*%
D10*
%TO.C,SW1*%
X16770000Y-21710000D03*
D11*
X21850000Y-21710000D03*
D10*
X26930000Y-21710000D03*
D12*
X24390000Y-16630000D03*
X18040000Y-19170000D03*
%TD*%
D10*
%TO.C,SW68*%
X209530000Y-97880000D03*
D11*
X214610000Y-97880000D03*
D10*
X219690000Y-97880000D03*
D12*
X217150000Y-92800000D03*
X210800000Y-95340000D03*
%TD*%
D15*
%TO.C,D129*%
X140760001Y-68552158D03*
X140760001Y-70052158D03*
X145960001Y-70052158D03*
X145960001Y-68552158D03*
%TD*%
D13*
%TO.C,D17*%
X64660000Y-64880000D03*
D14*
X64660000Y-57260000D03*
%TD*%
D10*
%TO.C,SW13*%
X236230000Y-40690000D03*
D11*
X241310000Y-40690000D03*
D10*
X246390000Y-40690000D03*
D12*
X243850000Y-35610000D03*
X237500000Y-38150000D03*
%TD*%
D15*
%TO.C,D115*%
X223720000Y-87735000D03*
X223720000Y-89235000D03*
X228920000Y-89235000D03*
X228920000Y-87735000D03*
%TD*%
D13*
%TO.C,D27*%
X207570000Y-83980000D03*
D14*
X207570000Y-76360000D03*
%TD*%
D15*
%TO.C,D98*%
X136030001Y-49492158D03*
X136030001Y-50992158D03*
X141230001Y-50992158D03*
X141230001Y-49492158D03*
%TD*%
D10*
%TO.C,SW66*%
X202440000Y-59790000D03*
D11*
X207520000Y-59790000D03*
D10*
X212600000Y-59790000D03*
D12*
X210060000Y-54710000D03*
X203710000Y-57250000D03*
%TD*%
D15*
%TO.C,D120*%
X128440000Y-88400000D03*
X128440000Y-89900000D03*
X133640000Y-89900000D03*
X133640000Y-88400000D03*
%TD*%
D18*
%TO.C,R1*%
X315330000Y-40890000D03*
D19*
X311830000Y-40890000D03*
X315330000Y-99390000D03*
D20*
X317830000Y-46240000D03*
X309330000Y-45040000D03*
X317830000Y-94040000D03*
X309330000Y-95240000D03*
%TD*%
D13*
%TO.C,D7*%
X202860000Y-26940000D03*
D14*
X202860000Y-19320000D03*
%TD*%
D15*
%TO.C,D131*%
X178900000Y-68530000D03*
X178900000Y-70030000D03*
X184100000Y-70030000D03*
X184100000Y-68530000D03*
%TD*%
D13*
%TO.C,D31*%
X102800000Y-65130000D03*
D14*
X102800000Y-57510000D03*
%TD*%
D13*
%TO.C,D58*%
X174510000Y-45770000D03*
D14*
X174510000Y-38150000D03*
%TD*%
D10*
%TO.C,SW3*%
X23910000Y-59880000D03*
D11*
X28990000Y-59880000D03*
D10*
X34070000Y-59880000D03*
D12*
X31530000Y-54800000D03*
X25180000Y-57340000D03*
%TD*%
D13*
%TO.C,D9*%
X40810000Y-45650000D03*
D14*
X40810000Y-38030000D03*
%TD*%
D10*
%TO.C,SW11*%
X59530000Y-78800000D03*
D11*
X64610000Y-78800000D03*
D10*
X69690000Y-78800000D03*
D12*
X67150000Y-73720000D03*
X60800000Y-76260000D03*
%TD*%
D10*
%TO.C,SW16*%
X64360000Y-40760000D03*
D11*
X69440000Y-40760000D03*
D10*
X74520000Y-40760000D03*
D12*
X71980000Y-35680000D03*
X65630000Y-38220000D03*
%TD*%
D10*
%TO.C,SW37*%
X121650000Y-40800000D03*
D11*
X126730000Y-40800000D03*
D10*
X131810000Y-40800000D03*
D12*
X129270000Y-35720000D03*
X122920000Y-38260000D03*
%TD*%
D13*
%TO.C,D10*%
X45690000Y-64920000D03*
D14*
X45690000Y-57300000D03*
%TD*%
D10*
%TO.C,SW25*%
X97700000Y-78870000D03*
D11*
X102780000Y-78870000D03*
D10*
X107860000Y-78870000D03*
D12*
X105320000Y-73790000D03*
X98970000Y-76330000D03*
%TD*%
D10*
%TO.C,SW41*%
X245540000Y-21620000D03*
D11*
X250620000Y-21620000D03*
D10*
X255700000Y-21620000D03*
D12*
X253160000Y-16540000D03*
X246810000Y-19080000D03*
%TD*%
D13*
%TO.C,D59*%
X178950000Y-65030000D03*
D14*
X178950000Y-57410000D03*
%TD*%
D13*
%TO.C,D8*%
X31410000Y-26640000D03*
D14*
X31410000Y-19020000D03*
%TD*%
D10*
%TO.C,SW34*%
X233360000Y-97890000D03*
D11*
X238440000Y-97890000D03*
D10*
X243520000Y-97890000D03*
D12*
X240980000Y-92810000D03*
X234630000Y-95350000D03*
%TD*%
D10*
%TO.C,SW7*%
X207500000Y-21670000D03*
D11*
X212580000Y-21670000D03*
D10*
X217660000Y-21670000D03*
D12*
X215120000Y-16590000D03*
X208770000Y-19130000D03*
%TD*%
D10*
%TO.C,SW58*%
X178980000Y-40740000D03*
D11*
X184060000Y-40740000D03*
D10*
X189140000Y-40740000D03*
D12*
X186600000Y-35660000D03*
X180250000Y-38200000D03*
%TD*%
D13*
%TO.C,D29*%
X88740000Y-26670000D03*
D14*
X88740000Y-19050000D03*
%TD*%
D13*
%TO.C,D37*%
X117190000Y-46050000D03*
D14*
X117190000Y-38430000D03*
%TD*%
D15*
%TO.C,D91*%
X40220000Y-49480000D03*
X40220000Y-50980000D03*
X45420000Y-50980000D03*
X45420000Y-49480000D03*
%TD*%
%TO.C,D114*%
X293055265Y-33264735D03*
X293055265Y-34764735D03*
X298255265Y-34764735D03*
X298255265Y-33264735D03*
%TD*%
%TO.C,D117*%
X184550000Y-87780000D03*
X184550000Y-89280000D03*
X189750000Y-89280000D03*
X189750000Y-87780000D03*
%TD*%
D13*
%TO.C,D55*%
X226610000Y-83990000D03*
D14*
X226610000Y-76370000D03*
%TD*%
D15*
%TO.C,D74*%
X224170001Y-11467158D03*
X224170001Y-12967158D03*
X229370001Y-12967158D03*
X229370001Y-11467158D03*
%TD*%
%TO.C,D132*%
X198000001Y-68462158D03*
X198000001Y-69962158D03*
X203200001Y-69962158D03*
X203200001Y-68462158D03*
%TD*%
D10*
%TO.C,SW2*%
X21510000Y-40790000D03*
D11*
X26590000Y-40790000D03*
D10*
X31670000Y-40790000D03*
D12*
X29130000Y-35710000D03*
X22780000Y-38250000D03*
%TD*%
D15*
%TO.C,D12*%
X105120001Y-88000000D03*
X105120001Y-89500000D03*
X110320001Y-89500000D03*
X110320001Y-88000000D03*
%TD*%
D10*
%TO.C,SW28*%
X192940000Y-78880000D03*
D11*
X198020000Y-78880000D03*
D10*
X203100000Y-78880000D03*
D12*
X200560000Y-73800000D03*
X194210000Y-76340000D03*
%TD*%
D15*
%TO.C,D87*%
X13000000Y-11427158D03*
X13000000Y-12927158D03*
X18200000Y-12927158D03*
X18200000Y-11427158D03*
%TD*%
D13*
%TO.C,D20*%
X236280000Y-64770000D03*
D14*
X236280000Y-57150000D03*
%TD*%
D13*
%TO.C,D48*%
X255430000Y-64940000D03*
D14*
X255430000Y-57320000D03*
%TD*%
D16*
%TO.C,SW4*%
X21800000Y-71902500D03*
D11*
X21800000Y-87142500D03*
D10*
X28620000Y-78902500D03*
D11*
X33700000Y-78902500D03*
D10*
X38780000Y-78902500D03*
D16*
X45600000Y-71902500D03*
D11*
X45600000Y-87142500D03*
D12*
X36240000Y-73822500D03*
X29890000Y-76362500D03*
%TD*%
D15*
%TO.C,D76*%
X186000001Y-11492158D03*
X186000001Y-12992158D03*
X191200001Y-12992158D03*
X191200001Y-11492158D03*
%TD*%
D13*
%TO.C,D25*%
X93230000Y-83880000D03*
D14*
X93230000Y-76260000D03*
%TD*%
D15*
%TO.C,D110*%
X204617500Y-30490000D03*
X204617500Y-31990000D03*
X209817500Y-31990000D03*
X209817500Y-30490000D03*
%TD*%
D10*
%TO.C,SW31*%
X107180000Y-59850000D03*
D11*
X112260000Y-59850000D03*
D10*
X117340000Y-59850000D03*
D12*
X114800000Y-54770000D03*
X108450000Y-57310000D03*
%TD*%
D13*
%TO.C,D19*%
X35820000Y-101860000D03*
D14*
X35820000Y-94240000D03*
%TD*%
D10*
%TO.C,SW38*%
X126240000Y-59870000D03*
D11*
X131320000Y-59870000D03*
D10*
X136400000Y-59870000D03*
D12*
X133860000Y-54790000D03*
X127510000Y-57330000D03*
%TD*%
D13*
%TO.C,D3*%
X18540000Y-64860000D03*
D14*
X18540000Y-57240000D03*
%TD*%
D10*
%TO.C,SW24*%
X88200000Y-59830000D03*
D11*
X93280000Y-59830000D03*
D10*
X98360000Y-59830000D03*
D12*
X95820000Y-54750000D03*
X89470000Y-57290000D03*
%TD*%
D13*
%TO.C,D68*%
X202880000Y-102120000D03*
D14*
X202880000Y-94500000D03*
%TD*%
D10*
%TO.C,SW15*%
X54950000Y-21690000D03*
D11*
X60030000Y-21690000D03*
D10*
X65110000Y-21690000D03*
D12*
X62570000Y-16610000D03*
X56220000Y-19150000D03*
%TD*%
D15*
%TO.C,D93*%
X12650001Y-68132158D03*
X12650001Y-69632158D03*
X17850001Y-69632158D03*
X17850001Y-68132158D03*
%TD*%
D10*
%TO.C,SW39*%
X135820000Y-78870000D03*
D11*
X140900000Y-78870000D03*
D10*
X145980000Y-78870000D03*
D12*
X143440000Y-73790000D03*
X137090000Y-76330000D03*
%TD*%
D10*
%TO.C,SW67*%
X173860000Y-78900000D03*
D11*
X178940000Y-78900000D03*
D10*
X184020000Y-78900000D03*
D12*
X181480000Y-73820000D03*
X175130000Y-76360000D03*
%TD*%
D15*
%TO.C,D99*%
X116990001Y-49467158D03*
X116990001Y-50967158D03*
X122190001Y-50967158D03*
X122190001Y-49467158D03*
%TD*%
%TO.C,D88*%
X13050000Y-30400000D03*
X13050000Y-31900000D03*
X18250000Y-31900000D03*
X18250000Y-30400000D03*
%TD*%
D21*
%TO.C,SW49*%
X324750000Y-40110000D03*
D22*
X324750000Y-42610000D03*
X324750000Y-45110000D03*
X321450000Y-45110000D03*
X321450000Y-42610000D03*
X321450000Y-40110000D03*
%TD*%
D13*
%TO.C,D103*%
X250450000Y-102500000D03*
D14*
X250450000Y-94880000D03*
%TD*%
D10*
%TO.C,SW44*%
X140690000Y-40790000D03*
D11*
X145770000Y-40790000D03*
D10*
X150850000Y-40790000D03*
D12*
X148310000Y-35710000D03*
X141960000Y-38250000D03*
%TD*%
D16*
%TO.C,SW70*%
X259940000Y-71840000D03*
D11*
X259940000Y-87080000D03*
D10*
X266760000Y-78840000D03*
D11*
X271840000Y-78840000D03*
D10*
X276920000Y-78840000D03*
D16*
X283740000Y-71840000D03*
D11*
X283740000Y-87080000D03*
D12*
X274380000Y-73760000D03*
X268030000Y-76300000D03*
%TD*%
D10*
%TO.C,SW8*%
X35850000Y-21750000D03*
D11*
X40930000Y-21750000D03*
D10*
X46010000Y-21750000D03*
D12*
X43470000Y-16670000D03*
X37120000Y-19210000D03*
%TD*%
D13*
%TO.C,D24*%
X83710000Y-64870000D03*
D14*
X83710000Y-57250000D03*
%TD*%
D13*
%TO.C,D60*%
X150510000Y-83910000D03*
D14*
X150510000Y-76290000D03*
%TD*%
D10*
%TO.C,SW64*%
X188450000Y-21680000D03*
D11*
X193530000Y-21680000D03*
D10*
X198610000Y-21680000D03*
D12*
X196070000Y-16600000D03*
X189720000Y-19140000D03*
%TD*%
D13*
%TO.C,D52*%
X159890000Y-64860000D03*
D14*
X159890000Y-57240000D03*
%TD*%
D10*
%TO.C,SW27*%
X211950000Y-78860000D03*
D11*
X217030000Y-78860000D03*
D10*
X222110000Y-78860000D03*
D12*
X219570000Y-73780000D03*
X213220000Y-76320000D03*
%TD*%
D15*
%TO.C,D78*%
X71510001Y-11482158D03*
X71510001Y-12982158D03*
X76710001Y-12982158D03*
X76710001Y-11482158D03*
%TD*%
%TO.C,D80*%
X90660001Y-30242158D03*
X90660001Y-31742158D03*
X95860001Y-31742158D03*
X95860001Y-30242158D03*
%TD*%
D10*
%TO.C,SW21*%
X221530000Y-59770000D03*
D11*
X226610000Y-59770000D03*
D10*
X231690000Y-59770000D03*
D12*
X229150000Y-54690000D03*
X222800000Y-57230000D03*
%TD*%
D13*
%TO.C,D23*%
X78900000Y-46130000D03*
D14*
X78900000Y-38510000D03*
%TD*%
D15*
%TO.C,D101*%
X78730001Y-49367158D03*
X78730001Y-50867158D03*
X83930001Y-50867158D03*
X83930001Y-49367158D03*
%TD*%
%TO.C,D134*%
X200970000Y-104452158D03*
X200970000Y-105952158D03*
X206170000Y-105952158D03*
X206170000Y-104452158D03*
%TD*%
D13*
%TO.C,D61*%
X83460000Y-101750000D03*
D14*
X83460000Y-94130000D03*
%TD*%
D15*
%TO.C,D118*%
X166810000Y-88270000D03*
X166810000Y-89770000D03*
X172010000Y-89770000D03*
X172010000Y-88270000D03*
%TD*%
D23*
%TO.C,U3*%
X321520000Y-102980000D03*
D24*
X320250000Y-102980000D03*
X318980000Y-102980000D03*
%TD*%
D10*
%TO.C,SW12*%
X257220000Y-97880000D03*
D11*
X262300000Y-97880000D03*
D10*
X267380000Y-97880000D03*
D12*
X264840000Y-92800000D03*
X258490000Y-95340000D03*
%TD*%
D15*
%TO.C,D73*%
X243140001Y-11482158D03*
X243140001Y-12982158D03*
X248340001Y-12982158D03*
X248340001Y-11482158D03*
%TD*%
D16*
%TO.C,SW62*%
X267320000Y-14600000D03*
D11*
X267320000Y-29840000D03*
D10*
X274140000Y-21600000D03*
D11*
X279220000Y-21600000D03*
D10*
X284300000Y-21600000D03*
D16*
X291120000Y-14600000D03*
D11*
X291120000Y-29840000D03*
D12*
X281760000Y-16520000D03*
X275410000Y-19060000D03*
%TD*%
D15*
%TO.C,D81*%
X109820001Y-30202158D03*
X109820001Y-31702158D03*
X115020001Y-31702158D03*
X115020001Y-30202158D03*
%TD*%
%TO.C,D111*%
X224140000Y-30257158D03*
X224140000Y-31757158D03*
X229340000Y-31757158D03*
X229340000Y-30257158D03*
%TD*%
%TO.C,D122*%
X233620000Y-68520000D03*
X233620000Y-70020000D03*
X238820000Y-70020000D03*
X238820000Y-68520000D03*
%TD*%
%TO.C,D54*%
X57820000Y-104692158D03*
X57820000Y-106192158D03*
X63020000Y-106192158D03*
X63020000Y-104692158D03*
%TD*%
D13*
%TO.C,D16*%
X59810000Y-46000000D03*
D14*
X59810000Y-38380000D03*
%TD*%
D13*
%TO.C,D14*%
X212670000Y-45860000D03*
D14*
X212670000Y-38240000D03*
%TD*%
D15*
%TO.C,D108*%
X174210001Y-49422158D03*
X174210001Y-50922158D03*
X179410001Y-50922158D03*
X179410001Y-49422158D03*
%TD*%
%TO.C,D112*%
X244360000Y-30325000D03*
X244360000Y-31825000D03*
X249560000Y-31825000D03*
X249560000Y-30325000D03*
%TD*%
D10*
%TO.C,SW20*%
X240630000Y-59740000D03*
D11*
X245710000Y-59740000D03*
D10*
X250790000Y-59740000D03*
D12*
X248250000Y-54660000D03*
X241900000Y-57200000D03*
%TD*%
D15*
%TO.C,D79*%
X71580001Y-30242158D03*
X71580001Y-31742158D03*
X76780001Y-31742158D03*
X76780001Y-30242158D03*
%TD*%
%TO.C,D71*%
X291400000Y-17820000D03*
X291400000Y-19320000D03*
X296600000Y-19320000D03*
X296600000Y-17820000D03*
%TD*%
D13*
%TO.C,D67*%
X169460000Y-83900000D03*
D14*
X169460000Y-76280000D03*
%TD*%
D15*
%TO.C,D72*%
X258580000Y-11460000D03*
X258580000Y-12960000D03*
X263780000Y-12960000D03*
X263780000Y-11460000D03*
%TD*%
D10*
%TO.C,SW14*%
X217060000Y-40730000D03*
D11*
X222140000Y-40730000D03*
D10*
X227220000Y-40730000D03*
D12*
X224680000Y-35650000D03*
X218330000Y-38190000D03*
%TD*%
D13*
%TO.C,D6*%
X221850000Y-26890000D03*
D14*
X221850000Y-19270000D03*
%TD*%
D13*
%TO.C,D13*%
X231730000Y-45750000D03*
D14*
X231730000Y-38130000D03*
%TD*%
D13*
%TO.C,D69*%
X260140000Y-26780000D03*
D14*
X260140000Y-19160000D03*
%TD*%
D15*
%TO.C,D130*%
X157940000Y-68570000D03*
X157940000Y-70070000D03*
X163140000Y-70070000D03*
X163140000Y-68570000D03*
%TD*%
D13*
%TO.C,D22*%
X69570000Y-26870000D03*
D14*
X69570000Y-19250000D03*
%TD*%
D15*
%TO.C,D26*%
X84330000Y-88160000D03*
X84330000Y-89660000D03*
X89530000Y-89660000D03*
X89530000Y-88160000D03*
%TD*%
D13*
%TO.C,D39*%
X131440000Y-84000000D03*
D14*
X131440000Y-76380000D03*
%TD*%
D13*
%TO.C,D28*%
X188410000Y-83880000D03*
D14*
X188410000Y-76260000D03*
%TD*%
D15*
%TO.C,D62*%
X80967001Y-105072158D03*
X80967001Y-106572158D03*
X86167001Y-106572158D03*
X86167001Y-105072158D03*
%TD*%
D13*
%TO.C,D42*%
X250900000Y-45850000D03*
D14*
X250900000Y-38230000D03*
%TD*%
D13*
%TO.C,D136*%
X274150000Y-101610000D03*
D14*
X274150000Y-93990000D03*
%TD*%
D10*
%TO.C,SW9*%
X45250000Y-40750000D03*
D11*
X50330000Y-40750000D03*
D10*
X55410000Y-40750000D03*
D12*
X52870000Y-35670000D03*
X46520000Y-38210000D03*
%TD*%
D10*
%TO.C,SW43*%
X131260000Y-21750000D03*
D11*
X136340000Y-21750000D03*
D10*
X141420000Y-21750000D03*
D12*
X138880000Y-16670000D03*
X132530000Y-19210000D03*
%TD*%
D13*
%TO.C,D64*%
X183950000Y-27160000D03*
D14*
X183950000Y-19540000D03*
%TD*%
D15*
%TO.C,D53*%
X34680001Y-104432158D03*
X34680001Y-105932158D03*
X39880001Y-105932158D03*
X39880001Y-104432158D03*
%TD*%
D10*
%TO.C,SW29*%
X93100000Y-21730000D03*
D11*
X98180000Y-21730000D03*
D10*
X103260000Y-21730000D03*
D12*
X100720000Y-16650000D03*
X94370000Y-19190000D03*
%TD*%
D15*
%TO.C,D86*%
X33430001Y-11617158D03*
X33430001Y-13117158D03*
X38630001Y-13117158D03*
X38630001Y-11617158D03*
%TD*%
D13*
%TO.C,D65*%
X193600000Y-45800000D03*
D14*
X193600000Y-38180000D03*
%TD*%
D15*
%TO.C,D107*%
X193190001Y-49432158D03*
X193190001Y-50932158D03*
X198390001Y-50932158D03*
X198390001Y-49432158D03*
%TD*%
D10*
%TO.C,SW6*%
X226540000Y-21650000D03*
D11*
X231620000Y-21650000D03*
D10*
X236700000Y-21650000D03*
D12*
X234160000Y-16570000D03*
X227810000Y-19110000D03*
%TD*%
D10*
%TO.C,SW65*%
X198020000Y-40750000D03*
D11*
X203100000Y-40750000D03*
D10*
X208180000Y-40750000D03*
D12*
X205640000Y-35670000D03*
X199290000Y-38210000D03*
%TD*%
D15*
%TO.C,D49*%
X166690001Y-11502158D03*
X166690001Y-13002158D03*
X171890001Y-13002158D03*
X171890001Y-11502158D03*
%TD*%
D13*
%TO.C,D15*%
X50490000Y-26670000D03*
D14*
X50490000Y-19050000D03*
%TD*%
D15*
%TO.C,D119*%
X146170000Y-87540000D03*
X146170000Y-89040000D03*
X151370000Y-89040000D03*
X151370000Y-87540000D03*
%TD*%
D25*
%TO.C,R2*%
X314300000Y-22405000D03*
X314300000Y-20580000D03*
%TD*%
D26*
%TO.C,BT1*%
X296740000Y-95160000D03*
D27*
X294740000Y-96760000D03*
D28*
X294740000Y-99260000D03*
%TD*%
D29*
%TO.C,U1*%
X312910000Y-30570000D03*
X311640000Y-30570000D03*
X310370000Y-30570000D03*
X309100000Y-30570000D03*
X309100000Y-25620000D03*
X310370000Y-25620000D03*
X311640000Y-25620000D03*
X312910000Y-25620000D03*
D30*
X309805000Y-28795000D03*
X311005000Y-28795000D03*
X312205000Y-28795000D03*
D31*
X311005000Y-28095000D03*
D30*
X309805000Y-27395000D03*
X311005000Y-27395000D03*
X312205000Y-27395000D03*
%TD*%
D12*
%TO.C,A1*%
X311675000Y-106650000D03*
D32*
X311975000Y-103620000D03*
X316825000Y-103620000D03*
D12*
X317125000Y-106650000D03*
D33*
X304710000Y-106780000D03*
D34*
X304710000Y-104240000D03*
D35*
X304710000Y-101700000D03*
D34*
X304710000Y-99160000D03*
X304710000Y-96620000D03*
X304710000Y-94080000D03*
X304710000Y-91540000D03*
D35*
X304710000Y-89000000D03*
D34*
X304710000Y-86460000D03*
X304710000Y-83920000D03*
X304710000Y-81380000D03*
X304710000Y-78840000D03*
D35*
X304710000Y-76300000D03*
D34*
X304710000Y-73760000D03*
X304710000Y-71220000D03*
X304710000Y-68680000D03*
X304710000Y-66140000D03*
D35*
X304710000Y-63600000D03*
D34*
X304710000Y-61060000D03*
X304710000Y-58520000D03*
X324090000Y-58520000D03*
X324090000Y-61060000D03*
D33*
X324090000Y-63600000D03*
D34*
X324090000Y-66140000D03*
X324090000Y-68680000D03*
X324090000Y-71220000D03*
X324090000Y-73760000D03*
D33*
X324090000Y-76300000D03*
D34*
X324090000Y-78840000D03*
X324090000Y-81380000D03*
X324090000Y-83920000D03*
X324090000Y-86460000D03*
D33*
X324090000Y-89000000D03*
D34*
X324090000Y-91540000D03*
X324090000Y-94080000D03*
X324090000Y-96620000D03*
X324090000Y-99160000D03*
D33*
X324090000Y-101700000D03*
D34*
X324090000Y-104240000D03*
X324090000Y-106780000D03*
D36*
X314984100Y-76950000D03*
D14*
X317524100Y-76950000D03*
X320064100Y-76950000D03*
%TD*%
D37*
%TO.C,C3*%
X312620000Y-35140000D03*
X314520000Y-35140000D03*
%TD*%
D38*
%TO.C,J1*%
X318005000Y-16390000D03*
X318005000Y-16890000D03*
X318005000Y-17390000D03*
X318005000Y-17890000D03*
X318005000Y-18390000D03*
X318005000Y-18890000D03*
X318005000Y-19890000D03*
X318005000Y-20390000D03*
X318005000Y-20890000D03*
X318005000Y-21390000D03*
X318005000Y-21890000D03*
X318005000Y-22390000D03*
D39*
X319305000Y-22490000D03*
D38*
X319305000Y-21640000D03*
X319305000Y-21140000D03*
X319305000Y-20640000D03*
X319305000Y-20140000D03*
X319305000Y-19640000D03*
X319305000Y-19140000D03*
X319305000Y-18640000D03*
X319305000Y-18140000D03*
X319305000Y-17640000D03*
X319305000Y-17140000D03*
D39*
X319305000Y-16290000D03*
D40*
X323775000Y-15070000D03*
D41*
X318415000Y-15070000D03*
D40*
X323775000Y-23710000D03*
D41*
X318415000Y-23710000D03*
%TD*%
D25*
%TO.C,R3*%
X311150000Y-21025000D03*
X311150000Y-19200000D03*
%TD*%
D42*
%TO.C,C4*%
X305270000Y-31300000D03*
X303370000Y-31300000D03*
%TD*%
M02*
