%TF.GenerationSoftware,KiCad,Pcbnew,9.0.7*%
%TF.CreationDate,2026-05-29T01:14:56+05:30*%
%TF.ProjectId,keyboard,6b657962-6f61-4726-942e-6b696361645f,rev?*%
%TF.SameCoordinates,Original*%
%TF.FileFunction,Profile,NP*%
%FSLAX46Y46*%
G04 Gerber Fmt 4.6, Leading zero omitted, Abs format (unit mm)*
G04 Created by KiCad (PCBNEW 9.0.7) date 2026-05-29 01:14:56*
%MOMM*%
%LPD*%
G01*
G04 APERTURE LIST*
%TA.AperFunction,Profile*%
%ADD10C,0.050000*%
%TD*%
%TA.AperFunction,Profile*%
%ADD11C,0.100000*%
%TD*%
G04 APERTURE END LIST*
D10*
X11450000Y-108980000D02*
X326220000Y-108990000D01*
X11500000Y-10000000D02*
X11450000Y-108980000D01*
X326200000Y-10160000D02*
X11500000Y-10000000D01*
X326220000Y-108990000D02*
X326200000Y-10160000D01*
D11*
%TO.C,D85*%
X53380002Y-12900000D02*
X53380002Y-11494316D01*
X54285549Y-10697159D02*
X55874454Y-10697159D01*
X55874453Y-13697158D02*
X54285549Y-13697158D01*
X56780000Y-11494316D02*
X56780000Y-12900000D01*
X53330517Y-11277438D02*
G75*
G02*
X53380002Y-11494316I-450505J-216876D01*
G01*
X53330517Y-11277438D02*
G75*
G02*
X54033290Y-10628859I450515J216878D01*
G01*
X53380002Y-12900001D02*
G75*
G02*
X53330517Y-13116878I-499990J-1D01*
G01*
X54033290Y-13765455D02*
G75*
G02*
X53330517Y-13116878I-252258J431700D01*
G01*
X54033291Y-13765457D02*
G75*
G02*
X54285549Y-13697158I252261J-431710D01*
G01*
X54285548Y-10697158D02*
G75*
G02*
X54033290Y-10628859I3J500009D01*
G01*
X55874453Y-13697158D02*
G75*
G02*
X56126712Y-13765457I-3J-500012D01*
G01*
X56126712Y-10628860D02*
G75*
G02*
X55874454Y-10697160I-252262J431710D01*
G01*
X56126712Y-10628860D02*
G75*
G02*
X56829484Y-11277438I252258J-431700D01*
G01*
X56780000Y-11494315D02*
G75*
G02*
X56829479Y-11277435I500000J15D01*
G01*
X56829485Y-13116877D02*
G75*
G02*
X56126712Y-13765457I-450514J-216880D01*
G01*
X56829485Y-13116878D02*
G75*
G02*
X56780000Y-12900000I450515J216878D01*
G01*
%TO.C,D138*%
X272040001Y-105715000D02*
X272040001Y-104309316D01*
X272945548Y-103512159D02*
X274534453Y-103512159D01*
X274534452Y-106512158D02*
X272945548Y-106512158D01*
X275439999Y-104309316D02*
X275439999Y-105715000D01*
X271990516Y-104092438D02*
G75*
G02*
X272040001Y-104309316I-450505J-216876D01*
G01*
X271990516Y-104092438D02*
G75*
G02*
X272693289Y-103443859I450515J216878D01*
G01*
X272040001Y-105715001D02*
G75*
G02*
X271990516Y-105931878I-499990J-1D01*
G01*
X272693289Y-106580455D02*
G75*
G02*
X271990516Y-105931878I-252258J431700D01*
G01*
X272693290Y-106580457D02*
G75*
G02*
X272945548Y-106512158I252261J-431710D01*
G01*
X272945547Y-103512158D02*
G75*
G02*
X272693289Y-103443859I3J500009D01*
G01*
X274534452Y-106512158D02*
G75*
G02*
X274786711Y-106580457I-3J-500012D01*
G01*
X274786711Y-103443860D02*
G75*
G02*
X274534453Y-103512160I-252262J431710D01*
G01*
X274786711Y-103443860D02*
G75*
G02*
X275489483Y-104092438I252258J-431700D01*
G01*
X275439999Y-104309315D02*
G75*
G02*
X275489478Y-104092435I500000J15D01*
G01*
X275489484Y-105931877D02*
G75*
G02*
X274786711Y-106580457I-450514J-216880D01*
G01*
X275489484Y-105931878D02*
G75*
G02*
X275439999Y-105715000I450515J216878D01*
G01*
%TO.C,D97*%
X155850002Y-50745000D02*
X155850002Y-49339316D01*
X156755549Y-48542159D02*
X158344454Y-48542159D01*
X158344453Y-51542158D02*
X156755549Y-51542158D01*
X159250000Y-49339316D02*
X159250000Y-50745000D01*
X155800517Y-49122438D02*
G75*
G02*
X155850002Y-49339316I-450505J-216876D01*
G01*
X155800517Y-49122438D02*
G75*
G02*
X156503290Y-48473859I450515J216878D01*
G01*
X155850002Y-50745001D02*
G75*
G02*
X155800517Y-50961878I-499990J-1D01*
G01*
X156503290Y-51610455D02*
G75*
G02*
X155800517Y-50961878I-252258J431700D01*
G01*
X156503291Y-51610457D02*
G75*
G02*
X156755549Y-51542158I252261J-431710D01*
G01*
X156755548Y-48542158D02*
G75*
G02*
X156503290Y-48473859I3J500009D01*
G01*
X158344453Y-51542158D02*
G75*
G02*
X158596712Y-51610457I-3J-500012D01*
G01*
X158596712Y-48473860D02*
G75*
G02*
X158344454Y-48542160I-252262J431710D01*
G01*
X158596712Y-48473860D02*
G75*
G02*
X159299484Y-49122438I252258J-431700D01*
G01*
X159250000Y-49339315D02*
G75*
G02*
X159299479Y-49122435I500000J15D01*
G01*
X159299485Y-50961877D02*
G75*
G02*
X158596712Y-51610457I-450514J-216880D01*
G01*
X159299485Y-50961878D02*
G75*
G02*
X159250000Y-50745000I450515J216878D01*
G01*
%TO.C,D75*%
X206120002Y-12935000D02*
X206120002Y-11529316D01*
X207025549Y-10732159D02*
X208614454Y-10732159D01*
X208614453Y-13732158D02*
X207025549Y-13732158D01*
X209520000Y-11529316D02*
X209520000Y-12935000D01*
X206070517Y-11312438D02*
G75*
G02*
X206120002Y-11529316I-450505J-216876D01*
G01*
X206070517Y-11312438D02*
G75*
G02*
X206773290Y-10663859I450515J216878D01*
G01*
X206120002Y-12935001D02*
G75*
G02*
X206070517Y-13151878I-499990J-1D01*
G01*
X206773290Y-13800455D02*
G75*
G02*
X206070517Y-13151878I-252258J431700D01*
G01*
X206773291Y-13800457D02*
G75*
G02*
X207025549Y-13732158I252261J-431710D01*
G01*
X207025548Y-10732158D02*
G75*
G02*
X206773290Y-10663859I3J500009D01*
G01*
X208614453Y-13732158D02*
G75*
G02*
X208866712Y-13800457I-3J-500012D01*
G01*
X208866712Y-10663860D02*
G75*
G02*
X208614454Y-10732160I-252262J431710D01*
G01*
X208866712Y-10663860D02*
G75*
G02*
X209569484Y-11312438I252258J-431700D01*
G01*
X209520000Y-11529315D02*
G75*
G02*
X209569479Y-11312435I500000J15D01*
G01*
X209569485Y-13151877D02*
G75*
G02*
X208866712Y-13800457I-450514J-216880D01*
G01*
X209569485Y-13151878D02*
G75*
G02*
X209520000Y-12935000I450515J216878D01*
G01*
%TO.C,D123*%
X252430001Y-70405000D02*
X252430001Y-68999316D01*
X253335548Y-68202159D02*
X254924453Y-68202159D01*
X254924452Y-71202158D02*
X253335548Y-71202158D01*
X255829999Y-68999316D02*
X255829999Y-70405000D01*
X252380516Y-68782438D02*
G75*
G02*
X252430001Y-68999316I-450505J-216876D01*
G01*
X252380516Y-68782438D02*
G75*
G02*
X253083289Y-68133859I450515J216878D01*
G01*
X252430001Y-70405001D02*
G75*
G02*
X252380516Y-70621878I-499990J-1D01*
G01*
X253083289Y-71270455D02*
G75*
G02*
X252380516Y-70621878I-252258J431700D01*
G01*
X253083290Y-71270457D02*
G75*
G02*
X253335548Y-71202158I252261J-431710D01*
G01*
X253335547Y-68202158D02*
G75*
G02*
X253083289Y-68133859I3J500009D01*
G01*
X254924452Y-71202158D02*
G75*
G02*
X255176711Y-71270457I-3J-500012D01*
G01*
X255176711Y-68133860D02*
G75*
G02*
X254924453Y-68202160I-252262J431710D01*
G01*
X255176711Y-68133860D02*
G75*
G02*
X255879483Y-68782438I252258J-431700D01*
G01*
X255829999Y-68999315D02*
G75*
G02*
X255879478Y-68782435I500000J15D01*
G01*
X255879484Y-70621877D02*
G75*
G02*
X255176711Y-71270457I-450514J-216880D01*
G01*
X255879484Y-70621878D02*
G75*
G02*
X255829999Y-70405000I450515J216878D01*
G01*
%TO.C,D113*%
X271940001Y-31855000D02*
X271940001Y-30449316D01*
X272845548Y-29652159D02*
X274434453Y-29652159D01*
X274434452Y-32652158D02*
X272845548Y-32652158D01*
X275339999Y-30449316D02*
X275339999Y-31855000D01*
X271890516Y-30232438D02*
G75*
G02*
X271940001Y-30449316I-450505J-216876D01*
G01*
X271890516Y-30232438D02*
G75*
G02*
X272593289Y-29583859I450515J216878D01*
G01*
X271940001Y-31855001D02*
G75*
G02*
X271890516Y-32071878I-499990J-1D01*
G01*
X272593289Y-32720455D02*
G75*
G02*
X271890516Y-32071878I-252258J431700D01*
G01*
X272593290Y-32720457D02*
G75*
G02*
X272845548Y-32652158I252261J-431710D01*
G01*
X272845547Y-29652158D02*
G75*
G02*
X272593289Y-29583859I3J500009D01*
G01*
X274434452Y-32652158D02*
G75*
G02*
X274686711Y-32720457I-3J-500012D01*
G01*
X274686711Y-29583860D02*
G75*
G02*
X274434453Y-29652160I-252262J431710D01*
G01*
X274686711Y-29583860D02*
G75*
G02*
X275389483Y-30232438I252258J-431700D01*
G01*
X275339999Y-30449315D02*
G75*
G02*
X275389478Y-30232435I500000J15D01*
G01*
X275389484Y-32071877D02*
G75*
G02*
X274686711Y-32720457I-450514J-216880D01*
G01*
X275389484Y-32071878D02*
G75*
G02*
X275339999Y-31855000I450515J216878D01*
G01*
%TO.C,D89*%
X34070002Y-31775000D02*
X34070002Y-30369316D01*
X34975549Y-29572159D02*
X36564454Y-29572159D01*
X36564453Y-32572158D02*
X34975549Y-32572158D01*
X37470000Y-30369316D02*
X37470000Y-31775000D01*
X34020517Y-30152438D02*
G75*
G02*
X34070002Y-30369316I-450505J-216876D01*
G01*
X34020517Y-30152438D02*
G75*
G02*
X34723290Y-29503859I450515J216878D01*
G01*
X34070002Y-31775001D02*
G75*
G02*
X34020517Y-31991878I-499990J-1D01*
G01*
X34723290Y-32640455D02*
G75*
G02*
X34020517Y-31991878I-252258J431700D01*
G01*
X34723291Y-32640457D02*
G75*
G02*
X34975549Y-32572158I252261J-431710D01*
G01*
X34975548Y-29572158D02*
G75*
G02*
X34723290Y-29503859I3J500009D01*
G01*
X36564453Y-32572158D02*
G75*
G02*
X36816712Y-32640457I-3J-500012D01*
G01*
X36816712Y-29503860D02*
G75*
G02*
X36564454Y-29572160I-252262J431710D01*
G01*
X36816712Y-29503860D02*
G75*
G02*
X37519484Y-30152438I252258J-431700D01*
G01*
X37470000Y-30369315D02*
G75*
G02*
X37519479Y-30152435I500000J15D01*
G01*
X37519485Y-31991877D02*
G75*
G02*
X36816712Y-32640457I-450514J-216880D01*
G01*
X37519485Y-31991878D02*
G75*
G02*
X37470000Y-31775000I450515J216878D01*
G01*
%TO.C,D56*%
X148570002Y-12895000D02*
X148570002Y-11489316D01*
X149475549Y-10692159D02*
X151064454Y-10692159D01*
X151064453Y-13692158D02*
X149475549Y-13692158D01*
X151970000Y-11489316D02*
X151970000Y-12895000D01*
X148520517Y-11272438D02*
G75*
G02*
X148570002Y-11489316I-450505J-216876D01*
G01*
X148520517Y-11272438D02*
G75*
G02*
X149223290Y-10623859I450515J216878D01*
G01*
X148570002Y-12895001D02*
G75*
G02*
X148520517Y-13111878I-499990J-1D01*
G01*
X149223290Y-13760455D02*
G75*
G02*
X148520517Y-13111878I-252258J431700D01*
G01*
X149223291Y-13760457D02*
G75*
G02*
X149475549Y-13692158I252261J-431710D01*
G01*
X149475548Y-10692158D02*
G75*
G02*
X149223290Y-10623859I3J500009D01*
G01*
X151064453Y-13692158D02*
G75*
G02*
X151316712Y-13760457I-3J-500012D01*
G01*
X151316712Y-10623860D02*
G75*
G02*
X151064454Y-10692160I-252262J431710D01*
G01*
X151316712Y-10623860D02*
G75*
G02*
X152019484Y-11272438I252258J-431700D01*
G01*
X151970000Y-11489315D02*
G75*
G02*
X152019479Y-11272435I500000J15D01*
G01*
X152019485Y-13111877D02*
G75*
G02*
X151316712Y-13760457I-450514J-216880D01*
G01*
X152019485Y-13111878D02*
G75*
G02*
X151970000Y-12895000I450515J216878D01*
G01*
%TO.C,D96*%
X84520002Y-69865000D02*
X84520002Y-68459316D01*
X85425549Y-67662159D02*
X87014454Y-67662159D01*
X87014453Y-70662158D02*
X85425549Y-70662158D01*
X87920000Y-68459316D02*
X87920000Y-69865000D01*
X84470517Y-68242438D02*
G75*
G02*
X84520002Y-68459316I-450505J-216876D01*
G01*
X84470517Y-68242438D02*
G75*
G02*
X85173290Y-67593859I450515J216878D01*
G01*
X84520002Y-69865001D02*
G75*
G02*
X84470517Y-70081878I-499990J-1D01*
G01*
X85173290Y-70730455D02*
G75*
G02*
X84470517Y-70081878I-252258J431700D01*
G01*
X85173291Y-70730457D02*
G75*
G02*
X85425549Y-70662158I252261J-431710D01*
G01*
X85425548Y-67662158D02*
G75*
G02*
X85173290Y-67593859I3J500009D01*
G01*
X87014453Y-70662158D02*
G75*
G02*
X87266712Y-70730457I-3J-500012D01*
G01*
X87266712Y-67593860D02*
G75*
G02*
X87014454Y-67662160I-252262J431710D01*
G01*
X87266712Y-67593860D02*
G75*
G02*
X87969484Y-68242438I252258J-431700D01*
G01*
X87920000Y-68459315D02*
G75*
G02*
X87969479Y-68242435I500000J15D01*
G01*
X87969485Y-70081877D02*
G75*
G02*
X87266712Y-70730457I-450514J-216880D01*
G01*
X87969485Y-70081878D02*
G75*
G02*
X87920000Y-69865000I450515J216878D01*
G01*
%TO.C,D94*%
X38000001Y-69982842D02*
X38000001Y-68577158D01*
X38905548Y-67780001D02*
X40494453Y-67780001D01*
X40494452Y-70780000D02*
X38905548Y-70780000D01*
X41399999Y-68577158D02*
X41399999Y-69982842D01*
X37950516Y-68360280D02*
G75*
G02*
X38000001Y-68577158I-450505J-216876D01*
G01*
X37950516Y-68360280D02*
G75*
G02*
X38653289Y-67711701I450515J216878D01*
G01*
X38000001Y-69982843D02*
G75*
G02*
X37950516Y-70199720I-499990J-1D01*
G01*
X38653289Y-70848297D02*
G75*
G02*
X37950516Y-70199720I-252258J431700D01*
G01*
X38653290Y-70848299D02*
G75*
G02*
X38905548Y-70780000I252261J-431710D01*
G01*
X38905547Y-67780000D02*
G75*
G02*
X38653289Y-67711701I3J500009D01*
G01*
X40494452Y-70780000D02*
G75*
G02*
X40746711Y-70848299I-3J-500012D01*
G01*
X40746711Y-67711702D02*
G75*
G02*
X40494453Y-67780002I-252262J431710D01*
G01*
X40746711Y-67711702D02*
G75*
G02*
X41449483Y-68360280I252258J-431700D01*
G01*
X41399999Y-68577157D02*
G75*
G02*
X41449478Y-68360277I500000J15D01*
G01*
X41449484Y-70199719D02*
G75*
G02*
X40746711Y-70848299I-450514J-216880D01*
G01*
X41449484Y-70199720D02*
G75*
G02*
X41399999Y-69982842I450515J216878D01*
G01*
%TO.C,D95*%
X65430002Y-69895000D02*
X65430002Y-68489316D01*
X66335549Y-67692159D02*
X67924454Y-67692159D01*
X67924453Y-70692158D02*
X66335549Y-70692158D01*
X68830000Y-68489316D02*
X68830000Y-69895000D01*
X65380517Y-68272438D02*
G75*
G02*
X65430002Y-68489316I-450505J-216876D01*
G01*
X65380517Y-68272438D02*
G75*
G02*
X66083290Y-67623859I450515J216878D01*
G01*
X65430002Y-69895001D02*
G75*
G02*
X65380517Y-70111878I-499990J-1D01*
G01*
X66083290Y-70760455D02*
G75*
G02*
X65380517Y-70111878I-252258J431700D01*
G01*
X66083291Y-70760457D02*
G75*
G02*
X66335549Y-70692158I252261J-431710D01*
G01*
X66335548Y-67692158D02*
G75*
G02*
X66083290Y-67623859I3J500009D01*
G01*
X67924453Y-70692158D02*
G75*
G02*
X68176712Y-70760457I-3J-500012D01*
G01*
X68176712Y-67623860D02*
G75*
G02*
X67924454Y-67692160I-252262J431710D01*
G01*
X68176712Y-67623860D02*
G75*
G02*
X68879484Y-68272438I252258J-431700D01*
G01*
X68830000Y-68489315D02*
G75*
G02*
X68879479Y-68272435I500000J15D01*
G01*
X68879485Y-70111877D02*
G75*
G02*
X68176712Y-70760457I-450514J-216880D01*
G01*
X68879485Y-70111878D02*
G75*
G02*
X68830000Y-69895000I450515J216878D01*
G01*
%TO.C,D124*%
X292020001Y-72442842D02*
X292020001Y-71037158D01*
X292925548Y-70240001D02*
X294514453Y-70240001D01*
X294514452Y-73240000D02*
X292925548Y-73240000D01*
X295419999Y-71037158D02*
X295419999Y-72442842D01*
X291970516Y-70820280D02*
G75*
G02*
X292020001Y-71037158I-450505J-216876D01*
G01*
X291970516Y-70820280D02*
G75*
G02*
X292673289Y-70171701I450515J216878D01*
G01*
X292020001Y-72442843D02*
G75*
G02*
X291970516Y-72659720I-499990J-1D01*
G01*
X292673289Y-73308297D02*
G75*
G02*
X291970516Y-72659720I-252258J431700D01*
G01*
X292673290Y-73308299D02*
G75*
G02*
X292925548Y-73240000I252261J-431710D01*
G01*
X292925547Y-70240000D02*
G75*
G02*
X292673289Y-70171701I3J500009D01*
G01*
X294514452Y-73240000D02*
G75*
G02*
X294766711Y-73308299I-3J-500012D01*
G01*
X294766711Y-70171702D02*
G75*
G02*
X294514453Y-70240002I-252262J431710D01*
G01*
X294766711Y-70171702D02*
G75*
G02*
X295469483Y-70820280I252258J-431700D01*
G01*
X295419999Y-71037157D02*
G75*
G02*
X295469478Y-70820277I500000J15D01*
G01*
X295469484Y-72659719D02*
G75*
G02*
X294766711Y-73308299I-450514J-216880D01*
G01*
X295469484Y-72659720D02*
G75*
G02*
X295419999Y-72442842I450515J216878D01*
G01*
%TO.C,D84*%
X167880002Y-31695000D02*
X167880002Y-30289316D01*
X168785549Y-29492159D02*
X170374454Y-29492159D01*
X170374453Y-32492158D02*
X168785549Y-32492158D01*
X171280000Y-30289316D02*
X171280000Y-31695000D01*
X167830517Y-30072438D02*
G75*
G02*
X167880002Y-30289316I-450505J-216876D01*
G01*
X167830517Y-30072438D02*
G75*
G02*
X168533290Y-29423859I450515J216878D01*
G01*
X167880002Y-31695001D02*
G75*
G02*
X167830517Y-31911878I-499990J-1D01*
G01*
X168533290Y-32560455D02*
G75*
G02*
X167830517Y-31911878I-252258J431700D01*
G01*
X168533291Y-32560457D02*
G75*
G02*
X168785549Y-32492158I252261J-431710D01*
G01*
X168785548Y-29492158D02*
G75*
G02*
X168533290Y-29423859I3J500009D01*
G01*
X170374453Y-32492158D02*
G75*
G02*
X170626712Y-32560457I-3J-500012D01*
G01*
X170626712Y-29423860D02*
G75*
G02*
X170374454Y-29492160I-252262J431710D01*
G01*
X170626712Y-29423860D02*
G75*
G02*
X171329484Y-30072438I252258J-431700D01*
G01*
X171280000Y-30289315D02*
G75*
G02*
X171329479Y-30072435I500000J15D01*
G01*
X171329485Y-31911877D02*
G75*
G02*
X170626712Y-32560457I-450514J-216880D01*
G01*
X171329485Y-31911878D02*
G75*
G02*
X171280000Y-31695000I450515J216878D01*
G01*
%TO.C,D83*%
X148550002Y-31655000D02*
X148550002Y-30249316D01*
X149455549Y-29452159D02*
X151044454Y-29452159D01*
X151044453Y-32452158D02*
X149455549Y-32452158D01*
X151950000Y-30249316D02*
X151950000Y-31655000D01*
X148500517Y-30032438D02*
G75*
G02*
X148550002Y-30249316I-450505J-216876D01*
G01*
X148500517Y-30032438D02*
G75*
G02*
X149203290Y-29383859I450515J216878D01*
G01*
X148550002Y-31655001D02*
G75*
G02*
X148500517Y-31871878I-499990J-1D01*
G01*
X149203290Y-32520455D02*
G75*
G02*
X148500517Y-31871878I-252258J431700D01*
G01*
X149203291Y-32520457D02*
G75*
G02*
X149455549Y-32452158I252261J-431710D01*
G01*
X149455548Y-29452158D02*
G75*
G02*
X149203290Y-29383859I3J500009D01*
G01*
X151044453Y-32452158D02*
G75*
G02*
X151296712Y-32520457I-3J-500012D01*
G01*
X151296712Y-29383860D02*
G75*
G02*
X151044454Y-29452160I-252262J431710D01*
G01*
X151296712Y-29383860D02*
G75*
G02*
X151999484Y-30032438I252258J-431700D01*
G01*
X151950000Y-30249315D02*
G75*
G02*
X151999479Y-30032435I500000J15D01*
G01*
X151999485Y-31871877D02*
G75*
G02*
X151296712Y-32520457I-450514J-216880D01*
G01*
X151999485Y-31871878D02*
G75*
G02*
X151950000Y-31655000I450515J216878D01*
G01*
%TO.C,D40*%
X50380001Y-89000000D02*
X50380001Y-87594316D01*
X51285548Y-86797159D02*
X52874453Y-86797159D01*
X52874452Y-89797158D02*
X51285548Y-89797158D01*
X53779999Y-87594316D02*
X53779999Y-89000000D01*
X50330516Y-87377438D02*
G75*
G02*
X50380001Y-87594316I-450505J-216876D01*
G01*
X50330516Y-87377438D02*
G75*
G02*
X51033289Y-86728859I450515J216878D01*
G01*
X50380001Y-89000001D02*
G75*
G02*
X50330516Y-89216878I-499990J-1D01*
G01*
X51033289Y-89865455D02*
G75*
G02*
X50330516Y-89216878I-252258J431700D01*
G01*
X51033290Y-89865457D02*
G75*
G02*
X51285548Y-89797158I252261J-431710D01*
G01*
X51285547Y-86797158D02*
G75*
G02*
X51033289Y-86728859I3J500009D01*
G01*
X52874452Y-89797158D02*
G75*
G02*
X53126711Y-89865457I-3J-500012D01*
G01*
X53126711Y-86728860D02*
G75*
G02*
X52874453Y-86797160I-252262J431710D01*
G01*
X53126711Y-86728860D02*
G75*
G02*
X53829483Y-87377438I252258J-431700D01*
G01*
X53779999Y-87594315D02*
G75*
G02*
X53829478Y-87377435I500000J15D01*
G01*
X53829484Y-89216877D02*
G75*
G02*
X53126711Y-89865457I-450514J-216880D01*
G01*
X53829484Y-89216878D02*
G75*
G02*
X53779999Y-89000000I450515J216878D01*
G01*
%TO.C,D35*%
X65650002Y-89080000D02*
X65650002Y-87674316D01*
X66555549Y-86877159D02*
X68144454Y-86877159D01*
X68144453Y-89877158D02*
X66555549Y-89877158D01*
X69050000Y-87674316D02*
X69050000Y-89080000D01*
X65600517Y-87457438D02*
G75*
G02*
X65650002Y-87674316I-450505J-216876D01*
G01*
X65600517Y-87457438D02*
G75*
G02*
X66303290Y-86808859I450515J216878D01*
G01*
X65650002Y-89080001D02*
G75*
G02*
X65600517Y-89296878I-499990J-1D01*
G01*
X66303290Y-89945455D02*
G75*
G02*
X65600517Y-89296878I-252258J431700D01*
G01*
X66303291Y-89945457D02*
G75*
G02*
X66555549Y-89877158I252261J-431710D01*
G01*
X66555548Y-86877158D02*
G75*
G02*
X66303290Y-86808859I3J500009D01*
G01*
X68144453Y-89877158D02*
G75*
G02*
X68396712Y-89945457I-3J-500012D01*
G01*
X68396712Y-86808860D02*
G75*
G02*
X68144454Y-86877160I-252262J431710D01*
G01*
X68396712Y-86808860D02*
G75*
G02*
X69099484Y-87457438I252258J-431700D01*
G01*
X69050000Y-87674315D02*
G75*
G02*
X69099479Y-87457435I500000J15D01*
G01*
X69099485Y-89296877D02*
G75*
G02*
X68396712Y-89945457I-450514J-216880D01*
G01*
X69099485Y-89296878D02*
G75*
G02*
X69050000Y-89080000I450515J216878D01*
G01*
%TO.C,D105*%
X232090002Y-50705000D02*
X232090002Y-49299316D01*
X232995549Y-48502159D02*
X234584454Y-48502159D01*
X234584453Y-51502158D02*
X232995549Y-51502158D01*
X235490000Y-49299316D02*
X235490000Y-50705000D01*
X232040517Y-49082438D02*
G75*
G02*
X232090002Y-49299316I-450505J-216876D01*
G01*
X232040517Y-49082438D02*
G75*
G02*
X232743290Y-48433859I450515J216878D01*
G01*
X232090002Y-50705001D02*
G75*
G02*
X232040517Y-50921878I-499990J-1D01*
G01*
X232743290Y-51570455D02*
G75*
G02*
X232040517Y-50921878I-252258J431700D01*
G01*
X232743291Y-51570457D02*
G75*
G02*
X232995549Y-51502158I252261J-431710D01*
G01*
X232995548Y-48502158D02*
G75*
G02*
X232743290Y-48433859I3J500009D01*
G01*
X234584453Y-51502158D02*
G75*
G02*
X234836712Y-51570457I-3J-500012D01*
G01*
X234836712Y-48433860D02*
G75*
G02*
X234584454Y-48502160I-252262J431710D01*
G01*
X234836712Y-48433860D02*
G75*
G02*
X235539484Y-49082438I252258J-431700D01*
G01*
X235490000Y-49299315D02*
G75*
G02*
X235539479Y-49082435I500000J15D01*
G01*
X235539485Y-50921877D02*
G75*
G02*
X234836712Y-51570457I-450514J-216880D01*
G01*
X235539485Y-50921878D02*
G75*
G02*
X235490000Y-50705000I450515J216878D01*
G01*
%TO.C,D127*%
X103540002Y-69995000D02*
X103540002Y-68589316D01*
X104445549Y-67792159D02*
X106034454Y-67792159D01*
X106034453Y-70792158D02*
X104445549Y-70792158D01*
X106940000Y-68589316D02*
X106940000Y-69995000D01*
X103490517Y-68372438D02*
G75*
G02*
X103540002Y-68589316I-450505J-216876D01*
G01*
X103490517Y-68372438D02*
G75*
G02*
X104193290Y-67723859I450515J216878D01*
G01*
X103540002Y-69995001D02*
G75*
G02*
X103490517Y-70211878I-499990J-1D01*
G01*
X104193290Y-70860455D02*
G75*
G02*
X103490517Y-70211878I-252258J431700D01*
G01*
X104193291Y-70860457D02*
G75*
G02*
X104445549Y-70792158I252261J-431710D01*
G01*
X104445548Y-67792158D02*
G75*
G02*
X104193290Y-67723859I3J500009D01*
G01*
X106034453Y-70792158D02*
G75*
G02*
X106286712Y-70860457I-3J-500012D01*
G01*
X106286712Y-67723860D02*
G75*
G02*
X106034454Y-67792160I-252262J431710D01*
G01*
X106286712Y-67723860D02*
G75*
G02*
X106989484Y-68372438I252258J-431700D01*
G01*
X106940000Y-68589315D02*
G75*
G02*
X106989479Y-68372435I500000J15D01*
G01*
X106989485Y-70211877D02*
G75*
G02*
X106286712Y-70860457I-450514J-216880D01*
G01*
X106989485Y-70211878D02*
G75*
G02*
X106940000Y-69995000I450515J216878D01*
G01*
%TO.C,D121*%
X217950002Y-70145000D02*
X217950002Y-68739316D01*
X218855549Y-67942159D02*
X220444454Y-67942159D01*
X220444453Y-70942158D02*
X218855549Y-70942158D01*
X221350000Y-68739316D02*
X221350000Y-70145000D01*
X217900517Y-68522438D02*
G75*
G02*
X217950002Y-68739316I-450505J-216876D01*
G01*
X217900517Y-68522438D02*
G75*
G02*
X218603290Y-67873859I450515J216878D01*
G01*
X217950002Y-70145001D02*
G75*
G02*
X217900517Y-70361878I-499990J-1D01*
G01*
X218603290Y-71010455D02*
G75*
G02*
X217900517Y-70361878I-252258J431700D01*
G01*
X218603291Y-71010457D02*
G75*
G02*
X218855549Y-70942158I252261J-431710D01*
G01*
X218855548Y-67942158D02*
G75*
G02*
X218603290Y-67873859I3J500009D01*
G01*
X220444453Y-70942158D02*
G75*
G02*
X220696712Y-71010457I-3J-500012D01*
G01*
X220696712Y-67873860D02*
G75*
G02*
X220444454Y-67942160I-252262J431710D01*
G01*
X220696712Y-67873860D02*
G75*
G02*
X221399484Y-68522438I252258J-431700D01*
G01*
X221350000Y-68739315D02*
G75*
G02*
X221399479Y-68522435I500000J15D01*
G01*
X221399485Y-70361877D02*
G75*
G02*
X220696712Y-71010457I-450514J-216880D01*
G01*
X221399485Y-70361878D02*
G75*
G02*
X221350000Y-70145000I450515J216878D01*
G01*
%TO.C,D102*%
X60520002Y-50895000D02*
X60520002Y-49489316D01*
X61425549Y-48692159D02*
X63014454Y-48692159D01*
X63014453Y-51692158D02*
X61425549Y-51692158D01*
X63920000Y-49489316D02*
X63920000Y-50895000D01*
X60470517Y-49272438D02*
G75*
G02*
X60520002Y-49489316I-450505J-216876D01*
G01*
X60470517Y-49272438D02*
G75*
G02*
X61173290Y-48623859I450515J216878D01*
G01*
X60520002Y-50895001D02*
G75*
G02*
X60470517Y-51111878I-499990J-1D01*
G01*
X61173290Y-51760455D02*
G75*
G02*
X60470517Y-51111878I-252258J431700D01*
G01*
X61173291Y-51760457D02*
G75*
G02*
X61425549Y-51692158I252261J-431710D01*
G01*
X61425548Y-48692158D02*
G75*
G02*
X61173290Y-48623859I3J500009D01*
G01*
X63014453Y-51692158D02*
G75*
G02*
X63266712Y-51760457I-3J-500012D01*
G01*
X63266712Y-48623860D02*
G75*
G02*
X63014454Y-48692160I-252262J431710D01*
G01*
X63266712Y-48623860D02*
G75*
G02*
X63969484Y-49272438I252258J-431700D01*
G01*
X63920000Y-49489315D02*
G75*
G02*
X63969479Y-49272435I500000J15D01*
G01*
X63969485Y-51111877D02*
G75*
G02*
X63266712Y-51760457I-450514J-216880D01*
G01*
X63969485Y-51111878D02*
G75*
G02*
X63920000Y-50895000I450515J216878D01*
G01*
%TO.C,D82*%
X129560002Y-31780000D02*
X129560002Y-30374316D01*
X130465549Y-29577159D02*
X132054454Y-29577159D01*
X132054453Y-32577158D02*
X130465549Y-32577158D01*
X132960000Y-30374316D02*
X132960000Y-31780000D01*
X129510517Y-30157438D02*
G75*
G02*
X129560002Y-30374316I-450505J-216876D01*
G01*
X129510517Y-30157438D02*
G75*
G02*
X130213290Y-29508859I450515J216878D01*
G01*
X129560002Y-31780001D02*
G75*
G02*
X129510517Y-31996878I-499990J-1D01*
G01*
X130213290Y-32645455D02*
G75*
G02*
X129510517Y-31996878I-252258J431700D01*
G01*
X130213291Y-32645457D02*
G75*
G02*
X130465549Y-32577158I252261J-431710D01*
G01*
X130465548Y-29577158D02*
G75*
G02*
X130213290Y-29508859I3J500009D01*
G01*
X132054453Y-32577158D02*
G75*
G02*
X132306712Y-32645457I-3J-500012D01*
G01*
X132306712Y-29508860D02*
G75*
G02*
X132054454Y-29577160I-252262J431710D01*
G01*
X132306712Y-29508860D02*
G75*
G02*
X133009484Y-30157438I252258J-431700D01*
G01*
X132960000Y-30374315D02*
G75*
G02*
X133009479Y-30157435I500000J15D01*
G01*
X133009485Y-31996877D02*
G75*
G02*
X132306712Y-32645457I-450514J-216880D01*
G01*
X133009485Y-31996878D02*
G75*
G02*
X132960000Y-31780000I450515J216878D01*
G01*
%TO.C,D125*%
X291880001Y-87892842D02*
X291880001Y-86487158D01*
X292785548Y-85690001D02*
X294374453Y-85690001D01*
X294374452Y-88690000D02*
X292785548Y-88690000D01*
X295279999Y-86487158D02*
X295279999Y-87892842D01*
X291830516Y-86270280D02*
G75*
G02*
X291880001Y-86487158I-450505J-216876D01*
G01*
X291830516Y-86270280D02*
G75*
G02*
X292533289Y-85621701I450515J216878D01*
G01*
X291880001Y-87892843D02*
G75*
G02*
X291830516Y-88109720I-499990J-1D01*
G01*
X292533289Y-88758297D02*
G75*
G02*
X291830516Y-88109720I-252258J431700D01*
G01*
X292533290Y-88758299D02*
G75*
G02*
X292785548Y-88690000I252261J-431710D01*
G01*
X292785547Y-85690000D02*
G75*
G02*
X292533289Y-85621701I3J500009D01*
G01*
X294374452Y-88690000D02*
G75*
G02*
X294626711Y-88758299I-3J-500012D01*
G01*
X294626711Y-85621702D02*
G75*
G02*
X294374453Y-85690002I-252262J431710D01*
G01*
X294626711Y-85621702D02*
G75*
G02*
X295329483Y-86270280I252258J-431700D01*
G01*
X295279999Y-86487157D02*
G75*
G02*
X295329478Y-86270277I500000J15D01*
G01*
X295329484Y-88109719D02*
G75*
G02*
X294626711Y-88758299I-450514J-216880D01*
G01*
X295329484Y-88109720D02*
G75*
G02*
X295279999Y-87892842I450515J216878D01*
G01*
%TO.C,D90*%
X53640002Y-31695000D02*
X53640002Y-30289316D01*
X54545549Y-29492159D02*
X56134454Y-29492159D01*
X56134453Y-32492158D02*
X54545549Y-32492158D01*
X57040000Y-30289316D02*
X57040000Y-31695000D01*
X53590517Y-30072438D02*
G75*
G02*
X53640002Y-30289316I-450505J-216876D01*
G01*
X53590517Y-30072438D02*
G75*
G02*
X54293290Y-29423859I450515J216878D01*
G01*
X53640002Y-31695001D02*
G75*
G02*
X53590517Y-31911878I-499990J-1D01*
G01*
X54293290Y-32560455D02*
G75*
G02*
X53590517Y-31911878I-252258J431700D01*
G01*
X54293291Y-32560457D02*
G75*
G02*
X54545549Y-32492158I252261J-431710D01*
G01*
X54545548Y-29492158D02*
G75*
G02*
X54293290Y-29423859I3J500009D01*
G01*
X56134453Y-32492158D02*
G75*
G02*
X56386712Y-32560457I-3J-500012D01*
G01*
X56386712Y-29423860D02*
G75*
G02*
X56134454Y-29492160I-252262J431710D01*
G01*
X56386712Y-29423860D02*
G75*
G02*
X57089484Y-30072438I252258J-431700D01*
G01*
X57040000Y-30289315D02*
G75*
G02*
X57089479Y-30072435I500000J15D01*
G01*
X57089485Y-31911877D02*
G75*
G02*
X56386712Y-32560457I-450514J-216880D01*
G01*
X57089485Y-31911878D02*
G75*
G02*
X57040000Y-31695000I450515J216878D01*
G01*
%TO.C,D92*%
X14150001Y-51572842D02*
X14150001Y-50167158D01*
X15055548Y-49370001D02*
X16644453Y-49370001D01*
X16644452Y-52370000D02*
X15055548Y-52370000D01*
X17549999Y-50167158D02*
X17549999Y-51572842D01*
X14100516Y-49950280D02*
G75*
G02*
X14150001Y-50167158I-450505J-216876D01*
G01*
X14100516Y-49950280D02*
G75*
G02*
X14803289Y-49301701I450515J216878D01*
G01*
X14150001Y-51572843D02*
G75*
G02*
X14100516Y-51789720I-499990J-1D01*
G01*
X14803289Y-52438297D02*
G75*
G02*
X14100516Y-51789720I-252258J431700D01*
G01*
X14803290Y-52438299D02*
G75*
G02*
X15055548Y-52370000I252261J-431710D01*
G01*
X15055547Y-49370000D02*
G75*
G02*
X14803289Y-49301701I3J500009D01*
G01*
X16644452Y-52370000D02*
G75*
G02*
X16896711Y-52438299I-3J-500012D01*
G01*
X16896711Y-49301702D02*
G75*
G02*
X16644453Y-49370002I-252262J431710D01*
G01*
X16896711Y-49301702D02*
G75*
G02*
X17599483Y-49950280I252258J-431700D01*
G01*
X17549999Y-50167157D02*
G75*
G02*
X17599478Y-49950277I500000J15D01*
G01*
X17599484Y-51789719D02*
G75*
G02*
X16896711Y-52438299I-450514J-216880D01*
G01*
X17599484Y-51789720D02*
G75*
G02*
X17549999Y-51572842I450515J216878D01*
G01*
%TO.C,D70*%
X110460002Y-12985000D02*
X110460002Y-11579316D01*
X111365549Y-10782159D02*
X112954454Y-10782159D01*
X112954453Y-13782158D02*
X111365549Y-13782158D01*
X113860000Y-11579316D02*
X113860000Y-12985000D01*
X110410517Y-11362438D02*
G75*
G02*
X110460002Y-11579316I-450505J-216876D01*
G01*
X110410517Y-11362438D02*
G75*
G02*
X111113290Y-10713859I450515J216878D01*
G01*
X110460002Y-12985001D02*
G75*
G02*
X110410517Y-13201878I-499990J-1D01*
G01*
X111113290Y-13850455D02*
G75*
G02*
X110410517Y-13201878I-252258J431700D01*
G01*
X111113291Y-13850457D02*
G75*
G02*
X111365549Y-13782158I252261J-431710D01*
G01*
X111365548Y-10782158D02*
G75*
G02*
X111113290Y-10713859I3J500009D01*
G01*
X112954453Y-13782158D02*
G75*
G02*
X113206712Y-13850457I-3J-500012D01*
G01*
X113206712Y-10713860D02*
G75*
G02*
X112954454Y-10782160I-252262J431710D01*
G01*
X113206712Y-10713860D02*
G75*
G02*
X113909484Y-11362438I252258J-431700D01*
G01*
X113860000Y-11579315D02*
G75*
G02*
X113909479Y-11362435I500000J15D01*
G01*
X113909485Y-13201877D02*
G75*
G02*
X113206712Y-13850457I-450514J-216880D01*
G01*
X113909485Y-13201878D02*
G75*
G02*
X113860000Y-12985000I450515J216878D01*
G01*
%TO.C,D47*%
X13980001Y-89085000D02*
X13980001Y-87679316D01*
X14885548Y-86882159D02*
X16474453Y-86882159D01*
X16474452Y-89882158D02*
X14885548Y-89882158D01*
X17379999Y-87679316D02*
X17379999Y-89085000D01*
X13930516Y-87462438D02*
G75*
G02*
X13980001Y-87679316I-450505J-216876D01*
G01*
X13930516Y-87462438D02*
G75*
G02*
X14633289Y-86813859I450515J216878D01*
G01*
X13980001Y-89085001D02*
G75*
G02*
X13930516Y-89301878I-499990J-1D01*
G01*
X14633289Y-89950455D02*
G75*
G02*
X13930516Y-89301878I-252258J431700D01*
G01*
X14633290Y-89950457D02*
G75*
G02*
X14885548Y-89882158I252261J-431710D01*
G01*
X14885547Y-86882158D02*
G75*
G02*
X14633289Y-86813859I3J500009D01*
G01*
X16474452Y-89882158D02*
G75*
G02*
X16726711Y-89950457I-3J-500012D01*
G01*
X16726711Y-86813860D02*
G75*
G02*
X16474453Y-86882160I-252262J431710D01*
G01*
X16726711Y-86813860D02*
G75*
G02*
X17429483Y-87462438I252258J-431700D01*
G01*
X17379999Y-87679315D02*
G75*
G02*
X17429478Y-87462435I500000J15D01*
G01*
X17429484Y-89301877D02*
G75*
G02*
X16726711Y-89950457I-450514J-216880D01*
G01*
X17429484Y-89301878D02*
G75*
G02*
X17379999Y-89085000I450515J216878D01*
G01*
%TO.C,D77*%
X91390002Y-12975000D02*
X91390002Y-11569316D01*
X92295549Y-10772159D02*
X93884454Y-10772159D01*
X93884453Y-13772158D02*
X92295549Y-13772158D01*
X94790000Y-11569316D02*
X94790000Y-12975000D01*
X91340517Y-11352438D02*
G75*
G02*
X91390002Y-11569316I-450505J-216876D01*
G01*
X91340517Y-11352438D02*
G75*
G02*
X92043290Y-10703859I450515J216878D01*
G01*
X91390002Y-12975001D02*
G75*
G02*
X91340517Y-13191878I-499990J-1D01*
G01*
X92043290Y-13840455D02*
G75*
G02*
X91340517Y-13191878I-252258J431700D01*
G01*
X92043291Y-13840457D02*
G75*
G02*
X92295549Y-13772158I252261J-431710D01*
G01*
X92295548Y-10772158D02*
G75*
G02*
X92043290Y-10703859I3J500009D01*
G01*
X93884453Y-13772158D02*
G75*
G02*
X94136712Y-13840457I-3J-500012D01*
G01*
X94136712Y-10703860D02*
G75*
G02*
X93884454Y-10772160I-252262J431710D01*
G01*
X94136712Y-10703860D02*
G75*
G02*
X94839484Y-11352438I252258J-431700D01*
G01*
X94790000Y-11569315D02*
G75*
G02*
X94839479Y-11352435I500000J15D01*
G01*
X94839485Y-13191877D02*
G75*
G02*
X94136712Y-13840457I-450514J-216880D01*
G01*
X94839485Y-13191878D02*
G75*
G02*
X94790000Y-12975000I450515J216878D01*
G01*
%TO.C,D137*%
X225420001Y-105762842D02*
X225420001Y-104357158D01*
X226325548Y-103560001D02*
X227914453Y-103560001D01*
X227914452Y-106560000D02*
X226325548Y-106560000D01*
X228819999Y-104357158D02*
X228819999Y-105762842D01*
X225370516Y-104140280D02*
G75*
G02*
X225420001Y-104357158I-450505J-216876D01*
G01*
X225370516Y-104140280D02*
G75*
G02*
X226073289Y-103491701I450515J216878D01*
G01*
X225420001Y-105762843D02*
G75*
G02*
X225370516Y-105979720I-499990J-1D01*
G01*
X226073289Y-106628297D02*
G75*
G02*
X225370516Y-105979720I-252258J431700D01*
G01*
X226073290Y-106628299D02*
G75*
G02*
X226325548Y-106560000I252261J-431710D01*
G01*
X226325547Y-103560000D02*
G75*
G02*
X226073289Y-103491701I3J500009D01*
G01*
X227914452Y-106560000D02*
G75*
G02*
X228166711Y-106628299I-3J-500012D01*
G01*
X228166711Y-103491702D02*
G75*
G02*
X227914453Y-103560002I-252262J431710D01*
G01*
X228166711Y-103491702D02*
G75*
G02*
X228869483Y-104140280I252258J-431700D01*
G01*
X228819999Y-104357157D02*
G75*
G02*
X228869478Y-104140277I500000J15D01*
G01*
X228869484Y-105979719D02*
G75*
G02*
X228166711Y-106628299I-450514J-216880D01*
G01*
X228869484Y-105979720D02*
G75*
G02*
X228819999Y-105762842I450515J216878D01*
G01*
%TO.C,D100*%
X98800002Y-50835000D02*
X98800002Y-49429316D01*
X99705549Y-48632159D02*
X101294454Y-48632159D01*
X101294453Y-51632158D02*
X99705549Y-51632158D01*
X102200000Y-49429316D02*
X102200000Y-50835000D01*
X98750517Y-49212438D02*
G75*
G02*
X98800002Y-49429316I-450505J-216876D01*
G01*
X98750517Y-49212438D02*
G75*
G02*
X99453290Y-48563859I450515J216878D01*
G01*
X98800002Y-50835001D02*
G75*
G02*
X98750517Y-51051878I-499990J-1D01*
G01*
X99453290Y-51700455D02*
G75*
G02*
X98750517Y-51051878I-252258J431700D01*
G01*
X99453291Y-51700457D02*
G75*
G02*
X99705549Y-51632158I252261J-431710D01*
G01*
X99705548Y-48632158D02*
G75*
G02*
X99453290Y-48563859I3J500009D01*
G01*
X101294453Y-51632158D02*
G75*
G02*
X101546712Y-51700457I-3J-500012D01*
G01*
X101546712Y-48563860D02*
G75*
G02*
X101294454Y-48632160I-252262J431710D01*
G01*
X101546712Y-48563860D02*
G75*
G02*
X102249484Y-49212438I252258J-431700D01*
G01*
X102200000Y-49429315D02*
G75*
G02*
X102249479Y-49212435I500000J15D01*
G01*
X102249485Y-51051877D02*
G75*
G02*
X101546712Y-51700457I-450514J-216880D01*
G01*
X102249485Y-51051878D02*
G75*
G02*
X102200000Y-50835000I450515J216878D01*
G01*
%TO.C,D46*%
X33982686Y-89390000D02*
X33982686Y-87984316D01*
X34888233Y-87187159D02*
X36477138Y-87187159D01*
X36477137Y-90187158D02*
X34888233Y-90187158D01*
X37382684Y-87984316D02*
X37382684Y-89390000D01*
X33933201Y-87767438D02*
G75*
G02*
X33982686Y-87984316I-450505J-216876D01*
G01*
X33933201Y-87767438D02*
G75*
G02*
X34635974Y-87118859I450515J216878D01*
G01*
X33982686Y-89390001D02*
G75*
G02*
X33933201Y-89606878I-499990J-1D01*
G01*
X34635974Y-90255455D02*
G75*
G02*
X33933201Y-89606878I-252258J431700D01*
G01*
X34635975Y-90255457D02*
G75*
G02*
X34888233Y-90187158I252261J-431710D01*
G01*
X34888232Y-87187158D02*
G75*
G02*
X34635974Y-87118859I3J500009D01*
G01*
X36477137Y-90187158D02*
G75*
G02*
X36729396Y-90255457I-3J-500012D01*
G01*
X36729396Y-87118860D02*
G75*
G02*
X36477138Y-87187160I-252262J431710D01*
G01*
X36729396Y-87118860D02*
G75*
G02*
X37432168Y-87767438I252258J-431700D01*
G01*
X37382684Y-87984315D02*
G75*
G02*
X37432163Y-87767435I500000J15D01*
G01*
X37432169Y-89606877D02*
G75*
G02*
X36729396Y-90255457I-450514J-216880D01*
G01*
X37432169Y-89606878D02*
G75*
G02*
X37382684Y-89390000I450515J216878D01*
G01*
%TO.C,D128*%
X122610002Y-69985000D02*
X122610002Y-68579316D01*
X123515549Y-67782159D02*
X125104454Y-67782159D01*
X125104453Y-70782158D02*
X123515549Y-70782158D01*
X126010000Y-68579316D02*
X126010000Y-69985000D01*
X122560517Y-68362438D02*
G75*
G02*
X122610002Y-68579316I-450505J-216876D01*
G01*
X122560517Y-68362438D02*
G75*
G02*
X123263290Y-67713859I450515J216878D01*
G01*
X122610002Y-69985001D02*
G75*
G02*
X122560517Y-70201878I-499990J-1D01*
G01*
X123263290Y-70850455D02*
G75*
G02*
X122560517Y-70201878I-252258J431700D01*
G01*
X123263291Y-70850457D02*
G75*
G02*
X123515549Y-70782158I252261J-431710D01*
G01*
X123515548Y-67782158D02*
G75*
G02*
X123263290Y-67713859I3J500009D01*
G01*
X125104453Y-70782158D02*
G75*
G02*
X125356712Y-70850457I-3J-500012D01*
G01*
X125356712Y-67713860D02*
G75*
G02*
X125104454Y-67782160I-252262J431710D01*
G01*
X125356712Y-67713860D02*
G75*
G02*
X126059484Y-68362438I252258J-431700D01*
G01*
X126010000Y-68579315D02*
G75*
G02*
X126059479Y-68362435I500000J15D01*
G01*
X126059485Y-70201877D02*
G75*
G02*
X125356712Y-70850457I-450514J-216880D01*
G01*
X126059485Y-70201878D02*
G75*
G02*
X126010000Y-69985000I450515J216878D01*
G01*
%TO.C,D109*%
X186880002Y-31775000D02*
X186880002Y-30369316D01*
X187785549Y-29572159D02*
X189374454Y-29572159D01*
X189374453Y-32572158D02*
X187785549Y-32572158D01*
X190280000Y-30369316D02*
X190280000Y-31775000D01*
X186830517Y-30152438D02*
G75*
G02*
X186880002Y-30369316I-450505J-216876D01*
G01*
X186830517Y-30152438D02*
G75*
G02*
X187533290Y-29503859I450515J216878D01*
G01*
X186880002Y-31775001D02*
G75*
G02*
X186830517Y-31991878I-499990J-1D01*
G01*
X187533290Y-32640455D02*
G75*
G02*
X186830517Y-31991878I-252258J431700D01*
G01*
X187533291Y-32640457D02*
G75*
G02*
X187785549Y-32572158I252261J-431710D01*
G01*
X187785548Y-29572158D02*
G75*
G02*
X187533290Y-29503859I3J500009D01*
G01*
X189374453Y-32572158D02*
G75*
G02*
X189626712Y-32640457I-3J-500012D01*
G01*
X189626712Y-29503860D02*
G75*
G02*
X189374454Y-29572160I-252262J431710D01*
G01*
X189626712Y-29503860D02*
G75*
G02*
X190329484Y-30152438I252258J-431700D01*
G01*
X190280000Y-30369315D02*
G75*
G02*
X190329479Y-30152435I500000J15D01*
G01*
X190329485Y-31991877D02*
G75*
G02*
X189626712Y-32640457I-450514J-216880D01*
G01*
X190329485Y-31991878D02*
G75*
G02*
X190280000Y-31775000I450515J216878D01*
G01*
%TO.C,D116*%
X204130002Y-89142842D02*
X204130002Y-87737158D01*
X205035549Y-86940001D02*
X206624454Y-86940001D01*
X206624453Y-89940000D02*
X205035549Y-89940000D01*
X207530000Y-87737158D02*
X207530000Y-89142842D01*
X204080517Y-87520280D02*
G75*
G02*
X204130002Y-87737158I-450505J-216876D01*
G01*
X204080517Y-87520280D02*
G75*
G02*
X204783290Y-86871701I450515J216878D01*
G01*
X204130002Y-89142843D02*
G75*
G02*
X204080517Y-89359720I-499990J-1D01*
G01*
X204783290Y-90008297D02*
G75*
G02*
X204080517Y-89359720I-252258J431700D01*
G01*
X204783291Y-90008299D02*
G75*
G02*
X205035549Y-89940000I252261J-431710D01*
G01*
X205035548Y-86940000D02*
G75*
G02*
X204783290Y-86871701I3J500009D01*
G01*
X206624453Y-89940000D02*
G75*
G02*
X206876712Y-90008299I-3J-500012D01*
G01*
X206876712Y-86871702D02*
G75*
G02*
X206624454Y-86940002I-252262J431710D01*
G01*
X206876712Y-86871702D02*
G75*
G02*
X207579484Y-87520280I252258J-431700D01*
G01*
X207530000Y-87737157D02*
G75*
G02*
X207579479Y-87520277I500000J15D01*
G01*
X207579485Y-89359719D02*
G75*
G02*
X206876712Y-90008299I-450514J-216880D01*
G01*
X207579485Y-89359720D02*
G75*
G02*
X207530000Y-89142842I450515J216878D01*
G01*
%TO.C,D104*%
X256830001Y-51120000D02*
X256830001Y-49714316D01*
X257735548Y-48917159D02*
X259324453Y-48917159D01*
X259324452Y-51917158D02*
X257735548Y-51917158D01*
X260229999Y-49714316D02*
X260229999Y-51120000D01*
X256780516Y-49497438D02*
G75*
G02*
X256830001Y-49714316I-450505J-216876D01*
G01*
X256780516Y-49497438D02*
G75*
G02*
X257483289Y-48848859I450515J216878D01*
G01*
X256830001Y-51120001D02*
G75*
G02*
X256780516Y-51336878I-499990J-1D01*
G01*
X257483289Y-51985455D02*
G75*
G02*
X256780516Y-51336878I-252258J431700D01*
G01*
X257483290Y-51985457D02*
G75*
G02*
X257735548Y-51917158I252261J-431710D01*
G01*
X257735547Y-48917158D02*
G75*
G02*
X257483289Y-48848859I3J500009D01*
G01*
X259324452Y-51917158D02*
G75*
G02*
X259576711Y-51985457I-3J-500012D01*
G01*
X259576711Y-48848860D02*
G75*
G02*
X259324453Y-48917160I-252262J431710D01*
G01*
X259576711Y-48848860D02*
G75*
G02*
X260279483Y-49497438I252258J-431700D01*
G01*
X260229999Y-49714315D02*
G75*
G02*
X260279478Y-49497435I500000J15D01*
G01*
X260279484Y-51336877D02*
G75*
G02*
X259576711Y-51985457I-450514J-216880D01*
G01*
X260279484Y-51336878D02*
G75*
G02*
X260229999Y-51120000I450515J216878D01*
G01*
%TO.C,D106*%
X213190002Y-50875000D02*
X213190002Y-49469316D01*
X214095549Y-48672159D02*
X215684454Y-48672159D01*
X215684453Y-51672158D02*
X214095549Y-51672158D01*
X216590000Y-49469316D02*
X216590000Y-50875000D01*
X213140517Y-49252438D02*
G75*
G02*
X213190002Y-49469316I-450505J-216876D01*
G01*
X213140517Y-49252438D02*
G75*
G02*
X213843290Y-48603859I450515J216878D01*
G01*
X213190002Y-50875001D02*
G75*
G02*
X213140517Y-51091878I-499990J-1D01*
G01*
X213843290Y-51740455D02*
G75*
G02*
X213140517Y-51091878I-252258J431700D01*
G01*
X213843291Y-51740457D02*
G75*
G02*
X214095549Y-51672158I252261J-431710D01*
G01*
X214095548Y-48672158D02*
G75*
G02*
X213843290Y-48603859I3J500009D01*
G01*
X215684453Y-51672158D02*
G75*
G02*
X215936712Y-51740457I-3J-500012D01*
G01*
X215936712Y-48603860D02*
G75*
G02*
X215684454Y-48672160I-252262J431710D01*
G01*
X215936712Y-48603860D02*
G75*
G02*
X216639484Y-49252438I252258J-431700D01*
G01*
X216590000Y-49469315D02*
G75*
G02*
X216639479Y-49252435I500000J15D01*
G01*
X216639485Y-51091877D02*
G75*
G02*
X215936712Y-51740457I-450514J-216880D01*
G01*
X216639485Y-51091878D02*
G75*
G02*
X216590000Y-50875000I450515J216878D01*
G01*
%TO.C,D63*%
X129470002Y-12985000D02*
X129470002Y-11579316D01*
X130375549Y-10782159D02*
X131964454Y-10782159D01*
X131964453Y-13782158D02*
X130375549Y-13782158D01*
X132870000Y-11579316D02*
X132870000Y-12985000D01*
X129420517Y-11362438D02*
G75*
G02*
X129470002Y-11579316I-450505J-216876D01*
G01*
X129420517Y-11362438D02*
G75*
G02*
X130123290Y-10713859I450515J216878D01*
G01*
X129470002Y-12985001D02*
G75*
G02*
X129420517Y-13201878I-499990J-1D01*
G01*
X130123290Y-13850455D02*
G75*
G02*
X129420517Y-13201878I-252258J431700D01*
G01*
X130123291Y-13850457D02*
G75*
G02*
X130375549Y-13782158I252261J-431710D01*
G01*
X130375548Y-10782158D02*
G75*
G02*
X130123290Y-10713859I3J500009D01*
G01*
X131964453Y-13782158D02*
G75*
G02*
X132216712Y-13850457I-3J-500012D01*
G01*
X132216712Y-10713860D02*
G75*
G02*
X131964454Y-10782160I-252262J431710D01*
G01*
X132216712Y-10713860D02*
G75*
G02*
X132919484Y-11362438I252258J-431700D01*
G01*
X132870000Y-11579315D02*
G75*
G02*
X132919479Y-11362435I500000J15D01*
G01*
X132919485Y-13201877D02*
G75*
G02*
X132216712Y-13850457I-450514J-216880D01*
G01*
X132919485Y-13201878D02*
G75*
G02*
X132870000Y-12985000I450515J216878D01*
G01*
%TO.C,D139*%
X294980001Y-105910000D02*
X294980001Y-104504316D01*
X295885548Y-103707159D02*
X297474453Y-103707159D01*
X297474452Y-106707158D02*
X295885548Y-106707158D01*
X298379999Y-104504316D02*
X298379999Y-105910000D01*
X294930516Y-104287438D02*
G75*
G02*
X294980001Y-104504316I-450505J-216876D01*
G01*
X294930516Y-104287438D02*
G75*
G02*
X295633289Y-103638859I450515J216878D01*
G01*
X294980001Y-105910001D02*
G75*
G02*
X294930516Y-106126878I-499990J-1D01*
G01*
X295633289Y-106775455D02*
G75*
G02*
X294930516Y-106126878I-252258J431700D01*
G01*
X295633290Y-106775457D02*
G75*
G02*
X295885548Y-106707158I252261J-431710D01*
G01*
X295885547Y-103707158D02*
G75*
G02*
X295633289Y-103638859I3J500009D01*
G01*
X297474452Y-106707158D02*
G75*
G02*
X297726711Y-106775457I-3J-500012D01*
G01*
X297726711Y-103638860D02*
G75*
G02*
X297474453Y-103707160I-252262J431710D01*
G01*
X297726711Y-103638860D02*
G75*
G02*
X298429483Y-104287438I252258J-431700D01*
G01*
X298379999Y-104504315D02*
G75*
G02*
X298429478Y-104287435I500000J15D01*
G01*
X298429484Y-106126877D02*
G75*
G02*
X297726711Y-106775457I-450514J-216880D01*
G01*
X298429484Y-106126878D02*
G75*
G02*
X298379999Y-105910000I450515J216878D01*
G01*
%TO.C,D126*%
X252040002Y-88365000D02*
X252040002Y-86959316D01*
X252945549Y-86162159D02*
X254534454Y-86162159D01*
X254534453Y-89162158D02*
X252945549Y-89162158D01*
X255440000Y-86959316D02*
X255440000Y-88365000D01*
X251990517Y-86742438D02*
G75*
G02*
X252040002Y-86959316I-450505J-216876D01*
G01*
X251990517Y-86742438D02*
G75*
G02*
X252693290Y-86093859I450515J216878D01*
G01*
X252040002Y-88365001D02*
G75*
G02*
X251990517Y-88581878I-499990J-1D01*
G01*
X252693290Y-89230455D02*
G75*
G02*
X251990517Y-88581878I-252258J431700D01*
G01*
X252693291Y-89230457D02*
G75*
G02*
X252945549Y-89162158I252261J-431710D01*
G01*
X252945548Y-86162158D02*
G75*
G02*
X252693290Y-86093859I3J500009D01*
G01*
X254534453Y-89162158D02*
G75*
G02*
X254786712Y-89230457I-3J-500012D01*
G01*
X254786712Y-86093860D02*
G75*
G02*
X254534454Y-86162160I-252262J431710D01*
G01*
X254786712Y-86093860D02*
G75*
G02*
X255489484Y-86742438I252258J-431700D01*
G01*
X255440000Y-86959315D02*
G75*
G02*
X255489479Y-86742435I500000J15D01*
G01*
X255489485Y-88581877D02*
G75*
G02*
X254786712Y-89230457I-450514J-216880D01*
G01*
X255489485Y-88581878D02*
G75*
G02*
X255440000Y-88365000I450515J216878D01*
G01*
%TO.C,D129*%
X141660002Y-70005000D02*
X141660002Y-68599316D01*
X142565549Y-67802159D02*
X144154454Y-67802159D01*
X144154453Y-70802158D02*
X142565549Y-70802158D01*
X145060000Y-68599316D02*
X145060000Y-70005000D01*
X141610517Y-68382438D02*
G75*
G02*
X141660002Y-68599316I-450505J-216876D01*
G01*
X141610517Y-68382438D02*
G75*
G02*
X142313290Y-67733859I450515J216878D01*
G01*
X141660002Y-70005001D02*
G75*
G02*
X141610517Y-70221878I-499990J-1D01*
G01*
X142313290Y-70870455D02*
G75*
G02*
X141610517Y-70221878I-252258J431700D01*
G01*
X142313291Y-70870457D02*
G75*
G02*
X142565549Y-70802158I252261J-431710D01*
G01*
X142565548Y-67802158D02*
G75*
G02*
X142313290Y-67733859I3J500009D01*
G01*
X144154453Y-70802158D02*
G75*
G02*
X144406712Y-70870457I-3J-500012D01*
G01*
X144406712Y-67733860D02*
G75*
G02*
X144154454Y-67802160I-252262J431710D01*
G01*
X144406712Y-67733860D02*
G75*
G02*
X145109484Y-68382438I252258J-431700D01*
G01*
X145060000Y-68599315D02*
G75*
G02*
X145109479Y-68382435I500000J15D01*
G01*
X145109485Y-70221877D02*
G75*
G02*
X144406712Y-70870457I-450514J-216880D01*
G01*
X145109485Y-70221878D02*
G75*
G02*
X145060000Y-70005000I450515J216878D01*
G01*
%TO.C,D115*%
X224620001Y-89187842D02*
X224620001Y-87782158D01*
X225525548Y-86985001D02*
X227114453Y-86985001D01*
X227114452Y-89985000D02*
X225525548Y-89985000D01*
X228019999Y-87782158D02*
X228019999Y-89187842D01*
X224570516Y-87565280D02*
G75*
G02*
X224620001Y-87782158I-450505J-216876D01*
G01*
X224570516Y-87565280D02*
G75*
G02*
X225273289Y-86916701I450515J216878D01*
G01*
X224620001Y-89187843D02*
G75*
G02*
X224570516Y-89404720I-499990J-1D01*
G01*
X225273289Y-90053297D02*
G75*
G02*
X224570516Y-89404720I-252258J431700D01*
G01*
X225273290Y-90053299D02*
G75*
G02*
X225525548Y-89985000I252261J-431710D01*
G01*
X225525547Y-86985000D02*
G75*
G02*
X225273289Y-86916701I3J500009D01*
G01*
X227114452Y-89985000D02*
G75*
G02*
X227366711Y-90053299I-3J-500012D01*
G01*
X227366711Y-86916702D02*
G75*
G02*
X227114453Y-86985002I-252262J431710D01*
G01*
X227366711Y-86916702D02*
G75*
G02*
X228069483Y-87565280I252258J-431700D01*
G01*
X228019999Y-87782157D02*
G75*
G02*
X228069478Y-87565277I500000J15D01*
G01*
X228069484Y-89404719D02*
G75*
G02*
X227366711Y-90053299I-450514J-216880D01*
G01*
X228069484Y-89404720D02*
G75*
G02*
X228019999Y-89187842I450515J216878D01*
G01*
%TO.C,D98*%
X136930002Y-50945000D02*
X136930002Y-49539316D01*
X137835549Y-48742159D02*
X139424454Y-48742159D01*
X139424453Y-51742158D02*
X137835549Y-51742158D01*
X140330000Y-49539316D02*
X140330000Y-50945000D01*
X136880517Y-49322438D02*
G75*
G02*
X136930002Y-49539316I-450505J-216876D01*
G01*
X136880517Y-49322438D02*
G75*
G02*
X137583290Y-48673859I450515J216878D01*
G01*
X136930002Y-50945001D02*
G75*
G02*
X136880517Y-51161878I-499990J-1D01*
G01*
X137583290Y-51810455D02*
G75*
G02*
X136880517Y-51161878I-252258J431700D01*
G01*
X137583291Y-51810457D02*
G75*
G02*
X137835549Y-51742158I252261J-431710D01*
G01*
X137835548Y-48742158D02*
G75*
G02*
X137583290Y-48673859I3J500009D01*
G01*
X139424453Y-51742158D02*
G75*
G02*
X139676712Y-51810457I-3J-500012D01*
G01*
X139676712Y-48673860D02*
G75*
G02*
X139424454Y-48742160I-252262J431710D01*
G01*
X139676712Y-48673860D02*
G75*
G02*
X140379484Y-49322438I252258J-431700D01*
G01*
X140330000Y-49539315D02*
G75*
G02*
X140379479Y-49322435I500000J15D01*
G01*
X140379485Y-51161877D02*
G75*
G02*
X139676712Y-51810457I-450514J-216880D01*
G01*
X140379485Y-51161878D02*
G75*
G02*
X140330000Y-50945000I450515J216878D01*
G01*
%TO.C,D120*%
X129340001Y-89852842D02*
X129340001Y-88447158D01*
X130245548Y-87650001D02*
X131834453Y-87650001D01*
X131834452Y-90650000D02*
X130245548Y-90650000D01*
X132739999Y-88447158D02*
X132739999Y-89852842D01*
X129290516Y-88230280D02*
G75*
G02*
X129340001Y-88447158I-450505J-216876D01*
G01*
X129290516Y-88230280D02*
G75*
G02*
X129993289Y-87581701I450515J216878D01*
G01*
X129340001Y-89852843D02*
G75*
G02*
X129290516Y-90069720I-499990J-1D01*
G01*
X129993289Y-90718297D02*
G75*
G02*
X129290516Y-90069720I-252258J431700D01*
G01*
X129993290Y-90718299D02*
G75*
G02*
X130245548Y-90650000I252261J-431710D01*
G01*
X130245547Y-87650000D02*
G75*
G02*
X129993289Y-87581701I3J500009D01*
G01*
X131834452Y-90650000D02*
G75*
G02*
X132086711Y-90718299I-3J-500012D01*
G01*
X132086711Y-87581702D02*
G75*
G02*
X131834453Y-87650002I-252262J431710D01*
G01*
X132086711Y-87581702D02*
G75*
G02*
X132789483Y-88230280I252258J-431700D01*
G01*
X132739999Y-88447157D02*
G75*
G02*
X132789478Y-88230277I500000J15D01*
G01*
X132789484Y-90069719D02*
G75*
G02*
X132086711Y-90718299I-450514J-216880D01*
G01*
X132789484Y-90069720D02*
G75*
G02*
X132739999Y-89852842I450515J216878D01*
G01*
%TO.C,D131*%
X179800001Y-69982842D02*
X179800001Y-68577158D01*
X180705548Y-67780001D02*
X182294453Y-67780001D01*
X182294452Y-70780000D02*
X180705548Y-70780000D01*
X183199999Y-68577158D02*
X183199999Y-69982842D01*
X179750516Y-68360280D02*
G75*
G02*
X179800001Y-68577158I-450505J-216876D01*
G01*
X179750516Y-68360280D02*
G75*
G02*
X180453289Y-67711701I450515J216878D01*
G01*
X179800001Y-69982843D02*
G75*
G02*
X179750516Y-70199720I-499990J-1D01*
G01*
X180453289Y-70848297D02*
G75*
G02*
X179750516Y-70199720I-252258J431700D01*
G01*
X180453290Y-70848299D02*
G75*
G02*
X180705548Y-70780000I252261J-431710D01*
G01*
X180705547Y-67780000D02*
G75*
G02*
X180453289Y-67711701I3J500009D01*
G01*
X182294452Y-70780000D02*
G75*
G02*
X182546711Y-70848299I-3J-500012D01*
G01*
X182546711Y-67711702D02*
G75*
G02*
X182294453Y-67780002I-252262J431710D01*
G01*
X182546711Y-67711702D02*
G75*
G02*
X183249483Y-68360280I252258J-431700D01*
G01*
X183199999Y-68577157D02*
G75*
G02*
X183249478Y-68360277I500000J15D01*
G01*
X183249484Y-70199719D02*
G75*
G02*
X182546711Y-70848299I-450514J-216880D01*
G01*
X183249484Y-70199720D02*
G75*
G02*
X183199999Y-69982842I450515J216878D01*
G01*
%TO.C,D91*%
X41120001Y-50932842D02*
X41120001Y-49527158D01*
X42025548Y-48730001D02*
X43614453Y-48730001D01*
X43614452Y-51730000D02*
X42025548Y-51730000D01*
X44519999Y-49527158D02*
X44519999Y-50932842D01*
X41070516Y-49310280D02*
G75*
G02*
X41120001Y-49527158I-450505J-216876D01*
G01*
X41070516Y-49310280D02*
G75*
G02*
X41773289Y-48661701I450515J216878D01*
G01*
X41120001Y-50932843D02*
G75*
G02*
X41070516Y-51149720I-499990J-1D01*
G01*
X41773289Y-51798297D02*
G75*
G02*
X41070516Y-51149720I-252258J431700D01*
G01*
X41773290Y-51798299D02*
G75*
G02*
X42025548Y-51730000I252261J-431710D01*
G01*
X42025547Y-48730000D02*
G75*
G02*
X41773289Y-48661701I3J500009D01*
G01*
X43614452Y-51730000D02*
G75*
G02*
X43866711Y-51798299I-3J-500012D01*
G01*
X43866711Y-48661702D02*
G75*
G02*
X43614453Y-48730002I-252262J431710D01*
G01*
X43866711Y-48661702D02*
G75*
G02*
X44569483Y-49310280I252258J-431700D01*
G01*
X44519999Y-49527157D02*
G75*
G02*
X44569478Y-49310277I500000J15D01*
G01*
X44569484Y-51149719D02*
G75*
G02*
X43866711Y-51798299I-450514J-216880D01*
G01*
X44569484Y-51149720D02*
G75*
G02*
X44519999Y-50932842I450515J216878D01*
G01*
%TO.C,D114*%
X293955266Y-34717577D02*
X293955266Y-33311893D01*
X294860813Y-32514736D02*
X296449718Y-32514736D01*
X296449717Y-35514735D02*
X294860813Y-35514735D01*
X297355264Y-33311893D02*
X297355264Y-34717577D01*
X293905781Y-33095015D02*
G75*
G02*
X293955266Y-33311893I-450505J-216876D01*
G01*
X293905781Y-33095015D02*
G75*
G02*
X294608554Y-32446436I450515J216878D01*
G01*
X293955266Y-34717578D02*
G75*
G02*
X293905781Y-34934455I-499990J-1D01*
G01*
X294608554Y-35583032D02*
G75*
G02*
X293905781Y-34934455I-252258J431700D01*
G01*
X294608555Y-35583034D02*
G75*
G02*
X294860813Y-35514735I252261J-431710D01*
G01*
X294860812Y-32514735D02*
G75*
G02*
X294608554Y-32446436I3J500009D01*
G01*
X296449717Y-35514735D02*
G75*
G02*
X296701976Y-35583034I-3J-500012D01*
G01*
X296701976Y-32446437D02*
G75*
G02*
X296449718Y-32514737I-252262J431710D01*
G01*
X296701976Y-32446437D02*
G75*
G02*
X297404748Y-33095015I252258J-431700D01*
G01*
X297355264Y-33311892D02*
G75*
G02*
X297404743Y-33095012I500000J15D01*
G01*
X297404749Y-34934454D02*
G75*
G02*
X296701976Y-35583034I-450514J-216880D01*
G01*
X297404749Y-34934455D02*
G75*
G02*
X297355264Y-34717577I450515J216878D01*
G01*
%TO.C,D117*%
X185450001Y-89232842D02*
X185450001Y-87827158D01*
X186355548Y-87030001D02*
X187944453Y-87030001D01*
X187944452Y-90030000D02*
X186355548Y-90030000D01*
X188849999Y-87827158D02*
X188849999Y-89232842D01*
X185400516Y-87610280D02*
G75*
G02*
X185450001Y-87827158I-450505J-216876D01*
G01*
X185400516Y-87610280D02*
G75*
G02*
X186103289Y-86961701I450515J216878D01*
G01*
X185450001Y-89232843D02*
G75*
G02*
X185400516Y-89449720I-499990J-1D01*
G01*
X186103289Y-90098297D02*
G75*
G02*
X185400516Y-89449720I-252258J431700D01*
G01*
X186103290Y-90098299D02*
G75*
G02*
X186355548Y-90030000I252261J-431710D01*
G01*
X186355547Y-87030000D02*
G75*
G02*
X186103289Y-86961701I3J500009D01*
G01*
X187944452Y-90030000D02*
G75*
G02*
X188196711Y-90098299I-3J-500012D01*
G01*
X188196711Y-86961702D02*
G75*
G02*
X187944453Y-87030002I-252262J431710D01*
G01*
X188196711Y-86961702D02*
G75*
G02*
X188899483Y-87610280I252258J-431700D01*
G01*
X188849999Y-87827157D02*
G75*
G02*
X188899478Y-87610277I500000J15D01*
G01*
X188899484Y-89449719D02*
G75*
G02*
X188196711Y-90098299I-450514J-216880D01*
G01*
X188899484Y-89449720D02*
G75*
G02*
X188849999Y-89232842I450515J216878D01*
G01*
%TO.C,D74*%
X225070002Y-12920000D02*
X225070002Y-11514316D01*
X225975549Y-10717159D02*
X227564454Y-10717159D01*
X227564453Y-13717158D02*
X225975549Y-13717158D01*
X228470000Y-11514316D02*
X228470000Y-12920000D01*
X225020517Y-11297438D02*
G75*
G02*
X225070002Y-11514316I-450505J-216876D01*
G01*
X225020517Y-11297438D02*
G75*
G02*
X225723290Y-10648859I450515J216878D01*
G01*
X225070002Y-12920001D02*
G75*
G02*
X225020517Y-13136878I-499990J-1D01*
G01*
X225723290Y-13785455D02*
G75*
G02*
X225020517Y-13136878I-252258J431700D01*
G01*
X225723291Y-13785457D02*
G75*
G02*
X225975549Y-13717158I252261J-431710D01*
G01*
X225975548Y-10717158D02*
G75*
G02*
X225723290Y-10648859I3J500009D01*
G01*
X227564453Y-13717158D02*
G75*
G02*
X227816712Y-13785457I-3J-500012D01*
G01*
X227816712Y-10648860D02*
G75*
G02*
X227564454Y-10717160I-252262J431710D01*
G01*
X227816712Y-10648860D02*
G75*
G02*
X228519484Y-11297438I252258J-431700D01*
G01*
X228470000Y-11514315D02*
G75*
G02*
X228519479Y-11297435I500000J15D01*
G01*
X228519485Y-13136877D02*
G75*
G02*
X227816712Y-13785457I-450514J-216880D01*
G01*
X228519485Y-13136878D02*
G75*
G02*
X228470000Y-12920000I450515J216878D01*
G01*
%TO.C,D132*%
X198900002Y-69915000D02*
X198900002Y-68509316D01*
X199805549Y-67712159D02*
X201394454Y-67712159D01*
X201394453Y-70712158D02*
X199805549Y-70712158D01*
X202300000Y-68509316D02*
X202300000Y-69915000D01*
X198850517Y-68292438D02*
G75*
G02*
X198900002Y-68509316I-450505J-216876D01*
G01*
X198850517Y-68292438D02*
G75*
G02*
X199553290Y-67643859I450515J216878D01*
G01*
X198900002Y-69915001D02*
G75*
G02*
X198850517Y-70131878I-499990J-1D01*
G01*
X199553290Y-70780455D02*
G75*
G02*
X198850517Y-70131878I-252258J431700D01*
G01*
X199553291Y-70780457D02*
G75*
G02*
X199805549Y-70712158I252261J-431710D01*
G01*
X199805548Y-67712158D02*
G75*
G02*
X199553290Y-67643859I3J500009D01*
G01*
X201394453Y-70712158D02*
G75*
G02*
X201646712Y-70780457I-3J-500012D01*
G01*
X201646712Y-67643860D02*
G75*
G02*
X201394454Y-67712160I-252262J431710D01*
G01*
X201646712Y-67643860D02*
G75*
G02*
X202349484Y-68292438I252258J-431700D01*
G01*
X202300000Y-68509315D02*
G75*
G02*
X202349479Y-68292435I500000J15D01*
G01*
X202349485Y-70131877D02*
G75*
G02*
X201646712Y-70780457I-450514J-216880D01*
G01*
X202349485Y-70131878D02*
G75*
G02*
X202300000Y-69915000I450515J216878D01*
G01*
%TO.C,D12*%
X106020002Y-89452842D02*
X106020002Y-88047158D01*
X106925549Y-87250001D02*
X108514454Y-87250001D01*
X108514453Y-90250000D02*
X106925549Y-90250000D01*
X109420000Y-88047158D02*
X109420000Y-89452842D01*
X105970517Y-87830280D02*
G75*
G02*
X106020002Y-88047158I-450505J-216876D01*
G01*
X105970517Y-87830280D02*
G75*
G02*
X106673290Y-87181701I450515J216878D01*
G01*
X106020002Y-89452843D02*
G75*
G02*
X105970517Y-89669720I-499990J-1D01*
G01*
X106673290Y-90318297D02*
G75*
G02*
X105970517Y-89669720I-252258J431700D01*
G01*
X106673291Y-90318299D02*
G75*
G02*
X106925549Y-90250000I252261J-431710D01*
G01*
X106925548Y-87250000D02*
G75*
G02*
X106673290Y-87181701I3J500009D01*
G01*
X108514453Y-90250000D02*
G75*
G02*
X108766712Y-90318299I-3J-500012D01*
G01*
X108766712Y-87181702D02*
G75*
G02*
X108514454Y-87250002I-252262J431710D01*
G01*
X108766712Y-87181702D02*
G75*
G02*
X109469484Y-87830280I252258J-431700D01*
G01*
X109420000Y-88047157D02*
G75*
G02*
X109469479Y-87830277I500000J15D01*
G01*
X109469485Y-89669719D02*
G75*
G02*
X108766712Y-90318299I-450514J-216880D01*
G01*
X109469485Y-89669720D02*
G75*
G02*
X109420000Y-89452842I450515J216878D01*
G01*
%TO.C,D87*%
X13900001Y-12880000D02*
X13900001Y-11474316D01*
X14805548Y-10677159D02*
X16394453Y-10677159D01*
X16394452Y-13677158D02*
X14805548Y-13677158D01*
X17299999Y-11474316D02*
X17299999Y-12880000D01*
X13850516Y-11257438D02*
G75*
G02*
X13900001Y-11474316I-450505J-216876D01*
G01*
X13850516Y-11257438D02*
G75*
G02*
X14553289Y-10608859I450515J216878D01*
G01*
X13900001Y-12880001D02*
G75*
G02*
X13850516Y-13096878I-499990J-1D01*
G01*
X14553289Y-13745455D02*
G75*
G02*
X13850516Y-13096878I-252258J431700D01*
G01*
X14553290Y-13745457D02*
G75*
G02*
X14805548Y-13677158I252261J-431710D01*
G01*
X14805547Y-10677158D02*
G75*
G02*
X14553289Y-10608859I3J500009D01*
G01*
X16394452Y-13677158D02*
G75*
G02*
X16646711Y-13745457I-3J-500012D01*
G01*
X16646711Y-10608860D02*
G75*
G02*
X16394453Y-10677160I-252262J431710D01*
G01*
X16646711Y-10608860D02*
G75*
G02*
X17349483Y-11257438I252258J-431700D01*
G01*
X17299999Y-11474315D02*
G75*
G02*
X17349478Y-11257435I500000J15D01*
G01*
X17349484Y-13096877D02*
G75*
G02*
X16646711Y-13745457I-450514J-216880D01*
G01*
X17349484Y-13096878D02*
G75*
G02*
X17299999Y-12880000I450515J216878D01*
G01*
%TO.C,D76*%
X186900002Y-12945000D02*
X186900002Y-11539316D01*
X187805549Y-10742159D02*
X189394454Y-10742159D01*
X189394453Y-13742158D02*
X187805549Y-13742158D01*
X190300000Y-11539316D02*
X190300000Y-12945000D01*
X186850517Y-11322438D02*
G75*
G02*
X186900002Y-11539316I-450505J-216876D01*
G01*
X186850517Y-11322438D02*
G75*
G02*
X187553290Y-10673859I450515J216878D01*
G01*
X186900002Y-12945001D02*
G75*
G02*
X186850517Y-13161878I-499990J-1D01*
G01*
X187553290Y-13810455D02*
G75*
G02*
X186850517Y-13161878I-252258J431700D01*
G01*
X187553291Y-13810457D02*
G75*
G02*
X187805549Y-13742158I252261J-431710D01*
G01*
X187805548Y-10742158D02*
G75*
G02*
X187553290Y-10673859I3J500009D01*
G01*
X189394453Y-13742158D02*
G75*
G02*
X189646712Y-13810457I-3J-500012D01*
G01*
X189646712Y-10673860D02*
G75*
G02*
X189394454Y-10742160I-252262J431710D01*
G01*
X189646712Y-10673860D02*
G75*
G02*
X190349484Y-11322438I252258J-431700D01*
G01*
X190300000Y-11539315D02*
G75*
G02*
X190349479Y-11322435I500000J15D01*
G01*
X190349485Y-13161877D02*
G75*
G02*
X189646712Y-13810457I-450514J-216880D01*
G01*
X190349485Y-13161878D02*
G75*
G02*
X190300000Y-12945000I450515J216878D01*
G01*
%TO.C,D110*%
X205517501Y-31942842D02*
X205517501Y-30537158D01*
X206423048Y-29740001D02*
X208011953Y-29740001D01*
X208011952Y-32740000D02*
X206423048Y-32740000D01*
X208917499Y-30537158D02*
X208917499Y-31942842D01*
X205468016Y-30320280D02*
G75*
G02*
X205517501Y-30537158I-450505J-216876D01*
G01*
X205468016Y-30320280D02*
G75*
G02*
X206170789Y-29671701I450515J216878D01*
G01*
X205517501Y-31942843D02*
G75*
G02*
X205468016Y-32159720I-499990J-1D01*
G01*
X206170789Y-32808297D02*
G75*
G02*
X205468016Y-32159720I-252258J431700D01*
G01*
X206170790Y-32808299D02*
G75*
G02*
X206423048Y-32740000I252261J-431710D01*
G01*
X206423047Y-29740000D02*
G75*
G02*
X206170789Y-29671701I3J500009D01*
G01*
X208011952Y-32740000D02*
G75*
G02*
X208264211Y-32808299I-3J-500012D01*
G01*
X208264211Y-29671702D02*
G75*
G02*
X208011953Y-29740002I-252262J431710D01*
G01*
X208264211Y-29671702D02*
G75*
G02*
X208966983Y-30320280I252258J-431700D01*
G01*
X208917499Y-30537157D02*
G75*
G02*
X208966978Y-30320277I500000J15D01*
G01*
X208966984Y-32159719D02*
G75*
G02*
X208264211Y-32808299I-450514J-216880D01*
G01*
X208966984Y-32159720D02*
G75*
G02*
X208917499Y-31942842I450515J216878D01*
G01*
%TO.C,D93*%
X13550002Y-69585000D02*
X13550002Y-68179316D01*
X14455549Y-67382159D02*
X16044454Y-67382159D01*
X16044453Y-70382158D02*
X14455549Y-70382158D01*
X16950000Y-68179316D02*
X16950000Y-69585000D01*
X13500517Y-67962438D02*
G75*
G02*
X13550002Y-68179316I-450505J-216876D01*
G01*
X13500517Y-67962438D02*
G75*
G02*
X14203290Y-67313859I450515J216878D01*
G01*
X13550002Y-69585001D02*
G75*
G02*
X13500517Y-69801878I-499990J-1D01*
G01*
X14203290Y-70450455D02*
G75*
G02*
X13500517Y-69801878I-252258J431700D01*
G01*
X14203291Y-70450457D02*
G75*
G02*
X14455549Y-70382158I252261J-431710D01*
G01*
X14455548Y-67382158D02*
G75*
G02*
X14203290Y-67313859I3J500009D01*
G01*
X16044453Y-70382158D02*
G75*
G02*
X16296712Y-70450457I-3J-500012D01*
G01*
X16296712Y-67313860D02*
G75*
G02*
X16044454Y-67382160I-252262J431710D01*
G01*
X16296712Y-67313860D02*
G75*
G02*
X16999484Y-67962438I252258J-431700D01*
G01*
X16950000Y-68179315D02*
G75*
G02*
X16999479Y-67962435I500000J15D01*
G01*
X16999485Y-69801877D02*
G75*
G02*
X16296712Y-70450457I-450514J-216880D01*
G01*
X16999485Y-69801878D02*
G75*
G02*
X16950000Y-69585000I450515J216878D01*
G01*
%TO.C,D99*%
X117890002Y-50920000D02*
X117890002Y-49514316D01*
X118795549Y-48717159D02*
X120384454Y-48717159D01*
X120384453Y-51717158D02*
X118795549Y-51717158D01*
X121290000Y-49514316D02*
X121290000Y-50920000D01*
X117840517Y-49297438D02*
G75*
G02*
X117890002Y-49514316I-450505J-216876D01*
G01*
X117840517Y-49297438D02*
G75*
G02*
X118543290Y-48648859I450515J216878D01*
G01*
X117890002Y-50920001D02*
G75*
G02*
X117840517Y-51136878I-499990J-1D01*
G01*
X118543290Y-51785455D02*
G75*
G02*
X117840517Y-51136878I-252258J431700D01*
G01*
X118543291Y-51785457D02*
G75*
G02*
X118795549Y-51717158I252261J-431710D01*
G01*
X118795548Y-48717158D02*
G75*
G02*
X118543290Y-48648859I3J500009D01*
G01*
X120384453Y-51717158D02*
G75*
G02*
X120636712Y-51785457I-3J-500012D01*
G01*
X120636712Y-48648860D02*
G75*
G02*
X120384454Y-48717160I-252262J431710D01*
G01*
X120636712Y-48648860D02*
G75*
G02*
X121339484Y-49297438I252258J-431700D01*
G01*
X121290000Y-49514315D02*
G75*
G02*
X121339479Y-49297435I500000J15D01*
G01*
X121339485Y-51136877D02*
G75*
G02*
X120636712Y-51785457I-450514J-216880D01*
G01*
X121339485Y-51136878D02*
G75*
G02*
X121290000Y-50920000I450515J216878D01*
G01*
%TO.C,D88*%
X13950001Y-31852842D02*
X13950001Y-30447158D01*
X14855548Y-29650001D02*
X16444453Y-29650001D01*
X16444452Y-32650000D02*
X14855548Y-32650000D01*
X17349999Y-30447158D02*
X17349999Y-31852842D01*
X13900516Y-30230280D02*
G75*
G02*
X13950001Y-30447158I-450505J-216876D01*
G01*
X13900516Y-30230280D02*
G75*
G02*
X14603289Y-29581701I450515J216878D01*
G01*
X13950001Y-31852843D02*
G75*
G02*
X13900516Y-32069720I-499990J-1D01*
G01*
X14603289Y-32718297D02*
G75*
G02*
X13900516Y-32069720I-252258J431700D01*
G01*
X14603290Y-32718299D02*
G75*
G02*
X14855548Y-32650000I252261J-431710D01*
G01*
X14855547Y-29650000D02*
G75*
G02*
X14603289Y-29581701I3J500009D01*
G01*
X16444452Y-32650000D02*
G75*
G02*
X16696711Y-32718299I-3J-500012D01*
G01*
X16696711Y-29581702D02*
G75*
G02*
X16444453Y-29650002I-252262J431710D01*
G01*
X16696711Y-29581702D02*
G75*
G02*
X17399483Y-30230280I252258J-431700D01*
G01*
X17349999Y-30447157D02*
G75*
G02*
X17399478Y-30230277I500000J15D01*
G01*
X17399484Y-32069719D02*
G75*
G02*
X16696711Y-32718299I-450514J-216880D01*
G01*
X17399484Y-32069720D02*
G75*
G02*
X17349999Y-31852842I450515J216878D01*
G01*
%TO.C,D78*%
X72410002Y-12935000D02*
X72410002Y-11529316D01*
X73315549Y-10732159D02*
X74904454Y-10732159D01*
X74904453Y-13732158D02*
X73315549Y-13732158D01*
X75810000Y-11529316D02*
X75810000Y-12935000D01*
X72360517Y-11312438D02*
G75*
G02*
X72410002Y-11529316I-450505J-216876D01*
G01*
X72360517Y-11312438D02*
G75*
G02*
X73063290Y-10663859I450515J216878D01*
G01*
X72410002Y-12935001D02*
G75*
G02*
X72360517Y-13151878I-499990J-1D01*
G01*
X73063290Y-13800455D02*
G75*
G02*
X72360517Y-13151878I-252258J431700D01*
G01*
X73063291Y-13800457D02*
G75*
G02*
X73315549Y-13732158I252261J-431710D01*
G01*
X73315548Y-10732158D02*
G75*
G02*
X73063290Y-10663859I3J500009D01*
G01*
X74904453Y-13732158D02*
G75*
G02*
X75156712Y-13800457I-3J-500012D01*
G01*
X75156712Y-10663860D02*
G75*
G02*
X74904454Y-10732160I-252262J431710D01*
G01*
X75156712Y-10663860D02*
G75*
G02*
X75859484Y-11312438I252258J-431700D01*
G01*
X75810000Y-11529315D02*
G75*
G02*
X75859479Y-11312435I500000J15D01*
G01*
X75859485Y-13151877D02*
G75*
G02*
X75156712Y-13800457I-450514J-216880D01*
G01*
X75859485Y-13151878D02*
G75*
G02*
X75810000Y-12935000I450515J216878D01*
G01*
%TO.C,D80*%
X91560002Y-31695000D02*
X91560002Y-30289316D01*
X92465549Y-29492159D02*
X94054454Y-29492159D01*
X94054453Y-32492158D02*
X92465549Y-32492158D01*
X94960000Y-30289316D02*
X94960000Y-31695000D01*
X91510517Y-30072438D02*
G75*
G02*
X91560002Y-30289316I-450505J-216876D01*
G01*
X91510517Y-30072438D02*
G75*
G02*
X92213290Y-29423859I450515J216878D01*
G01*
X91560002Y-31695001D02*
G75*
G02*
X91510517Y-31911878I-499990J-1D01*
G01*
X92213290Y-32560455D02*
G75*
G02*
X91510517Y-31911878I-252258J431700D01*
G01*
X92213291Y-32560457D02*
G75*
G02*
X92465549Y-32492158I252261J-431710D01*
G01*
X92465548Y-29492158D02*
G75*
G02*
X92213290Y-29423859I3J500009D01*
G01*
X94054453Y-32492158D02*
G75*
G02*
X94306712Y-32560457I-3J-500012D01*
G01*
X94306712Y-29423860D02*
G75*
G02*
X94054454Y-29492160I-252262J431710D01*
G01*
X94306712Y-29423860D02*
G75*
G02*
X95009484Y-30072438I252258J-431700D01*
G01*
X94960000Y-30289315D02*
G75*
G02*
X95009479Y-30072435I500000J15D01*
G01*
X95009485Y-31911877D02*
G75*
G02*
X94306712Y-32560457I-450514J-216880D01*
G01*
X95009485Y-31911878D02*
G75*
G02*
X94960000Y-31695000I450515J216878D01*
G01*
%TO.C,D101*%
X79630002Y-50820000D02*
X79630002Y-49414316D01*
X80535549Y-48617159D02*
X82124454Y-48617159D01*
X82124453Y-51617158D02*
X80535549Y-51617158D01*
X83030000Y-49414316D02*
X83030000Y-50820000D01*
X79580517Y-49197438D02*
G75*
G02*
X79630002Y-49414316I-450505J-216876D01*
G01*
X79580517Y-49197438D02*
G75*
G02*
X80283290Y-48548859I450515J216878D01*
G01*
X79630002Y-50820001D02*
G75*
G02*
X79580517Y-51036878I-499990J-1D01*
G01*
X80283290Y-51685455D02*
G75*
G02*
X79580517Y-51036878I-252258J431700D01*
G01*
X80283291Y-51685457D02*
G75*
G02*
X80535549Y-51617158I252261J-431710D01*
G01*
X80535548Y-48617158D02*
G75*
G02*
X80283290Y-48548859I3J500009D01*
G01*
X82124453Y-51617158D02*
G75*
G02*
X82376712Y-51685457I-3J-500012D01*
G01*
X82376712Y-48548860D02*
G75*
G02*
X82124454Y-48617160I-252262J431710D01*
G01*
X82376712Y-48548860D02*
G75*
G02*
X83079484Y-49197438I252258J-431700D01*
G01*
X83030000Y-49414315D02*
G75*
G02*
X83079479Y-49197435I500000J15D01*
G01*
X83079485Y-51036877D02*
G75*
G02*
X82376712Y-51685457I-450514J-216880D01*
G01*
X83079485Y-51036878D02*
G75*
G02*
X83030000Y-50820000I450515J216878D01*
G01*
%TO.C,D134*%
X201870001Y-105905000D02*
X201870001Y-104499316D01*
X202775548Y-103702159D02*
X204364453Y-103702159D01*
X204364452Y-106702158D02*
X202775548Y-106702158D01*
X205269999Y-104499316D02*
X205269999Y-105905000D01*
X201820516Y-104282438D02*
G75*
G02*
X201870001Y-104499316I-450505J-216876D01*
G01*
X201820516Y-104282438D02*
G75*
G02*
X202523289Y-103633859I450515J216878D01*
G01*
X201870001Y-105905001D02*
G75*
G02*
X201820516Y-106121878I-499990J-1D01*
G01*
X202523289Y-106770455D02*
G75*
G02*
X201820516Y-106121878I-252258J431700D01*
G01*
X202523290Y-106770457D02*
G75*
G02*
X202775548Y-106702158I252261J-431710D01*
G01*
X202775547Y-103702158D02*
G75*
G02*
X202523289Y-103633859I3J500009D01*
G01*
X204364452Y-106702158D02*
G75*
G02*
X204616711Y-106770457I-3J-500012D01*
G01*
X204616711Y-103633860D02*
G75*
G02*
X204364453Y-103702160I-252262J431710D01*
G01*
X204616711Y-103633860D02*
G75*
G02*
X205319483Y-104282438I252258J-431700D01*
G01*
X205269999Y-104499315D02*
G75*
G02*
X205319478Y-104282435I500000J15D01*
G01*
X205319484Y-106121877D02*
G75*
G02*
X204616711Y-106770457I-450514J-216880D01*
G01*
X205319484Y-106121878D02*
G75*
G02*
X205269999Y-105905000I450515J216878D01*
G01*
%TO.C,D118*%
X167710001Y-89722842D02*
X167710001Y-88317158D01*
X168615548Y-87520001D02*
X170204453Y-87520001D01*
X170204452Y-90520000D02*
X168615548Y-90520000D01*
X171109999Y-88317158D02*
X171109999Y-89722842D01*
X167660516Y-88100280D02*
G75*
G02*
X167710001Y-88317158I-450505J-216876D01*
G01*
X167660516Y-88100280D02*
G75*
G02*
X168363289Y-87451701I450515J216878D01*
G01*
X167710001Y-89722843D02*
G75*
G02*
X167660516Y-89939720I-499990J-1D01*
G01*
X168363289Y-90588297D02*
G75*
G02*
X167660516Y-89939720I-252258J431700D01*
G01*
X168363290Y-90588299D02*
G75*
G02*
X168615548Y-90520000I252261J-431710D01*
G01*
X168615547Y-87520000D02*
G75*
G02*
X168363289Y-87451701I3J500009D01*
G01*
X170204452Y-90520000D02*
G75*
G02*
X170456711Y-90588299I-3J-500012D01*
G01*
X170456711Y-87451702D02*
G75*
G02*
X170204453Y-87520002I-252262J431710D01*
G01*
X170456711Y-87451702D02*
G75*
G02*
X171159483Y-88100280I252258J-431700D01*
G01*
X171109999Y-88317157D02*
G75*
G02*
X171159478Y-88100277I500000J15D01*
G01*
X171159484Y-89939719D02*
G75*
G02*
X170456711Y-90588299I-450514J-216880D01*
G01*
X171159484Y-89939720D02*
G75*
G02*
X171109999Y-89722842I450515J216878D01*
G01*
%TO.C,D73*%
X244040002Y-12935000D02*
X244040002Y-11529316D01*
X244945549Y-10732159D02*
X246534454Y-10732159D01*
X246534453Y-13732158D02*
X244945549Y-13732158D01*
X247440000Y-11529316D02*
X247440000Y-12935000D01*
X243990517Y-11312438D02*
G75*
G02*
X244040002Y-11529316I-450505J-216876D01*
G01*
X243990517Y-11312438D02*
G75*
G02*
X244693290Y-10663859I450515J216878D01*
G01*
X244040002Y-12935001D02*
G75*
G02*
X243990517Y-13151878I-499990J-1D01*
G01*
X244693290Y-13800455D02*
G75*
G02*
X243990517Y-13151878I-252258J431700D01*
G01*
X244693291Y-13800457D02*
G75*
G02*
X244945549Y-13732158I252261J-431710D01*
G01*
X244945548Y-10732158D02*
G75*
G02*
X244693290Y-10663859I3J500009D01*
G01*
X246534453Y-13732158D02*
G75*
G02*
X246786712Y-13800457I-3J-500012D01*
G01*
X246786712Y-10663860D02*
G75*
G02*
X246534454Y-10732160I-252262J431710D01*
G01*
X246786712Y-10663860D02*
G75*
G02*
X247489484Y-11312438I252258J-431700D01*
G01*
X247440000Y-11529315D02*
G75*
G02*
X247489479Y-11312435I500000J15D01*
G01*
X247489485Y-13151877D02*
G75*
G02*
X246786712Y-13800457I-450514J-216880D01*
G01*
X247489485Y-13151878D02*
G75*
G02*
X247440000Y-12935000I450515J216878D01*
G01*
%TO.C,D81*%
X110720002Y-31655000D02*
X110720002Y-30249316D01*
X111625549Y-29452159D02*
X113214454Y-29452159D01*
X113214453Y-32452158D02*
X111625549Y-32452158D01*
X114120000Y-30249316D02*
X114120000Y-31655000D01*
X110670517Y-30032438D02*
G75*
G02*
X110720002Y-30249316I-450505J-216876D01*
G01*
X110670517Y-30032438D02*
G75*
G02*
X111373290Y-29383859I450515J216878D01*
G01*
X110720002Y-31655001D02*
G75*
G02*
X110670517Y-31871878I-499990J-1D01*
G01*
X111373290Y-32520455D02*
G75*
G02*
X110670517Y-31871878I-252258J431700D01*
G01*
X111373291Y-32520457D02*
G75*
G02*
X111625549Y-32452158I252261J-431710D01*
G01*
X111625548Y-29452158D02*
G75*
G02*
X111373290Y-29383859I3J500009D01*
G01*
X113214453Y-32452158D02*
G75*
G02*
X113466712Y-32520457I-3J-500012D01*
G01*
X113466712Y-29383860D02*
G75*
G02*
X113214454Y-29452160I-252262J431710D01*
G01*
X113466712Y-29383860D02*
G75*
G02*
X114169484Y-30032438I252258J-431700D01*
G01*
X114120000Y-30249315D02*
G75*
G02*
X114169479Y-30032435I500000J15D01*
G01*
X114169485Y-31871877D02*
G75*
G02*
X113466712Y-32520457I-450514J-216880D01*
G01*
X114169485Y-31871878D02*
G75*
G02*
X114120000Y-31655000I450515J216878D01*
G01*
%TO.C,D111*%
X225040001Y-31710000D02*
X225040001Y-30304316D01*
X225945548Y-29507159D02*
X227534453Y-29507159D01*
X227534452Y-32507158D02*
X225945548Y-32507158D01*
X228439999Y-30304316D02*
X228439999Y-31710000D01*
X224990516Y-30087438D02*
G75*
G02*
X225040001Y-30304316I-450505J-216876D01*
G01*
X224990516Y-30087438D02*
G75*
G02*
X225693289Y-29438859I450515J216878D01*
G01*
X225040001Y-31710001D02*
G75*
G02*
X224990516Y-31926878I-499990J-1D01*
G01*
X225693289Y-32575455D02*
G75*
G02*
X224990516Y-31926878I-252258J431700D01*
G01*
X225693290Y-32575457D02*
G75*
G02*
X225945548Y-32507158I252261J-431710D01*
G01*
X225945547Y-29507158D02*
G75*
G02*
X225693289Y-29438859I3J500009D01*
G01*
X227534452Y-32507158D02*
G75*
G02*
X227786711Y-32575457I-3J-500012D01*
G01*
X227786711Y-29438860D02*
G75*
G02*
X227534453Y-29507160I-252262J431710D01*
G01*
X227786711Y-29438860D02*
G75*
G02*
X228489483Y-30087438I252258J-431700D01*
G01*
X228439999Y-30304315D02*
G75*
G02*
X228489478Y-30087435I500000J15D01*
G01*
X228489484Y-31926877D02*
G75*
G02*
X227786711Y-32575457I-450514J-216880D01*
G01*
X228489484Y-31926878D02*
G75*
G02*
X228439999Y-31710000I450515J216878D01*
G01*
%TO.C,D122*%
X234520001Y-69972842D02*
X234520001Y-68567158D01*
X235425548Y-67770001D02*
X237014453Y-67770001D01*
X237014452Y-70770000D02*
X235425548Y-70770000D01*
X237919999Y-68567158D02*
X237919999Y-69972842D01*
X234470516Y-68350280D02*
G75*
G02*
X234520001Y-68567158I-450505J-216876D01*
G01*
X234470516Y-68350280D02*
G75*
G02*
X235173289Y-67701701I450515J216878D01*
G01*
X234520001Y-69972843D02*
G75*
G02*
X234470516Y-70189720I-499990J-1D01*
G01*
X235173289Y-70838297D02*
G75*
G02*
X234470516Y-70189720I-252258J431700D01*
G01*
X235173290Y-70838299D02*
G75*
G02*
X235425548Y-70770000I252261J-431710D01*
G01*
X235425547Y-67770000D02*
G75*
G02*
X235173289Y-67701701I3J500009D01*
G01*
X237014452Y-70770000D02*
G75*
G02*
X237266711Y-70838299I-3J-500012D01*
G01*
X237266711Y-67701702D02*
G75*
G02*
X237014453Y-67770002I-252262J431710D01*
G01*
X237266711Y-67701702D02*
G75*
G02*
X237969483Y-68350280I252258J-431700D01*
G01*
X237919999Y-68567157D02*
G75*
G02*
X237969478Y-68350277I500000J15D01*
G01*
X237969484Y-70189719D02*
G75*
G02*
X237266711Y-70838299I-450514J-216880D01*
G01*
X237969484Y-70189720D02*
G75*
G02*
X237919999Y-69972842I450515J216878D01*
G01*
%TO.C,D54*%
X58720001Y-106145000D02*
X58720001Y-104739316D01*
X59625548Y-103942159D02*
X61214453Y-103942159D01*
X61214452Y-106942158D02*
X59625548Y-106942158D01*
X62119999Y-104739316D02*
X62119999Y-106145000D01*
X58670516Y-104522438D02*
G75*
G02*
X58720001Y-104739316I-450505J-216876D01*
G01*
X58670516Y-104522438D02*
G75*
G02*
X59373289Y-103873859I450515J216878D01*
G01*
X58720001Y-106145001D02*
G75*
G02*
X58670516Y-106361878I-499990J-1D01*
G01*
X59373289Y-107010455D02*
G75*
G02*
X58670516Y-106361878I-252258J431700D01*
G01*
X59373290Y-107010457D02*
G75*
G02*
X59625548Y-106942158I252261J-431710D01*
G01*
X59625547Y-103942158D02*
G75*
G02*
X59373289Y-103873859I3J500009D01*
G01*
X61214452Y-106942158D02*
G75*
G02*
X61466711Y-107010457I-3J-500012D01*
G01*
X61466711Y-103873860D02*
G75*
G02*
X61214453Y-103942160I-252262J431710D01*
G01*
X61466711Y-103873860D02*
G75*
G02*
X62169483Y-104522438I252258J-431700D01*
G01*
X62119999Y-104739315D02*
G75*
G02*
X62169478Y-104522435I500000J15D01*
G01*
X62169484Y-106361877D02*
G75*
G02*
X61466711Y-107010457I-450514J-216880D01*
G01*
X62169484Y-106361878D02*
G75*
G02*
X62119999Y-106145000I450515J216878D01*
G01*
%TO.C,D108*%
X175110002Y-50875000D02*
X175110002Y-49469316D01*
X176015549Y-48672159D02*
X177604454Y-48672159D01*
X177604453Y-51672158D02*
X176015549Y-51672158D01*
X178510000Y-49469316D02*
X178510000Y-50875000D01*
X175060517Y-49252438D02*
G75*
G02*
X175110002Y-49469316I-450505J-216876D01*
G01*
X175060517Y-49252438D02*
G75*
G02*
X175763290Y-48603859I450515J216878D01*
G01*
X175110002Y-50875001D02*
G75*
G02*
X175060517Y-51091878I-499990J-1D01*
G01*
X175763290Y-51740455D02*
G75*
G02*
X175060517Y-51091878I-252258J431700D01*
G01*
X175763291Y-51740457D02*
G75*
G02*
X176015549Y-51672158I252261J-431710D01*
G01*
X176015548Y-48672158D02*
G75*
G02*
X175763290Y-48603859I3J500009D01*
G01*
X177604453Y-51672158D02*
G75*
G02*
X177856712Y-51740457I-3J-500012D01*
G01*
X177856712Y-48603860D02*
G75*
G02*
X177604454Y-48672160I-252262J431710D01*
G01*
X177856712Y-48603860D02*
G75*
G02*
X178559484Y-49252438I252258J-431700D01*
G01*
X178510000Y-49469315D02*
G75*
G02*
X178559479Y-49252435I500000J15D01*
G01*
X178559485Y-51091877D02*
G75*
G02*
X177856712Y-51740457I-450514J-216880D01*
G01*
X178559485Y-51091878D02*
G75*
G02*
X178510000Y-50875000I450515J216878D01*
G01*
%TO.C,D112*%
X245260001Y-31777842D02*
X245260001Y-30372158D01*
X246165548Y-29575001D02*
X247754453Y-29575001D01*
X247754452Y-32575000D02*
X246165548Y-32575000D01*
X248659999Y-30372158D02*
X248659999Y-31777842D01*
X245210516Y-30155280D02*
G75*
G02*
X245260001Y-30372158I-450505J-216876D01*
G01*
X245210516Y-30155280D02*
G75*
G02*
X245913289Y-29506701I450515J216878D01*
G01*
X245260001Y-31777843D02*
G75*
G02*
X245210516Y-31994720I-499990J-1D01*
G01*
X245913289Y-32643297D02*
G75*
G02*
X245210516Y-31994720I-252258J431700D01*
G01*
X245913290Y-32643299D02*
G75*
G02*
X246165548Y-32575000I252261J-431710D01*
G01*
X246165547Y-29575000D02*
G75*
G02*
X245913289Y-29506701I3J500009D01*
G01*
X247754452Y-32575000D02*
G75*
G02*
X248006711Y-32643299I-3J-500012D01*
G01*
X248006711Y-29506702D02*
G75*
G02*
X247754453Y-29575002I-252262J431710D01*
G01*
X248006711Y-29506702D02*
G75*
G02*
X248709483Y-30155280I252258J-431700D01*
G01*
X248659999Y-30372157D02*
G75*
G02*
X248709478Y-30155277I500000J15D01*
G01*
X248709484Y-31994719D02*
G75*
G02*
X248006711Y-32643299I-450514J-216880D01*
G01*
X248709484Y-31994720D02*
G75*
G02*
X248659999Y-31777842I450515J216878D01*
G01*
%TO.C,D79*%
X72480002Y-31695000D02*
X72480002Y-30289316D01*
X73385549Y-29492159D02*
X74974454Y-29492159D01*
X74974453Y-32492158D02*
X73385549Y-32492158D01*
X75880000Y-30289316D02*
X75880000Y-31695000D01*
X72430517Y-30072438D02*
G75*
G02*
X72480002Y-30289316I-450505J-216876D01*
G01*
X72430517Y-30072438D02*
G75*
G02*
X73133290Y-29423859I450515J216878D01*
G01*
X72480002Y-31695001D02*
G75*
G02*
X72430517Y-31911878I-499990J-1D01*
G01*
X73133290Y-32560455D02*
G75*
G02*
X72430517Y-31911878I-252258J431700D01*
G01*
X73133291Y-32560457D02*
G75*
G02*
X73385549Y-32492158I252261J-431710D01*
G01*
X73385548Y-29492158D02*
G75*
G02*
X73133290Y-29423859I3J500009D01*
G01*
X74974453Y-32492158D02*
G75*
G02*
X75226712Y-32560457I-3J-500012D01*
G01*
X75226712Y-29423860D02*
G75*
G02*
X74974454Y-29492160I-252262J431710D01*
G01*
X75226712Y-29423860D02*
G75*
G02*
X75929484Y-30072438I252258J-431700D01*
G01*
X75880000Y-30289315D02*
G75*
G02*
X75929479Y-30072435I500000J15D01*
G01*
X75929485Y-31911877D02*
G75*
G02*
X75226712Y-32560457I-450514J-216880D01*
G01*
X75929485Y-31911878D02*
G75*
G02*
X75880000Y-31695000I450515J216878D01*
G01*
%TO.C,D71*%
X292300001Y-19272842D02*
X292300001Y-17867158D01*
X293205548Y-17070001D02*
X294794453Y-17070001D01*
X294794452Y-20070000D02*
X293205548Y-20070000D01*
X295699999Y-17867158D02*
X295699999Y-19272842D01*
X292250516Y-17650280D02*
G75*
G02*
X292300001Y-17867158I-450505J-216876D01*
G01*
X292250516Y-17650280D02*
G75*
G02*
X292953289Y-17001701I450515J216878D01*
G01*
X292300001Y-19272843D02*
G75*
G02*
X292250516Y-19489720I-499990J-1D01*
G01*
X292953289Y-20138297D02*
G75*
G02*
X292250516Y-19489720I-252258J431700D01*
G01*
X292953290Y-20138299D02*
G75*
G02*
X293205548Y-20070000I252261J-431710D01*
G01*
X293205547Y-17070000D02*
G75*
G02*
X292953289Y-17001701I3J500009D01*
G01*
X294794452Y-20070000D02*
G75*
G02*
X295046711Y-20138299I-3J-500012D01*
G01*
X295046711Y-17001702D02*
G75*
G02*
X294794453Y-17070002I-252262J431710D01*
G01*
X295046711Y-17001702D02*
G75*
G02*
X295749483Y-17650280I252258J-431700D01*
G01*
X295699999Y-17867157D02*
G75*
G02*
X295749478Y-17650277I500000J15D01*
G01*
X295749484Y-19489719D02*
G75*
G02*
X295046711Y-20138299I-450514J-216880D01*
G01*
X295749484Y-19489720D02*
G75*
G02*
X295699999Y-19272842I450515J216878D01*
G01*
%TO.C,D72*%
X259480001Y-12912842D02*
X259480001Y-11507158D01*
X260385548Y-10710001D02*
X261974453Y-10710001D01*
X261974452Y-13710000D02*
X260385548Y-13710000D01*
X262879999Y-11507158D02*
X262879999Y-12912842D01*
X259430516Y-11290280D02*
G75*
G02*
X259480001Y-11507158I-450505J-216876D01*
G01*
X259430516Y-11290280D02*
G75*
G02*
X260133289Y-10641701I450515J216878D01*
G01*
X259480001Y-12912843D02*
G75*
G02*
X259430516Y-13129720I-499990J-1D01*
G01*
X260133289Y-13778297D02*
G75*
G02*
X259430516Y-13129720I-252258J431700D01*
G01*
X260133290Y-13778299D02*
G75*
G02*
X260385548Y-13710000I252261J-431710D01*
G01*
X260385547Y-10710000D02*
G75*
G02*
X260133289Y-10641701I3J500009D01*
G01*
X261974452Y-13710000D02*
G75*
G02*
X262226711Y-13778299I-3J-500012D01*
G01*
X262226711Y-10641702D02*
G75*
G02*
X261974453Y-10710002I-252262J431710D01*
G01*
X262226711Y-10641702D02*
G75*
G02*
X262929483Y-11290280I252258J-431700D01*
G01*
X262879999Y-11507157D02*
G75*
G02*
X262929478Y-11290277I500000J15D01*
G01*
X262929484Y-13129719D02*
G75*
G02*
X262226711Y-13778299I-450514J-216880D01*
G01*
X262929484Y-13129720D02*
G75*
G02*
X262879999Y-12912842I450515J216878D01*
G01*
%TO.C,D130*%
X158840001Y-70022842D02*
X158840001Y-68617158D01*
X159745548Y-67820001D02*
X161334453Y-67820001D01*
X161334452Y-70820000D02*
X159745548Y-70820000D01*
X162239999Y-68617158D02*
X162239999Y-70022842D01*
X158790516Y-68400280D02*
G75*
G02*
X158840001Y-68617158I-450505J-216876D01*
G01*
X158790516Y-68400280D02*
G75*
G02*
X159493289Y-67751701I450515J216878D01*
G01*
X158840001Y-70022843D02*
G75*
G02*
X158790516Y-70239720I-499990J-1D01*
G01*
X159493289Y-70888297D02*
G75*
G02*
X158790516Y-70239720I-252258J431700D01*
G01*
X159493290Y-70888299D02*
G75*
G02*
X159745548Y-70820000I252261J-431710D01*
G01*
X159745547Y-67820000D02*
G75*
G02*
X159493289Y-67751701I3J500009D01*
G01*
X161334452Y-70820000D02*
G75*
G02*
X161586711Y-70888299I-3J-500012D01*
G01*
X161586711Y-67751702D02*
G75*
G02*
X161334453Y-67820002I-252262J431710D01*
G01*
X161586711Y-67751702D02*
G75*
G02*
X162289483Y-68400280I252258J-431700D01*
G01*
X162239999Y-68617157D02*
G75*
G02*
X162289478Y-68400277I500000J15D01*
G01*
X162289484Y-70239719D02*
G75*
G02*
X161586711Y-70888299I-450514J-216880D01*
G01*
X162289484Y-70239720D02*
G75*
G02*
X162239999Y-70022842I450515J216878D01*
G01*
%TO.C,D26*%
X85230001Y-89612842D02*
X85230001Y-88207158D01*
X86135548Y-87410001D02*
X87724453Y-87410001D01*
X87724452Y-90410000D02*
X86135548Y-90410000D01*
X88629999Y-88207158D02*
X88629999Y-89612842D01*
X85180516Y-87990280D02*
G75*
G02*
X85230001Y-88207158I-450505J-216876D01*
G01*
X85180516Y-87990280D02*
G75*
G02*
X85883289Y-87341701I450515J216878D01*
G01*
X85230001Y-89612843D02*
G75*
G02*
X85180516Y-89829720I-499990J-1D01*
G01*
X85883289Y-90478297D02*
G75*
G02*
X85180516Y-89829720I-252258J431700D01*
G01*
X85883290Y-90478299D02*
G75*
G02*
X86135548Y-90410000I252261J-431710D01*
G01*
X86135547Y-87410000D02*
G75*
G02*
X85883289Y-87341701I3J500009D01*
G01*
X87724452Y-90410000D02*
G75*
G02*
X87976711Y-90478299I-3J-500012D01*
G01*
X87976711Y-87341702D02*
G75*
G02*
X87724453Y-87410002I-252262J431710D01*
G01*
X87976711Y-87341702D02*
G75*
G02*
X88679483Y-87990280I252258J-431700D01*
G01*
X88629999Y-88207157D02*
G75*
G02*
X88679478Y-87990277I500000J15D01*
G01*
X88679484Y-89829719D02*
G75*
G02*
X87976711Y-90478299I-450514J-216880D01*
G01*
X88679484Y-89829720D02*
G75*
G02*
X88629999Y-89612842I450515J216878D01*
G01*
%TO.C,D62*%
X81867002Y-106525000D02*
X81867002Y-105119316D01*
X82772549Y-104322159D02*
X84361454Y-104322159D01*
X84361453Y-107322158D02*
X82772549Y-107322158D01*
X85267000Y-105119316D02*
X85267000Y-106525000D01*
X81817517Y-104902438D02*
G75*
G02*
X81867002Y-105119316I-450505J-216876D01*
G01*
X81817517Y-104902438D02*
G75*
G02*
X82520290Y-104253859I450515J216878D01*
G01*
X81867002Y-106525001D02*
G75*
G02*
X81817517Y-106741878I-499990J-1D01*
G01*
X82520290Y-107390455D02*
G75*
G02*
X81817517Y-106741878I-252258J431700D01*
G01*
X82520291Y-107390457D02*
G75*
G02*
X82772549Y-107322158I252261J-431710D01*
G01*
X82772548Y-104322158D02*
G75*
G02*
X82520290Y-104253859I3J500009D01*
G01*
X84361453Y-107322158D02*
G75*
G02*
X84613712Y-107390457I-3J-500012D01*
G01*
X84613712Y-104253860D02*
G75*
G02*
X84361454Y-104322160I-252262J431710D01*
G01*
X84613712Y-104253860D02*
G75*
G02*
X85316484Y-104902438I252258J-431700D01*
G01*
X85267000Y-105119315D02*
G75*
G02*
X85316479Y-104902435I500000J15D01*
G01*
X85316485Y-106741877D02*
G75*
G02*
X84613712Y-107390457I-450514J-216880D01*
G01*
X85316485Y-106741878D02*
G75*
G02*
X85267000Y-106525000I450515J216878D01*
G01*
%TO.C,D53*%
X35580002Y-105885000D02*
X35580002Y-104479316D01*
X36485549Y-103682159D02*
X38074454Y-103682159D01*
X38074453Y-106682158D02*
X36485549Y-106682158D01*
X38980000Y-104479316D02*
X38980000Y-105885000D01*
X35530517Y-104262438D02*
G75*
G02*
X35580002Y-104479316I-450505J-216876D01*
G01*
X35530517Y-104262438D02*
G75*
G02*
X36233290Y-103613859I450515J216878D01*
G01*
X35580002Y-105885001D02*
G75*
G02*
X35530517Y-106101878I-499990J-1D01*
G01*
X36233290Y-106750455D02*
G75*
G02*
X35530517Y-106101878I-252258J431700D01*
G01*
X36233291Y-106750457D02*
G75*
G02*
X36485549Y-106682158I252261J-431710D01*
G01*
X36485548Y-103682158D02*
G75*
G02*
X36233290Y-103613859I3J500009D01*
G01*
X38074453Y-106682158D02*
G75*
G02*
X38326712Y-106750457I-3J-500012D01*
G01*
X38326712Y-103613860D02*
G75*
G02*
X38074454Y-103682160I-252262J431710D01*
G01*
X38326712Y-103613860D02*
G75*
G02*
X39029484Y-104262438I252258J-431700D01*
G01*
X38980000Y-104479315D02*
G75*
G02*
X39029479Y-104262435I500000J15D01*
G01*
X39029485Y-106101877D02*
G75*
G02*
X38326712Y-106750457I-450514J-216880D01*
G01*
X39029485Y-106101878D02*
G75*
G02*
X38980000Y-105885000I450515J216878D01*
G01*
%TO.C,D86*%
X34330002Y-13070000D02*
X34330002Y-11664316D01*
X35235549Y-10867159D02*
X36824454Y-10867159D01*
X36824453Y-13867158D02*
X35235549Y-13867158D01*
X37730000Y-11664316D02*
X37730000Y-13070000D01*
X34280517Y-11447438D02*
G75*
G02*
X34330002Y-11664316I-450505J-216876D01*
G01*
X34280517Y-11447438D02*
G75*
G02*
X34983290Y-10798859I450515J216878D01*
G01*
X34330002Y-13070001D02*
G75*
G02*
X34280517Y-13286878I-499990J-1D01*
G01*
X34983290Y-13935455D02*
G75*
G02*
X34280517Y-13286878I-252258J431700D01*
G01*
X34983291Y-13935457D02*
G75*
G02*
X35235549Y-13867158I252261J-431710D01*
G01*
X35235548Y-10867158D02*
G75*
G02*
X34983290Y-10798859I3J500009D01*
G01*
X36824453Y-13867158D02*
G75*
G02*
X37076712Y-13935457I-3J-500012D01*
G01*
X37076712Y-10798860D02*
G75*
G02*
X36824454Y-10867160I-252262J431710D01*
G01*
X37076712Y-10798860D02*
G75*
G02*
X37779484Y-11447438I252258J-431700D01*
G01*
X37730000Y-11664315D02*
G75*
G02*
X37779479Y-11447435I500000J15D01*
G01*
X37779485Y-13286877D02*
G75*
G02*
X37076712Y-13935457I-450514J-216880D01*
G01*
X37779485Y-13286878D02*
G75*
G02*
X37730000Y-13070000I450515J216878D01*
G01*
%TO.C,D107*%
X194090002Y-50885000D02*
X194090002Y-49479316D01*
X194995549Y-48682159D02*
X196584454Y-48682159D01*
X196584453Y-51682158D02*
X194995549Y-51682158D01*
X197490000Y-49479316D02*
X197490000Y-50885000D01*
X194040517Y-49262438D02*
G75*
G02*
X194090002Y-49479316I-450505J-216876D01*
G01*
X194040517Y-49262438D02*
G75*
G02*
X194743290Y-48613859I450515J216878D01*
G01*
X194090002Y-50885001D02*
G75*
G02*
X194040517Y-51101878I-499990J-1D01*
G01*
X194743290Y-51750455D02*
G75*
G02*
X194040517Y-51101878I-252258J431700D01*
G01*
X194743291Y-51750457D02*
G75*
G02*
X194995549Y-51682158I252261J-431710D01*
G01*
X194995548Y-48682158D02*
G75*
G02*
X194743290Y-48613859I3J500009D01*
G01*
X196584453Y-51682158D02*
G75*
G02*
X196836712Y-51750457I-3J-500012D01*
G01*
X196836712Y-48613860D02*
G75*
G02*
X196584454Y-48682160I-252262J431710D01*
G01*
X196836712Y-48613860D02*
G75*
G02*
X197539484Y-49262438I252258J-431700D01*
G01*
X197490000Y-49479315D02*
G75*
G02*
X197539479Y-49262435I500000J15D01*
G01*
X197539485Y-51101877D02*
G75*
G02*
X196836712Y-51750457I-450514J-216880D01*
G01*
X197539485Y-51101878D02*
G75*
G02*
X197490000Y-50885000I450515J216878D01*
G01*
%TO.C,D49*%
X167590002Y-12955000D02*
X167590002Y-11549316D01*
X168495549Y-10752159D02*
X170084454Y-10752159D01*
X170084453Y-13752158D02*
X168495549Y-13752158D01*
X170990000Y-11549316D02*
X170990000Y-12955000D01*
X167540517Y-11332438D02*
G75*
G02*
X167590002Y-11549316I-450505J-216876D01*
G01*
X167540517Y-11332438D02*
G75*
G02*
X168243290Y-10683859I450515J216878D01*
G01*
X167590002Y-12955001D02*
G75*
G02*
X167540517Y-13171878I-499990J-1D01*
G01*
X168243290Y-13820455D02*
G75*
G02*
X167540517Y-13171878I-252258J431700D01*
G01*
X168243291Y-13820457D02*
G75*
G02*
X168495549Y-13752158I252261J-431710D01*
G01*
X168495548Y-10752158D02*
G75*
G02*
X168243290Y-10683859I3J500009D01*
G01*
X170084453Y-13752158D02*
G75*
G02*
X170336712Y-13820457I-3J-500012D01*
G01*
X170336712Y-10683860D02*
G75*
G02*
X170084454Y-10752160I-252262J431710D01*
G01*
X170336712Y-10683860D02*
G75*
G02*
X171039484Y-11332438I252258J-431700D01*
G01*
X170990000Y-11549315D02*
G75*
G02*
X171039479Y-11332435I500000J15D01*
G01*
X171039485Y-13171877D02*
G75*
G02*
X170336712Y-13820457I-450514J-216880D01*
G01*
X171039485Y-13171878D02*
G75*
G02*
X170990000Y-12955000I450515J216878D01*
G01*
%TO.C,D119*%
X147070001Y-88992842D02*
X147070001Y-87587158D01*
X147975548Y-86790001D02*
X149564453Y-86790001D01*
X149564452Y-89790000D02*
X147975548Y-89790000D01*
X150469999Y-87587158D02*
X150469999Y-88992842D01*
X147020516Y-87370280D02*
G75*
G02*
X147070001Y-87587158I-450505J-216876D01*
G01*
X147020516Y-87370280D02*
G75*
G02*
X147723289Y-86721701I450515J216878D01*
G01*
X147070001Y-88992843D02*
G75*
G02*
X147020516Y-89209720I-499990J-1D01*
G01*
X147723289Y-89858297D02*
G75*
G02*
X147020516Y-89209720I-252258J431700D01*
G01*
X147723290Y-89858299D02*
G75*
G02*
X147975548Y-89790000I252261J-431710D01*
G01*
X147975547Y-86790000D02*
G75*
G02*
X147723289Y-86721701I3J500009D01*
G01*
X149564452Y-89790000D02*
G75*
G02*
X149816711Y-89858299I-3J-500012D01*
G01*
X149816711Y-86721702D02*
G75*
G02*
X149564453Y-86790002I-252262J431710D01*
G01*
X149816711Y-86721702D02*
G75*
G02*
X150519483Y-87370280I252258J-431700D01*
G01*
X150469999Y-87587157D02*
G75*
G02*
X150519478Y-87370277I500000J15D01*
G01*
X150519484Y-89209719D02*
G75*
G02*
X149816711Y-89858299I-450514J-216880D01*
G01*
X150519484Y-89209720D02*
G75*
G02*
X150469999Y-88992842I450515J216878D01*
G01*
%TD*%
M02*
