%TF.GenerationSoftware,KiCad,Pcbnew,9.0.7*%
%TF.CreationDate,2026-05-29T00:44:10+05:30*%
%TF.ProjectId,Reciever,52656369-6576-4657-922e-6b696361645f,rev?*%
%TF.SameCoordinates,Original*%
%TF.FileFunction,Copper,L1,Top*%
%TF.FilePolarity,Positive*%
%FSLAX46Y46*%
G04 Gerber Fmt 4.6, Leading zero omitted, Abs format (unit mm)*
G04 Created by KiCad (PCBNEW 9.0.7) date 2026-05-29 00:44:10*
%MOMM*%
%LPD*%
G01*
G04 APERTURE LIST*
G04 Aperture macros list*
%AMOutline5P*
0 Free polygon, 5 corners , with rotation*
0 The origin of the aperture is its center*
0 number of corners: always 5*
0 $1 to $10 corner X, Y*
0 $11 Rotation angle, in degrees counterclockwise*
0 create outline with 5 corners*
4,1,5,$1,$2,$3,$4,$5,$6,$7,$8,$9,$10,$1,$2,$11*%
%AMOutline6P*
0 Free polygon, 6 corners , with rotation*
0 The origin of the aperture is its center*
0 number of corners: always 6*
0 $1 to $12 corner X, Y*
0 $13 Rotation angle, in degrees counterclockwise*
0 create outline with 6 corners*
4,1,6,$1,$2,$3,$4,$5,$6,$7,$8,$9,$10,$11,$12,$1,$2,$13*%
%AMOutline7P*
0 Free polygon, 7 corners , with rotation*
0 The origin of the aperture is its center*
0 number of corners: always 7*
0 $1 to $14 corner X, Y*
0 $15 Rotation angle, in degrees counterclockwise*
0 create outline with 7 corners*
4,1,7,$1,$2,$3,$4,$5,$6,$7,$8,$9,$10,$11,$12,$13,$14,$1,$2,$15*%
%AMOutline8P*
0 Free polygon, 8 corners , with rotation*
0 The origin of the aperture is its center*
0 number of corners: always 8*
0 $1 to $16 corner X, Y*
0 $17 Rotation angle, in degrees counterclockwise*
0 create outline with 8 corners*
4,1,8,$1,$2,$3,$4,$5,$6,$7,$8,$9,$10,$11,$12,$13,$14,$15,$16,$1,$2,$17*%
G04 Aperture macros list end*
%TA.AperFunction,ComponentPad*%
%ADD10R,1.600000X1.500000*%
%TD*%
%TA.AperFunction,ComponentPad*%
%ADD11C,1.600000*%
%TD*%
%TA.AperFunction,ComponentPad*%
%ADD12C,3.000000*%
%TD*%
%TA.AperFunction,SMDPad,CuDef*%
%ADD13R,0.800000X0.400000*%
%TD*%
%TA.AperFunction,SMDPad,CuDef*%
%ADD14R,0.400000X0.800000*%
%TD*%
%TA.AperFunction,HeatsinkPad*%
%ADD15Outline5P,-0.600000X0.204000X-0.204000X0.600000X0.600000X0.600000X0.600000X-0.600000X-0.600000X-0.600000X0.000000*%
%TD*%
%TA.AperFunction,HeatsinkPad*%
%ADD16R,1.200000X1.200000*%
%TD*%
%TA.AperFunction,SMDPad,CuDef*%
%ADD17R,0.800000X0.800000*%
%TD*%
%TA.AperFunction,ViaPad*%
%ADD18C,0.300000*%
%TD*%
%TA.AperFunction,Conductor*%
%ADD19C,0.200000*%
%TD*%
G04 APERTURE END LIST*
D10*
%TO.P,J2,1,VBUS*%
%TO.N,Net-(J2-VBUS)*%
X128240000Y-70610000D03*
D11*
%TO.P,J2,2,D-*%
%TO.N,unconnected-(J2-D--Pad2)*%
X130740000Y-70610000D03*
%TO.P,J2,3,D+*%
%TO.N,unconnected-(J2-D+-Pad3)*%
X132740000Y-70610000D03*
%TO.P,J2,4,GND*%
%TO.N,GND*%
X135240000Y-70610000D03*
D12*
%TO.P,J2,5,Shield*%
%TO.N,unconnected-(J2-Shield-Pad5)*%
X125170000Y-73320000D03*
X138310000Y-73320000D03*
%TD*%
D13*
%TO.P,U1,1,GND*%
%TO.N,GND*%
X124860000Y-53860000D03*
%TO.P,U1,2,GND*%
X124860000Y-54710000D03*
%TO.P,U1,3,3V3*%
%TO.N,Net-(U1-3V3)*%
X124860000Y-55560000D03*
%TO.P,U1,4,IO0*%
%TO.N,unconnected-(U1-IO0-Pad4)*%
X124860000Y-56410000D03*
%TO.P,U1,5,IO1*%
%TO.N,unconnected-(U1-IO1-Pad5)*%
X124860000Y-57260000D03*
%TO.P,U1,6,IO2*%
%TO.N,unconnected-(U1-IO2-Pad6)*%
X124860000Y-58110000D03*
%TO.P,U1,7,IO3*%
%TO.N,unconnected-(U1-IO3-Pad7)*%
X124860000Y-58960000D03*
%TO.P,U1,8,IO4*%
%TO.N,unconnected-(U1-IO4-Pad8)*%
X124860000Y-59810000D03*
%TO.P,U1,9,IO5*%
%TO.N,unconnected-(U1-IO5-Pad9)*%
X124860000Y-60660000D03*
%TO.P,U1,10,IO6*%
%TO.N,unconnected-(U1-IO6-Pad10)*%
X124860000Y-61510000D03*
%TO.P,U1,11,IO7*%
%TO.N,unconnected-(U1-IO7-Pad11)*%
X124860000Y-62360000D03*
%TO.P,U1,12,IO8*%
%TO.N,unconnected-(U1-IO8-Pad12)*%
X124860000Y-63210000D03*
%TO.P,U1,13,IO9*%
%TO.N,unconnected-(U1-IO9-Pad13)*%
X124860000Y-64060000D03*
%TO.P,U1,14,IO10*%
%TO.N,unconnected-(U1-IO10-Pad14)*%
X124860000Y-64910000D03*
%TO.P,U1,15,IO11*%
%TO.N,unconnected-(U1-IO11-Pad15)*%
X124860000Y-65760000D03*
D14*
%TO.P,U1,16,IO12*%
%TO.N,unconnected-(U1-IO12-Pad16)*%
X125910000Y-66810000D03*
%TO.P,U1,17,IO13*%
%TO.N,unconnected-(U1-IO13-Pad17)*%
X126760000Y-66810000D03*
%TO.P,U1,18,IO14*%
%TO.N,unconnected-(U1-IO14-Pad18)*%
X127610000Y-66810000D03*
%TO.P,U1,19,IO15*%
%TO.N,unconnected-(U1-IO15-Pad19)*%
X128460000Y-66810000D03*
%TO.P,U1,20,IO16*%
%TO.N,unconnected-(U1-IO16-Pad20)*%
X129310000Y-66810000D03*
%TO.P,U1,21,IO17*%
%TO.N,unconnected-(U1-IO17-Pad21)*%
X130160000Y-66810000D03*
%TO.P,U1,22,IO18*%
%TO.N,unconnected-(U1-IO18-Pad22)*%
X131010000Y-66810000D03*
%TO.P,U1,23,USB_D-*%
%TO.N,unconnected-(U1-USB_D--Pad23)*%
X131860000Y-66810000D03*
%TO.P,U1,24,USB_D+*%
%TO.N,unconnected-(U1-USB_D+-Pad24)*%
X132710000Y-66810000D03*
%TO.P,U1,25,IO21*%
%TO.N,unconnected-(U1-IO21-Pad25)*%
X133560000Y-66810000D03*
%TO.P,U1,26,IO26*%
%TO.N,unconnected-(U1-IO26-Pad26)*%
X134410000Y-66810000D03*
%TO.P,U1,27,IO47*%
%TO.N,unconnected-(U1-IO47-Pad27)*%
X135260000Y-66810000D03*
%TO.P,U1,28,IO33*%
%TO.N,unconnected-(U1-IO33-Pad28)*%
X136110000Y-66810000D03*
%TO.P,U1,29,IO34*%
%TO.N,unconnected-(U1-IO34-Pad29)*%
X136960000Y-66810000D03*
%TO.P,U1,30,IO48*%
%TO.N,unconnected-(U1-IO48-Pad30)*%
X137810000Y-66810000D03*
D13*
%TO.P,U1,31,IO35*%
%TO.N,unconnected-(U1-IO35-Pad31)*%
X138860000Y-65760000D03*
%TO.P,U1,32,IO36*%
%TO.N,unconnected-(U1-IO36-Pad32)*%
X138860000Y-64910000D03*
%TO.P,U1,33,IO37*%
%TO.N,unconnected-(U1-IO37-Pad33)*%
X138860000Y-64060000D03*
%TO.P,U1,34,IO38*%
%TO.N,unconnected-(U1-IO38-Pad34)*%
X138860000Y-63210000D03*
%TO.P,U1,35,IO39*%
%TO.N,unconnected-(U1-IO39-Pad35)*%
X138860000Y-62360000D03*
%TO.P,U1,36,IO40*%
%TO.N,unconnected-(U1-IO40-Pad36)*%
X138860000Y-61510000D03*
%TO.P,U1,37,IO41*%
%TO.N,unconnected-(U1-IO41-Pad37)*%
X138860000Y-60660000D03*
%TO.P,U1,38,IO42*%
%TO.N,unconnected-(U1-IO42-Pad38)*%
X138860000Y-59810000D03*
%TO.P,U1,39,TXD0*%
%TO.N,unconnected-(U1-TXD0-Pad39)*%
X138860000Y-58960000D03*
%TO.P,U1,40,RXD0*%
%TO.N,unconnected-(U1-RXD0-Pad40)*%
X138860000Y-58110000D03*
%TO.P,U1,41,IO45*%
%TO.N,unconnected-(U1-IO45-Pad41)*%
X138860000Y-57260000D03*
%TO.P,U1,42,GND*%
%TO.N,GND*%
X138860000Y-56410000D03*
%TO.P,U1,43,GND*%
X138860000Y-55560000D03*
%TO.P,U1,44,IO46*%
%TO.N,unconnected-(U1-IO46-Pad44)*%
X138860000Y-54710000D03*
%TO.P,U1,45,EN*%
%TO.N,unconnected-(U1-EN-Pad45)*%
X138860000Y-53860000D03*
D14*
%TO.P,U1,46,GND*%
%TO.N,GND*%
X137810000Y-52810000D03*
%TO.P,U1,47,GND*%
X136960000Y-52810000D03*
%TO.P,U1,48,GND*%
X136110000Y-52810000D03*
%TO.P,U1,49,GND*%
X135260000Y-52810000D03*
%TO.P,U1,50,GND*%
X134410000Y-52810000D03*
%TO.P,U1,51,GND*%
X133560000Y-52810000D03*
%TO.P,U1,52,GND*%
X132710000Y-52810000D03*
%TO.P,U1,53,GND*%
X131860000Y-52810000D03*
%TO.P,U1,54,GND*%
X131010000Y-52810000D03*
%TO.P,U1,55,GND*%
X130160000Y-52810000D03*
%TO.P,U1,56,GND*%
X129310000Y-52810000D03*
%TO.P,U1,57,GND*%
X128460000Y-52810000D03*
%TO.P,U1,58,GND*%
X127610000Y-52810000D03*
%TO.P,U1,59,GND*%
X126760000Y-52810000D03*
%TO.P,U1,60,GND*%
X125910000Y-52810000D03*
D15*
%TO.P,U1,61,GND*%
X130210000Y-58160000D03*
D16*
X130210000Y-59810000D03*
X130210000Y-61460000D03*
X131860000Y-58160000D03*
X131860000Y-59810000D03*
X131860000Y-61460000D03*
X133510000Y-58160000D03*
X133510000Y-59810000D03*
X133510000Y-61460000D03*
D17*
%TO.P,U1,62,GND*%
X124860000Y-52810000D03*
%TO.P,U1,63,GND*%
X124860000Y-66810000D03*
%TO.P,U1,64,GND*%
X138860000Y-66810000D03*
%TO.P,U1,65,GND*%
X138860000Y-52810000D03*
%TD*%
D18*
%TO.N,GND*%
X129080000Y-58910000D03*
%TO.N,Net-(U1-3V3)*%
X127470000Y-63040000D03*
%TD*%
D19*
%TO.N,GND*%
X130210000Y-59810000D02*
X129980000Y-59810000D01*
X133510000Y-58160000D02*
X135260000Y-56410000D01*
X133510000Y-61460000D02*
X130210000Y-61460000D01*
X138860000Y-56410000D02*
X138860000Y-55560000D01*
X129980000Y-59810000D02*
X129080000Y-58910000D01*
X138860000Y-66810000D02*
X133510000Y-61460000D01*
X124860000Y-52810000D02*
X124860000Y-54710000D01*
X130210000Y-61460000D02*
X130210000Y-58160000D01*
X130210000Y-61460000D02*
X124860000Y-66810000D01*
X138860000Y-52810000D02*
X124860000Y-52810000D01*
X133510000Y-58160000D02*
X133510000Y-61460000D01*
X138860000Y-66990000D02*
X138860000Y-66810000D01*
X131860000Y-61460000D02*
X131860000Y-52810000D01*
X135260000Y-56410000D02*
X138860000Y-56410000D01*
X135240000Y-70610000D02*
X138860000Y-66990000D01*
%TO.N,unconnected-(J2-Shield-Pad5)*%
X125170000Y-73320000D02*
X138310000Y-73320000D01*
%TO.N,Net-(U1-3V3)*%
X127470000Y-57970000D02*
X127470000Y-63040000D01*
X124860000Y-55560000D02*
X125060000Y-55560000D01*
X125060000Y-55560000D02*
X127470000Y-57970000D01*
%TD*%
M02*
