%TF.GenerationSoftware,KiCad,Pcbnew,9.0.7*%
%TF.CreationDate,2026-05-29T00:44:10+05:30*%
%TF.ProjectId,Reciever,52656369-6576-4657-922e-6b696361645f,rev?*%
%TF.SameCoordinates,Original*%
%TF.FileFunction,Legend,Top*%
%TF.FilePolarity,Positive*%
%FSLAX46Y46*%
G04 Gerber Fmt 4.6, Leading zero omitted, Abs format (unit mm)*
G04 Created by KiCad (PCBNEW 9.0.7) date 2026-05-29 00:44:10*
%MOMM*%
%LPD*%
G01*
G04 APERTURE LIST*
%ADD10C,0.150000*%
%ADD11C,0.120000*%
G04 APERTURE END LIST*
D10*
X131406666Y-66874819D02*
X131406666Y-67589104D01*
X131406666Y-67589104D02*
X131359047Y-67731961D01*
X131359047Y-67731961D02*
X131263809Y-67827200D01*
X131263809Y-67827200D02*
X131120952Y-67874819D01*
X131120952Y-67874819D02*
X131025714Y-67874819D01*
X131835238Y-66970057D02*
X131882857Y-66922438D01*
X131882857Y-66922438D02*
X131978095Y-66874819D01*
X131978095Y-66874819D02*
X132216190Y-66874819D01*
X132216190Y-66874819D02*
X132311428Y-66922438D01*
X132311428Y-66922438D02*
X132359047Y-66970057D01*
X132359047Y-66970057D02*
X132406666Y-67065295D01*
X132406666Y-67065295D02*
X132406666Y-67160533D01*
X132406666Y-67160533D02*
X132359047Y-67303390D01*
X132359047Y-67303390D02*
X131787619Y-67874819D01*
X131787619Y-67874819D02*
X132406666Y-67874819D01*
X125148095Y-68564819D02*
X125148095Y-69374342D01*
X125148095Y-69374342D02*
X125195714Y-69469580D01*
X125195714Y-69469580D02*
X125243333Y-69517200D01*
X125243333Y-69517200D02*
X125338571Y-69564819D01*
X125338571Y-69564819D02*
X125529047Y-69564819D01*
X125529047Y-69564819D02*
X125624285Y-69517200D01*
X125624285Y-69517200D02*
X125671904Y-69469580D01*
X125671904Y-69469580D02*
X125719523Y-69374342D01*
X125719523Y-69374342D02*
X125719523Y-68564819D01*
X126719523Y-69564819D02*
X126148095Y-69564819D01*
X126433809Y-69564819D02*
X126433809Y-68564819D01*
X126433809Y-68564819D02*
X126338571Y-68707676D01*
X126338571Y-68707676D02*
X126243333Y-68802914D01*
X126243333Y-68802914D02*
X126148095Y-68850533D01*
D11*
%TO.C,J2*%
X124430000Y-83190000D02*
X124430000Y-83710000D01*
X124430000Y-83710000D02*
X139050000Y-83710000D01*
X125080000Y-68230000D02*
X125080000Y-71560000D01*
X125080000Y-68230000D02*
X138400000Y-68230000D01*
X125080000Y-83190000D02*
X124430000Y-83190000D01*
X125080000Y-83190000D02*
X125080000Y-75080000D01*
X127340000Y-68010000D02*
X129140000Y-68010000D01*
X138400000Y-68230000D02*
X138400000Y-71560000D01*
X138400000Y-75080000D02*
X138400000Y-83190000D01*
X139050000Y-83190000D02*
X138400000Y-83190000D01*
X139050000Y-83710000D02*
X139050000Y-83190000D01*
%TO.C,U1*%
X123785000Y-46660000D02*
X123785000Y-49110000D01*
X123785000Y-46660000D02*
X126235000Y-46660000D01*
X124060000Y-46910000D02*
X139660000Y-46910000D01*
X124060000Y-67610000D02*
X124060000Y-46910000D01*
X139660000Y-46910000D02*
X139660000Y-67610000D01*
X139660000Y-67610000D02*
X124060000Y-67610000D01*
X123885000Y-53860000D02*
X123549000Y-54100000D01*
X123549000Y-53620000D01*
X123885000Y-53860000D01*
G36*
X123885000Y-53860000D02*
G01*
X123549000Y-54100000D01*
X123549000Y-53620000D01*
X123885000Y-53860000D01*
G37*
%TD*%
M02*
